<?xml version="1.0" encoding="UTF-8" standalone="no"?>
<!DOCTYPE svg  PUBLIC '-//W3C//DTD SVG 1.1//EN'  'http://www.w3.org/Graphics/SVG/1.1/DTD/svg11.dtd'>
<svg xmlns="http://www.w3.org/2000/svg">
<defs>
<font id="CentraleSansBold-Italic" horiz-adv-x="713">
<font-face slope="-10" underline-position="-50" font-weight="800" descent="-200" panose-1="0 0 0 0 0 0 0 0 0 0" units-per-em="1000" unicode-range="U+000D-FB04" bbox="-279 -218 1362 956" x-height="520" underline-thickness="50" font-family="CentraleSansBold" ascent="800" font-style="italic" cap-height="700"/>
<missing-glyph d="M201 544l-85 -478l167 241zM534 544l-168 -242l83 -236zM525 656h-282l94 -271zM407 -46l-95 271l-188 -271h283zM640 732l-150 -853h-480l150 853h480z" horiz-adv-x="634"/>
<glyph glyph-name="f_f" horiz-adv-x="689" unicode="ff" d="M639 748q58 0 122 -15l-24 -94q-32 10 -72 10q-70 0 -81 -67l-11 -62h140l-16 -93h-140l-94 -537h-131l94 537h-172l-94 -537h-132l94 537h-85l17 93h85l10 56q8 41 19 69.5t31 51t52.5 33.5t77.5 11q48 0 104 -13l-24 -94q-32 8 -55 8q-62 0 -74 -67l-10 -55h173l11 64 q16 78 55.5 121t129.5 43z"/>
<glyph glyph-name="f_f_i" horiz-adv-x="917" unicode="ffi" d="M683 748q110 0 179 -54l-42 -74q-6 5 -21 12t-44.5 15t-58.5 8q-99 0 -114 -87l-8 -48h318l-90 -520h-132l74 427h-186l-96 -537h-131l95 537h-173l-95 -537h-131l95 537h-85l17 93h85l10 56q14 80 52.5 122.5t130.5 42.5q43 0 101 -13l-24 -94q-27 8 -58 8 q-61 0 -72 -67l-10 -55h173l8 45q16 91 78 137t155 46z"/>
<glyph glyph-name="f_f_l" horiz-adv-x="952" unicode="ffl" d="M862 93q17 0 39 2l-13 -96q-56 -8 -87 -8q-61 0 -88 20t-27 66q0 22 4 43l74 419q3 24 3 32q0 40 -22.5 58.5t-57.5 18.5q-39 0 -69 -22.5t-38 -71.5l-6 -34h107l-17 -93h-106l-95 -537h-131l95 537h-173l-95 -537h-132l95 537h-85l16 93h86l10 59q13 80 53.5 121 t130.5 41q43 0 104 -13l-25 -94q-30 8 -64 8q-57 0 -68 -65l-10 -57h173l7 37q16 91 77 140.5t162 49.5q91 0 151 -41.5t60 -128.5q0 -21 -4 -49l-73 -398q-1 -4 -1 -11q0 -26 40 -26z"/>
<glyph glyph-name=".notdef" d="M201 544l-85 -478l167 241zM534 544l-168 -242l83 -236zM525 656h-282l94 -271zM407 -46l-95 271l-188 -271h283zM640 732l-150 -853h-480l150 853h480z" horiz-adv-x="634"/>
<glyph glyph-name=".null" horiz-adv-x="0"/>
<glyph glyph-name=".null" horiz-adv-x="0"/>
<glyph glyph-name="nonmarkingreturn" horiz-adv-x="333"/>
<glyph glyph-name="CR" horiz-adv-x="303" unicode=""/>
<glyph glyph-name="space" horiz-adv-x="265" unicode=" "/>
<glyph glyph-name="exclam" horiz-adv-x="294" unicode="!" d="M115 120q32 0 51.5 -15.5t19.5 -45.5v-6q-2 -30 -21.5 -48.5t-51.5 -18.5t-51.5 15t-19.5 44v7q2 31 21.5 49.5t51.5 18.5zM294 701l-107 -484h-108l63 484h152z"/>
<glyph glyph-name="quotedbl" horiz-adv-x="484" unicode='&quot;' d="M284 700l-108 -290h-82l50 290h140zM503 700l-109 -290h-82l51 290h140z"/>
<glyph glyph-name="numbersign" horiz-adv-x="790" unicode="#" d="M349 430l-59 -167h171l59 167h-171zM791 540l-39 -110h-121l-59 -167h121l-40 -111h-120l-53 -152h-111l53 152h-171l-53 -152h-116l54 152h-120l41 111h119l60 167h-120l39 110h120l58 161h112l-57 -161h171l57 161h111l-57 -161h121z"/>
<glyph glyph-name="dollar" horiz-adv-x="598" unicode="$" d="M432 805l-17 -95q98 -9 192 -64l-49 -108q-100 63 -200 63q-65 0 -91 -25t-26 -59q0 -37 28.5 -59.5t98.5 -51.5q87 -36 129 -78t42 -118q0 -88 -58 -152t-191 -72l-16 -90h-74l16 91q-113 12 -201 69l45 107q112 -66 206 -66h14q56 2 83.5 26t27.5 63q0 14 -3 25 t-11.5 20.5t-14.5 15.5t-23 15t-25.5 12.5t-32.5 13.5t-34 14q-25 11 -43 20t-41 25.5t-36.5 35.5t-23.5 48t-10 64q0 89 60 150.5t188 66.5l17 93h74z"/>
<glyph glyph-name="percent" horiz-adv-x="876" unicode="%" d="M766 701l-524 -701h-105l527 701h102zM263 628q-36 0 -56.5 -27t-20.5 -76q0 -67 60 -67q35 0 55.5 27t20.5 76q0 67 -59 67zM278 713q65 0 104 -37t39 -102q0 -96 -50 -147t-141 -51q-65 0 -104.5 37t-39.5 101q0 96 50.5 147.5t141.5 51.5zM660 242q-36 0 -56.5 -27 t-20.5 -76q0 -67 60 -67q35 0 55.5 26.5t20.5 75.5q0 68 -59 68zM675 326q65 0 104 -37t39 -101q0 -97 -50 -148t-141 -51q-65 0 -104.5 37t-39.5 101q0 96 50.5 147.5t141.5 51.5z"/>
<glyph glyph-name="ampersand" horiz-adv-x="663" unicode="&amp;" d="M256 531q0 -30 40 -90q98 56 98 114q0 27 -16.5 41.5t-41.5 14.5q-32 0 -56 -22t-24 -58zM246 98q61 0 121 38l-124 184q-49 -28 -75 -58t-26 -73q0 -45 28 -68t76 -23zM340 712q71 0 119 -37t48 -106q0 -65 -43.5 -110.5t-119.5 -86.5l109 -161q49 54 102 139l85 -48 q-62 -104 -131 -174l87 -128h-137l-37 54q-96 -66 -206 -66q-88 0 -144.5 43t-56.5 128q0 81 48.5 132.5t133.5 96.5q-29 43 -41.5 73t-12.5 69q0 86 57.5 134t139.5 48z"/>
<glyph glyph-name="quotesingle" horiz-adv-x="268" unicode="&apos;" d="M286 700l-107 -290h-83l48 290h142z"/>
<glyph glyph-name="parenleft" horiz-adv-x="367" unicode="(" d="M288 732h149q-259 -255 -259 -575q0 -122 33 -226t65 -149h-139q-35 55 -65 154.5t-30 221.5q0 102 24.5 197t65.5 167t78 120.5t78 89.5z"/>
<glyph glyph-name="parenright" horiz-adv-x="373" unicode=")" d="M75 -218h-149q32 32 51.5 53t64 81.5t71.5 117.5t49.5 144.5t22.5 178.5q0 123 -33 226.5t-65 148.5h138q35 -53 65.5 -153.5t30.5 -222.5q0 -102 -24.5 -197t-65.5 -167t-78 -120.5t-78 -89.5z"/>
<glyph glyph-name="asterisk" horiz-adv-x="424" unicode="*" d="M263 757l76 -21l-43 -113l112 49l22 -78l-119 -20l97 -73l-58 -58l-77 95l-14 -121l-77 20l43 113l-112 -49l-22 79l119 20l-96 72l57 58l77 -94z"/>
<glyph glyph-name="plus" horiz-adv-x="555" unicode="+" d="M379 574l-33 -190h188l-17 -97h-188l-33 -182h-100l32 182h-180l17 97h181l33 190h100z"/>
<glyph glyph-name="comma" horiz-adv-x="263" unicode="," d="M94 112q36 0 56 -23.5t20 -62.5q0 -56 -41 -100.5t-99 -64.5l-27 36q33 12 60 39.5t31 63.5q-10 -7 -26 -7q-23 0 -36 13.5t-13 37.5q0 32 20.5 50t54.5 18z"/>
<glyph glyph-name="hyphen" horiz-adv-x="500" unicode="-" d="M435 314l-18 -98h-368l18 98h368z"/>
<glyph glyph-name="period" horiz-adv-x="251" unicode="." d="M91 118q31 0 49 -14.5t18 -42.5v-8q-5 -66 -70 -66q-30 0 -48 14.5t-18 43.5v8q2 30 20 47.5t49 17.5z"/>
<glyph glyph-name="slash" horiz-adv-x="501" unicode="/" d="M566 733l-547 -903h-112l546 903h113z"/>
<glyph glyph-name="zero" horiz-adv-x="719" unicode="0" d="M404 600q-96 0 -146.5 -84.5t-54.5 -209.5v-11q0 -97 38 -146t108 -49q65 0 111 43.5t66.5 107.5t22.5 143v14q0 96 -37.5 144t-107.5 48zM411 712q128 0 205 -78t77 -221v-12q-3 -112 -43 -204t-121 -150.5t-190 -58.5q-127 0 -204.5 78.5t-77.5 221.5v12q3 112 43 204 t121 150t190 58z"/>
<glyph glyph-name="one" horiz-adv-x="401" unicode="1" d="M389 701l-123 -701h-137l100 565l-135 -63l-37 96l226 103h106z"/>
<glyph glyph-name="two" horiz-adv-x="614" unicode="2" d="M359 713q108 0 170 -51.5t62 -150.5q0 -79 -46.5 -140t-141.5 -128l-181 -129h305l-20 -114h-501l19 105l303 223q64 49 91 86.5t27 80.5q0 52 -34 79t-88 27q-79 0 -191 -60l-28 106q115 66 254 66z"/>
<glyph glyph-name="three" horiz-adv-x="577" unicode="3" d="M318 713q96 0 161 -46t65 -133q0 -63 -41 -109t-120 -59q66 -19 98.5 -63t32.5 -104q0 -104 -79 -158t-199 -54q-71 0 -138.5 18t-110.5 46l38 99q35 -20 88 -35.5t104 -15.5q69 0 110.5 31t41.5 87q0 101 -144 101h-71l17 100h72q66 0 111.5 23.5t45.5 72.5 q0 42 -33.5 63.5t-84.5 21.5q-68 0 -160 -35l-24 101q42 20 104.5 34t115.5 14z"/>
<glyph glyph-name="four" horiz-adv-x="647" unicode="4" d="M433 526l-262 -270h214zM597 701l-78 -445h85l-17 -103h-86l-27 -153h-133l26 153h-361l15 97l446 451h130z"/>
<glyph glyph-name="five" horiz-adv-x="608" unicode="5" d="M595 700l-19 -110h-319l-39 -162q57 25 126 25q108 0 166 -56t58 -155q0 -122 -83 -188.5t-221 -66.5q-155 0 -265 75l56 92q93 -58 196 -58q77 0 124.5 34.5t47.5 104.5q0 59 -34.5 89.5t-91.5 30.5t-129 -46l-78 52l84 339h421z"/>
<glyph glyph-name="six" horiz-adv-x="657" unicode="6" d="M345 354q-62 0 -102.5 -35t-45.5 -96q0 -3 -0.5 -7t-0.5 -7q0 -55 35 -86.5t92 -31.5q58 0 100.5 33.5t45.5 101.5v11q0 57 -34 87t-90 30zM436 712q118 0 217 -61l-53 -97q-73 48 -172 48q-97 0 -155 -66q-50 -54 -72 -150q70 67 189 67q100 0 162.5 -54t62.5 -152v-10 q-4 -108 -80 -178.5t-211 -70.5q-126 0 -197.5 68t-74.5 186v20q0 103 36 197.5t103 158.5q101 94 245 94z"/>
<glyph glyph-name="seven" horiz-adv-x="572" unicode="7" d="M613 700l-18 -101l-383 -599h-165l387 582h-351l20 118h510z"/>
<glyph glyph-name="eight" horiz-adv-x="656" unicode="8" d="M371 609q-55 0 -91 -28t-36 -74q0 -42 32 -66.5t85 -24.5q56 0 90.5 26t34.5 72q0 43 -31 69t-84 26zM330 315q-66 0 -108.5 -32t-42.5 -87q0 -51 37 -81t102 -30t105.5 32t40.5 91q0 50 -36 78.5t-98 28.5zM376 713q113 0 180 -52t66 -135q-1 -62 -41.5 -104t-110.5 -57 q67 -18 103 -61t36 -103q0 -101 -81 -157.5t-214 -56.5q-129 0 -205 53.5t-75 146.5q2 69 47 121.5t130 68.5q-52 17 -77.5 54.5t-25.5 85.5q0 90 74.5 143t193.5 53z"/>
<glyph glyph-name="nine" horiz-adv-x="651" unicode="9" d="M364 609q-58 0 -100.5 -33t-45.5 -102v-9q0 -59 34.5 -89t89.5 -30q62 0 103 35t45 96v12q0 55 -35 87.5t-91 32.5zM361 712q128 0 198.5 -68t74.5 -198q0 -4 0.5 -11.5t0.5 -11.5q0 -97 -35 -188.5t-99 -152.5q-97 -94 -247 -94q-118 0 -219 61l53 97q73 -48 176 -48 q98 0 155 67q46 49 67 151q-69 -69 -190 -69q-98 0 -161 53.5t-63 152.5v10q4 109 79.5 179t209.5 70z"/>
<glyph glyph-name="colon" horiz-adv-x="267" unicode=":" d="M156 462q67 0 67 -58v-8q-5 -65 -70 -65q-30 0 -48 14.5t-18 42.5v8q5 66 69 66zM94 118q31 0 49 -14.5t18 -42.5v-8q-5 -66 -70 -66q-30 0 -48 14.5t-18 43.5v8q2 30 20 47.5t49 17.5z"/>
<glyph glyph-name="semicolon" horiz-adv-x="281" unicode=";" d="M159 462q31 0 51 -17t20 -45q0 -33 -19.5 -51.5t-52.5 -18.5q-29 0 -48 15.5t-19 43.5v6q2 31 20 49t48 18zM97 112q36 0 56 -24t20 -62q0 -57 -41 -101t-99 -64l-27 35q33 12 60 39.5t31 63.5q-10 -7 -26 -7q-23 0 -36 13.5t-13 37.5q0 32 21 50.5t54 18.5z"/>
<glyph glyph-name="less" horiz-adv-x="582" unicode="&lt;" d="M34 281l19 111l550 183l-21 -117l-404 -125l360 -125l-19 -109z"/>
<glyph glyph-name="equal" horiz-adv-x="547" unicode="=" d="M485 285l-15 -89h-408l16 89h407zM514 470l-15 -88h-407l15 88h407z"/>
<glyph glyph-name="greater" horiz-adv-x="581" unicode="&gt;" d="M575 393l-19 -111l-550 -183l21 117l404 125l-360 125l19 109z"/>
<glyph glyph-name="question" horiz-adv-x="499" unicode="?" d="M206 120q31 0 50.5 -15t19.5 -46v-6q-2 -32 -22 -49.5t-53 -17.5q-30 0 -49.5 15t-19.5 45v6q2 32 22 50t52 18zM302 712q89 0 146.5 -42t57.5 -123q0 -50 -20.5 -87.5t-51 -59.5t-62 -40.5t-58.5 -43t-35 -54.5q-7 -30 -9 -55h-102q2 38 10 73q9 39 34.5 69.5t54 49.5 t56 37t45.5 41.5t18 53.5q0 78 -103 78q-63 0 -158 -45l-34 91q112 57 211 57z"/>
<glyph glyph-name="at" horiz-adv-x="931" unicode="@" d="M469 407q-43 0 -70 -25.5t-35 -54.5t-9 -62q0 -50 24.5 -77t68.5 -27q42 0 68.5 26t34 55.5t7.5 62.5q0 102 -89 102zM509 693q181 0 288.5 -90t107.5 -252q0 -122 -60.5 -196t-161.5 -74q-99 0 -113 74q-44 -72 -146 -72q-80 0 -124.5 50t-43.5 130q0 91 51 155.5 t145 64.5q89 0 128 -60l14 54h95l-46 -259q-2 -12 -2 -17q0 -49 54 -49q60 0 92.5 58t32.5 141q0 139 -87 205.5t-227 66.5q-177 0 -277.5 -100t-100.5 -263q0 -154 87.5 -229.5t234.5 -75.5q113 0 229 43l9 -68q-129 -44 -236 -44q-200 0 -305 100t-105 272 q0 192 126.5 313.5t340.5 121.5z"/>
<glyph glyph-name="A" horiz-adv-x="726" unicode="A" d="M422 581h-2l-168 -310h228zM530 701l142 -701h-143l-30 161h-302l-85 -161h-150l379 701h189z"/>
<glyph glyph-name="B" horiz-adv-x="708" unicode="B" d="M241 407h188q45 0 74.5 28t29.5 69q0 36 -23.5 61t-63.5 25h-173zM188 110h216q46 0 77 29.5t31 73.5q0 36 -22.5 63.5t-64.5 27.5h-202zM152 700h331q85 0 136.5 -48.5t51.5 -125.5q0 -41 -15.5 -73.5t-39.5 -51.5t-47 -29t-44 -13q52 -10 91 -49.5t39 -109.5 q0 -93 -68.5 -146.5t-178.5 -53.5h-379z"/>
<glyph glyph-name="C" horiz-adv-x="693" unicode="C" d="M465 712q134 0 241 -71l-50 -99q-83 58 -187 58q-126 0 -197.5 -77.5t-71.5 -190.5q0 -110 62 -171t163 -61q85 0 181 44l28 -101q-102 -55 -230 -55q-98 0 -175.5 34.5t-127 111.5t-49.5 187q0 177 120 284t293 107z"/>
<glyph glyph-name="D" horiz-adv-x="757" unicode="D" d="M376 590h-102l-84 -480h138q112 0 180.5 77.5t68.5 194.5q0 100 -52 154t-149 54zM154 700h206q170 0 267.5 -79.5t97.5 -236.5q0 -168 -108 -276t-296 -108h-291z"/>
<glyph glyph-name="E" horiz-adv-x="648" unicode="E" d="M663 700l-19 -110h-371l-34 -193h320l-19 -110h-319l-33 -177h379l-19 -110h-519l123 700h511z"/>
<glyph glyph-name="F" horiz-adv-x="621" unicode="F" d="M663 700l-19 -110h-371l-36 -203h321l-20 -110h-320l-49 -277h-140l123 700h511z"/>
<glyph glyph-name="G" horiz-adv-x="762" unicode="G" d="M471 712q79 0 139 -15t122 -50l-59 -100q-95 53 -199 53q-137 0 -205 -77t-68 -205q0 -98 58 -158t167 -60q80 0 144 34l21 134h-174l17 101h287l-51 -299q-124 -82 -269 -82q-156 0 -252.5 83t-95.5 242q0 182 117.5 290.5t300.5 108.5z"/>
<glyph glyph-name="H" horiz-adv-x="776" unicode="H" d="M169 0h-140l123 700h141l-53 -300h331l53 300h140l-123 -700h-140l51 290h-332z"/>
<glyph glyph-name="I" horiz-adv-x="306" unicode="I" d="M294 700l-125 -700h-140l125 700h140z"/>
<glyph glyph-name="J" horiz-adv-x="580" unicode="J" d="M570 700l-84 -477q-42 -235 -258 -235q-160 0 -217 131l89 69q44 -88 124 -88q100 0 123 126l83 474h140z"/>
<glyph glyph-name="K" horiz-adv-x="711" unicode="K" d="M753 700l-294 -275l181 -425h-165l-131 318l-140 -131l-34 -187h-140l123 700h140l-58 -334l353 334h165z"/>
<glyph glyph-name="L" horiz-adv-x="583" unicode="L" d="M293 700l-104 -588h344l-20 -112h-484l124 700h140z"/>
<glyph glyph-name="M" horiz-adv-x="949" unicode="M" d="M937 700l-124 -700h-140l62 352l42 188h-2l-280 -477h-126l-112 477h-2l-23 -188l-63 -352h-140l124 700h196l110 -489l272 489h206z"/>
<glyph glyph-name="N" horiz-adv-x="765" unicode="N" d="M753 700l-124 -700h-146l-228 484l-86 -484h-140l124 700h146l230 -474l84 474h140z"/>
<glyph glyph-name="O" horiz-adv-x="815" unicode="O" d="M447 600q-52 0 -94.5 -18.5t-69.5 -48.5t-45.5 -68.5t-26 -76.5t-8.5 -76v-5q0 -98 51.5 -152.5t138.5 -54.5q64 0 113.5 28t76.5 72.5t40 92.5t14 96v5q0 98 -51.5 152t-138.5 54zM450 712q155 0 245 -86.5t90 -233.5q0 -53 -11.5 -105.5t-40.5 -107.5t-72.5 -96.5 t-113.5 -68t-157 -26.5q-155 0 -245 86.5t-90 233.5q0 53 11.5 105.5t40.5 107.5t72.5 96.5t113.5 68t157 26.5z"/>
<glyph glyph-name="P" horiz-adv-x="698" unicode="P" d="M430 590h-156l-44 -247h186q66 0 101 38.5t35 91.5q0 46 -30 81.5t-92 35.5zM169 0h-140l124 700h311q116 0 176 -64t60 -157q0 -45 -15.5 -87.5t-46 -78.5t-83 -58t-120.5 -22h-225z"/>
<glyph glyph-name="Q" horiz-adv-x="827" unicode="Q" d="M446 600q-52 0 -94.5 -18.5t-69 -48t-45 -68.5t-26 -77t-8.5 -76v-5q0 -98 51.5 -152.5t138.5 -54.5q64 0 113.5 28t76.5 72.5t40 92.5t14 96v5q0 98 -51.5 152t-139.5 54zM450 712q155 0 245 -86.5t90 -233.5q0 -73 -21 -143t-77.5 -137.5t-141.5 -98.5q99 -34 184 -47 l-36 -110q-146 32 -309 132q-152 1 -240.5 88t-88.5 232q0 53 11.5 105.5t40.5 107.5t72.5 96.5t113.5 68t157 26.5z"/>
<glyph glyph-name="R" horiz-adv-x="727" unicode="R" d="M249 378h201q56 0 90 33t34 79q0 43 -25.5 71.5t-73.5 28.5h-188zM721 494q0 -76 -49 -133.5t-132 -76.5l89 -284h-143l-74 268h-22h-160l-48 -268h-140l124 700h341q101 0 157.5 -59.5t56.5 -146.5z"/>
<glyph glyph-name="S" horiz-adv-x="616" unicode="S" d="M362 712q119 0 257 -64l-46 -110q-120 62 -210 62q-126 0 -126 -84q0 -37 29 -57t101 -46q35 -13 51.5 -19.5t43.5 -19t40 -22t30.5 -25t25 -32t13.5 -39t6 -49.5q0 -108 -76.5 -163.5t-199.5 -55.5q-84 0 -165 24.5t-135 60.5l49 111q138 -82 253 -82h5q51 0 86 20 t35 61q0 36 -28.5 54.5t-103.5 44.5q-19 6 -29 10q-45 16 -70 28.5t-54 35t-42 55.5t-13 79q0 112 76 167t197 55z"/>
<glyph glyph-name="T" horiz-adv-x="621" unicode="T" d="M684 700l-20 -110h-227l-105 -590h-140l105 590h-228l20 110h595z"/>
<glyph glyph-name="U" horiz-adv-x="742" unicode="U" d="M736 700l-79 -451q-22 -120 -99 -190.5t-214 -70.5q-73 0 -128.5 20t-85.5 54t-44.5 71.5t-14.5 77.5q0 36 2 51l77 438h140l-76 -437q-3 -17 -3 -34q0 -57 34.5 -93t104.5 -36q72 0 112 37.5t51 99.5l83 463h140z"/>
<glyph glyph-name="V" horiz-adv-x="687" unicode="V" d="M747 700l-371 -700h-183l-119 700h146l91 -551l279 551h157z"/>
<glyph glyph-name="W" horiz-adv-x="1000" unicode="W" d="M1058 700l-316 -700h-175l-31 498l-208 -498h-174l-71 700h147l43 -534l217 531h158l32 -520l219 523h159z"/>
<glyph glyph-name="X" horiz-adv-x="685" unicode="X" d="M755 700l-315 -342l191 -358h-162l-127 245l-220 -245h-177l321 343l-198 357h163l134 -248l226 248h164z"/>
<glyph glyph-name="Y" horiz-adv-x="669" unicode="Y" d="M356 0h-140l48 272l-177 428h140l122 -315l234 315h150l-329 -429z"/>
<glyph glyph-name="Z" horiz-adv-x="636" unicode="Z" d="M664 700l-15 -90l-456 -504l184 4h192l-20 -110h-566l16 91l459 502l-182 -3h-173l20 110h541z"/>
<glyph glyph-name="bracketleft" horiz-adv-x="321" unicode="[" d="M352 712l-18 -101h-92l-123 -691h93l-17 -101h-200l157 893h200z"/>
<glyph glyph-name="backslash" horiz-adv-x="492" unicode="\" d="M107 733h101l194 -770h-101z"/>
<glyph glyph-name="bracketright" horiz-adv-x="321" unicode="]" d="M319 712l-157 -893h-200l18 100h92l123 692h-93l17 101h200z"/>
<glyph glyph-name="underscore" horiz-adv-x="597" unicode="_" d="M470 -56l-16 -91h-466l17 91h465z"/>
<glyph glyph-name="grave" horiz-adv-x="313" unicode="`" d="M140 718h120l49 -148h-92z"/>
<glyph glyph-name="a" horiz-adv-x="642" unicode="a" d="M326 429q-42 0 -74 -19.5t-49.5 -50.5t-25.5 -63t-8 -64q0 -65 33.5 -102.5t93.5 -37.5q43 0 75 20t48.5 52t24.5 64t8 63q0 64 -33 101t-93 37zM304 529q62 0 108 -24.5t67 -65.5l19 81h125l-69 -396l-15 -124h-123l8 70q-61 -79 -170 -79q-107 0 -162.5 65t-56.5 173 q0 124 71 212t198 88z"/>
<glyph glyph-name="b" horiz-adv-x="639" unicode="b" d="M311 92q55 0 92.5 34.5t50.5 76.5t13 85q0 65 -33.5 102.5t-93.5 37.5q-42 0 -74 -20t-48.5 -52t-24 -63.5t-7.5 -61.5q0 -64 33 -101.5t92 -37.5zM383 529q107 0 162.5 -64.5t55.5 -173.5q0 -80 -28.5 -146t-90.5 -109.5t-149 -44.5h-3q-126 0 -174 97l-20 -88h-123 l128 732h132l-48 -271q59 68 158 68z"/>
<glyph glyph-name="c" horiz-adv-x="546" unicode="c" d="M341 529q99 0 182 -47l-46 -91q-69 37 -136 37q-81 0 -127.5 -50t-46.5 -131q0 -76 42.5 -115.5t114.5 -39.5q62 0 126 31l25 -94q-89 -38 -175 -38q-113 0 -190 60t-77 184q0 133 87.5 213.5t220.5 80.5z"/>
<glyph glyph-name="d" horiz-adv-x="648" unicode="d" d="M325 429q-42 0 -74 -19.5t-49 -50.5t-25 -63.5t-8 -63.5q0 -65 33.5 -102.5t93.5 -37.5q43 0 75 20.5t48.5 52.5t24 63.5t7.5 62.5q0 64 -33 101t-93 37zM660 732l-106 -608l-15 -124h-114l8 82q-60 -90 -180 -90q-107 0 -162 63t-56 172q0 126 70 214t198 89 q127 0 173 -91l53 293h131z"/>
<glyph glyph-name="e" horiz-adv-x="588" unicode="e" d="M345 429q-61 0 -105.5 -36.5t-62.5 -93.5q41 -7 98 -7q153 0 154 76q0 61 -84 61zM355 529q91 0 148 -37t57 -118q-1 -168 -269 -168q-73 0 -123 9q4 -62 43.5 -94.5t105.5 -32.5q88 0 166 41l26 -89q-84 -49 -217 -49q-120 0 -190 60.5t-69 173.5q0 127 88.5 215.5 t233.5 88.5z"/>
<glyph glyph-name="f" horiz-adv-x="386" unicode="f" d="M28 -110l94 537h-85l16 93h86l10 56q14 80 53 122.5t134 42.5q65 0 121 -15l-28 -94q-32 10 -73 10q-65 0 -77 -67l-10 -55h137l-16 -93h-137l-94 -537h-131z"/>
<glyph glyph-name="g" horiz-adv-x="628" unicode="g" d="M322 431q-69 0 -108 -49t-41 -120v-9q0 -63 31.5 -99t90.5 -36q71 0 109.5 49t40.5 122v8q0 64 -32 99t-91 35zM300 529q66 0 111 -25t65 -65l19 81h122l-82 -465q-20 -113 -88 -170t-203 -57q-137 0 -241 63l39 94q37 -24 91.5 -40.5t107.5 -16.5q137 0 159 122l5 30 q-51 -59 -154 -59q-95 0 -154 55.5t-59 168.5v10q4 128 76.5 201t185.5 73z"/>
<glyph glyph-name="h" horiz-adv-x="606" unicode="h" d="M273 732l-48 -270q61 67 165 67q89 0 129 -47.5t40 -123.5q0 -24 -5 -54l-53 -304h-131l52 303q4 21 4 34q0 91 -90 91q-56 0 -93.5 -39.5t-50.5 -115.5l-48 -273h-131l129 732h131z"/>
<glyph glyph-name="i" horiz-adv-x="282" unicode="i" d="M258 520l-91 -520h-131l74 427h-64l17 93h195zM196 717q73 0 73 -56q0 -66 -73 -66q-70 0 -70 56q0 32 18.5 49t51.5 17z"/>
<glyph glyph-name="j" horiz-adv-x="298" unicode="j" d="M214 716q71 0 71 -56v-6q-3 -62 -73 -62q-69 0 -69 56v6q2 29 20.5 45.5t50.5 16.5zM276 520l-97 -551q-15 -87 -56.5 -117t-113.5 -30h-70l19 106h30q31 0 43.5 12t18.5 46l78 441h-73l17 93h204z"/>
<glyph glyph-name="k" horiz-adv-x="560" unicode="k" d="M275 732l-79 -437l247 225h151l-222 -198l135 -322h-138l-95 234l-104 -93l-25 -141h-131l129 732h132z"/>
<glyph glyph-name="l" horiz-adv-x="295" unicode="l" d="M271 732l-105 -602q-1 -4 -1 -10q0 -27 36 -27q21 0 43 2l-13 -96q-56 -8 -93 -8q-56 0 -82.5 20.5t-26.5 66.5q0 21 4 42l107 612h131z"/>
<glyph glyph-name="m" horiz-adv-x="900" unicode="m" d="M365 529q106 0 142 -96q63 96 184 96q84 0 123.5 -44.5t39.5 -118.5q0 -24 -5 -54l-54 -312h-131l54 311q3 17 3 33q0 84 -81 84q-50 0 -79 -38.5t-41 -99.5q-2 -10 -2 -14l-49 -276h-131l57 321q3 15 3 29q0 34 -20 56t-62 22q-51 0 -80 -36.5t-40 -91.5l-2 -14v-1 l-51 -285h-131l70 399l12 121h120l-7 -67q29 36 71 56t87 20z"/>
<glyph glyph-name="n" horiz-adv-x="603" unicode="n" d="M392 529q85 0 125.5 -43.5t40.5 -116.5q0 -29 -6 -59l-54 -310h-131l54 309q3 17 3 33q0 86 -86 86q-60 0 -98 -42t-50 -113l-48 -273h-131l68 390l15 130h119l-8 -80q70 89 187 89z"/>
<glyph glyph-name="o" horiz-adv-x="620" unicode="o" d="M323 429q-52 0 -88 -31.5t-51 -75.5t-15 -95q0 -65 33 -100t90 -35q76 0 115 60.5t39 140.5q0 65 -33 100.5t-90 35.5zM335 529q110 0 177.5 -63t67.5 -175q-1 -132 -80 -216t-220 -84q-110 0 -177.5 63t-67.5 175q0 132 79.5 216t220.5 84z"/>
<glyph glyph-name="p" horiz-adv-x="639" unicode="p" d="M341 427q-43 0 -75 -20t-48.5 -52t-24.5 -64t-8 -62q0 -64 33 -101t93 -37q55 0 92.5 34.5t51 76.5t13.5 86q0 65 -34 102t-93 37zM383 528q107 0 163 -64t56 -172q0 -125 -70 -212.5t-198 -89.5q-129 0 -175 86l-43 -246h-132l99 560l14 130h115l-8 -71q68 79 179 79z "/>
<glyph glyph-name="q" horiz-adv-x="634" unicode="q" d="M293 92q44 0 76.5 20t49.5 52t24.5 64t7.5 63q0 64 -33 100.5t-91 36.5q-42 0 -74 -18.5t-49.5 -49t-26 -63.5t-8.5 -68q0 -67 33 -102t91 -35zM623 520l-122 -691h-131l40 230q-56 -68 -159 -68q-105 0 -160.5 64.5t-55.5 169.5q0 123 71.5 213.5t196.5 90.5 q64 0 110 -25t67 -69l20 85h123z"/>
<glyph glyph-name="r" horiz-adv-x="381" unicode="r" d="M386 520l-29 -129q-20 2 -27 2q-63 0 -96.5 -43.5t-49.5 -130.5l-38 -219h-133l71 403l14 117h119l-10 -96q48 101 138 101q22 0 41 -5z"/>
<glyph glyph-name="s" horiz-adv-x="500" unicode="s" d="M276 529q24 0 50 -3.5t45.5 -8t40 -11.5t32 -11.5t24.5 -10.5l12 -5l-41 -86q-87 40 -153 40q-90 0 -90 -53q0 -16 11.5 -27.5t26.5 -17.5t44 -15q5 -1 7 -2q32 -11 49 -17t41.5 -19.5t37 -28t22 -38.5t9.5 -54q0 -85 -61.5 -127.5t-157.5 -42.5q-127 0 -231 66l42 86 q98 -56 181 -56q94 2 94 56q0 24 -21 37.5t-75 28.5q-23 7 -28.5 8.5t-27.5 10t-30.5 14.5t-24.5 18.5t-23 25.5t-13 33t-6 43q0 83 61 125t153 42z"/>
<glyph glyph-name="t" horiz-adv-x="400" unicode="t" d="M286 671l-26 -151h143l-17 -93h-143l-48 -267q-3 -16 -3 -31q0 -43 55 -43q30 0 78 14l-9 -88q-45 -20 -126 -20q-73 0 -102.5 28t-29.5 78q0 18 6 58l48 271h-71l16 93h72l46 151h111z"/>
<glyph glyph-name="u" horiz-adv-x="615" unicode="u" d="M205 -9q-86 0 -126.5 43.5t-40.5 116.5q0 29 6 59l54 310h132l-54 -309q-3 -17 -3 -33q0 -86 87 -86q59 0 97 42t50 113l48 273h131l-68 -390l-14 -130h-119l7 75q-69 -84 -187 -84z"/>
<glyph glyph-name="v" horiz-adv-x="550" unicode="v" d="M573 520l-284 -520h-154l-84 520h133l53 -378l188 378h148z"/>
<glyph glyph-name="w" horiz-adv-x="847" unicode="w" d="M869 520l-238 -520h-152l-46 341l-166 -341h-152l-54 520h128l32 -379l183 379h117l48 -372l158 371z"/>
<glyph glyph-name="x" horiz-adv-x="554" unicode="x" d="M585 520l-229 -255l138 -265h-140l-91 176l-151 -176h-143l227 258l-139 262h142l91 -174l155 174h140z"/>
<glyph glyph-name="y" horiz-adv-x="582" unicode="y" d="M598 520l-294 -559q-42 -78 -89.5 -107t-116.5 -29q-65 0 -127 19l23 97q48 -14 80 -14q63 0 89 51l11 21l-120 521h135l77 -393l188 393h144z"/>
<glyph glyph-name="z" horiz-adv-x="532" unicode="z" d="M531 520l-18 -103l-345 -328l184 4h114l-18 -93h-463l18 101l348 330l-180 -4h-102l18 93h444z"/>
<glyph glyph-name="braceleft" horiz-adv-x="341" unicode="{" d="M373 712l-17 -97h-50q-52 0 -63 -61l-38 -217q-10 -59 -75 -68q52 -4 52 -54q0 -6 -2 -18l-38 -214q-2 -14 -2 -20q0 -40 42 -40h52l-17 -96h-58q-71 0 -99.5 27t-28.5 75q0 22 5 52l36 207q1 4 1 12q0 30 -32 30h-17l13 79h15q40 0 48 40l39 220q13 71 44.5 107 t107.5 36h82z"/>
<glyph glyph-name="bar" horiz-adv-x="328" unicode="|" d="M219 789v-948h-106v948h106z"/>
<glyph glyph-name="braceright" horiz-adv-x="341" unicode="}" d="M115 712h58q71 0 99.5 -27.5t28.5 -76.5q0 -22 -5 -52l-36 -205q-1 -4 -1 -12q0 -31 33 -31h17l-14 -80h-15q-42 0 -48 -38l-39 -221q-13 -71 -44 -106.5t-108 -35.5h-82l17 96h51q51 0 62 61l38 217q10 59 75 68q-52 6 -52 54q0 6 2 18l38 213q2 14 2 21q0 40 -42 40 h-52z"/>
<glyph glyph-name="exclamdown" horiz-adv-x="277" unicode="¡" d="M162 531q32 0 52 -15t20 -45v-6q-2 -32 -22 -50t-52 -18q-31 0 -50.5 15t-19.5 45v8q2 30 21.5 48t50.5 18zM196 300l-65 -484h-150l107 484h108z"/>
<glyph glyph-name="cent" horiz-adv-x="537" unicode="¢" d="M415 715l-19 -108q76 -8 135 -45l-44 -86q-52 33 -122 33q-85 0 -135.5 -54t-50.5 -131q0 -69 40.5 -110.5t110.5 -41.5q65 0 125 34l32 -85q-77 -49 -168 -49h-17l-19 -106h-73l21 116q-83 23 -134.5 81.5t-51.5 156.5q0 122 78 199t201 88l18 108h73z"/>
<glyph glyph-name="sterling" horiz-adv-x="599" unicode="£" d="M495 369l-13 -71h-207q2 -22 2 -34q0 -61 -24.5 -101t-54.5 -61h328l-17 -102h-507l16 95q5 0 13 1.5t28.5 11.5t36.5 25.5t29 47.5t13 74q0 13 -4 43h-77l13 71h53q-7 45 -7 88q0 129 75.5 192t193.5 63q123 0 219 -64l-56 -92l-14 8q-15 8 -21 11t-22.5 10t-29.5 10 t-32.5 6t-39.5 3q-137 0 -137 -146q0 -46 10 -89h233z"/>
<glyph glyph-name="yen" horiz-adv-x="709" unicode="¥" d="M744 700l-325 -419l-5 -28h111l-11 -58h-110l-7 -46h109l-10 -58h-110l-16 -91h-141l16 91h-110l10 58h111l7 46h-110l11 58h109l6 28l-177 419h140l122 -299l223 299h157z"/>
<glyph glyph-name="section" horiz-adv-x="607" unicode="§" d="M314 336q-64 18 -94 30q-51 -42 -51 -87q0 -29 24.5 -46.5t71.5 -32.5q110 -34 120 -38q51 42 51 87q0 33 -30.5 51t-91.5 36zM355 701q131 0 241 -56l-43 -101q-88 44 -179 44q-61 0 -91 -22t-30 -53q0 -8 2 -14.5t7 -12t10 -10t14.5 -9t17 -7.5t20.5 -7t22 -6.5 t24.5 -7t25.5 -7.5q36 -11 60 -20.5t50 -27t39.5 -44t13.5 -62.5q0 -49 -31 -92t-70 -67q43 -40 43 -105q0 -85 -66.5 -135.5t-183.5 -50.5q-134 0 -242 56l44 100q107 -43 178 -43q62 0 91.5 22t29.5 52q0 8 -2 14.5t-7 12t-10 10t-14.5 9t-16.5 7.5t-20.5 7t-22 6.5 t-24.5 7t-26 7.5q-37 11 -60 21t-50 27.5t-40 44t-13 61.5q0 49 31 92t70 67q-43 40 -43 106q0 85 67 135.5t184 50.5z"/>
<glyph glyph-name="dieresis" horiz-adv-x="444" unicode="¨" d="M402 700q33 0 50.5 -16t17.5 -43q0 -30 -18 -47t-50 -17q-30 0 -47.5 15.5t-17.5 42.5q0 30 17.5 47.5t47.5 17.5zM170 700q33 0 50.5 -16t17.5 -43q0 -31 -18 -47.5t-50 -16.5q-30 0 -47.5 15.5t-17.5 42.5q0 30 17.5 47.5t47.5 17.5z"/>
<glyph glyph-name="copyright" horiz-adv-x="814" unicode="©" d="M421 652q-127 0 -213.5 -82t-86.5 -219t86 -219t214 -82t213.5 82t85.5 219t-86 219t-213 82zM438 542q65 0 115 -25l-20 -66q-45 17 -80 17q-61 0 -89.5 -32.5t-28.5 -83.5t29 -84t91 -33q41 0 84 17l16 -67q-54 -24 -118 -24q-90 0 -145.5 50.5t-55.5 140.5t56 140 t146 50zM421 702q149 0 251 -98.5t102 -252.5q0 -153 -102.5 -252t-250.5 -99q-149 0 -251.5 99t-102.5 252q0 154 102 252.5t252 98.5z"/>
<glyph glyph-name="ordfeminine" horiz-adv-x="490" unicode="ª" d="M288 518q-99 0 -99 -67q0 -21 15 -33.5t41 -12.5q33 0 60 20t33 57l5 31q-20 5 -55 5zM429 281l-14 -79h-352l14 79h352zM333 725q120 0 120 -93q0 -14 -3 -32l-27 -160q-4 -17 12 -17q3 0 11 0.5t9 0.5l-12 -70q-27 -9 -60 -9q-23 0 -39 10t-15 33q-49 -44 -114 -44 q-51 0 -80.5 23t-29.5 68q0 68 47.5 102t129.5 34q29 0 71 -5l3 20q2 14 2 18q0 24 -15 34t-47 10q-51 0 -115 -19l-3 75q76 21 155 21z"/>
<glyph glyph-name="guillemotleft" horiz-adv-x="646" unicode="«" d="M289 513l64 -69l-184 -194l110 -186l-79 -57l-171 239l5 28zM566 513l64 -69l-184 -194l110 -186l-79 -57l-171 239l5 28z"/>
<glyph glyph-name="registered" horiz-adv-x="590" unicode="®" d="M352 590h-54v-70h56q18 0 28 10t10 24q0 36 -40 36zM249 632h112q35 0 56.5 -22t21.5 -55q0 -53 -43 -70l40 -90h-53l-32 82h-53v-82h-49v237zM340 699q-86 0 -136.5 -53.5t-50.5 -136.5t50.5 -136.5t136.5 -53.5t136 53.5t50 136.5t-50 136.5t-136 53.5zM339 735 q101 0 164.5 -64t63.5 -162t-63.5 -162t-164.5 -64q-99 0 -163 64t-64 162t64 162t163 64z"/>
<glyph glyph-name="macron" horiz-adv-x="347" unicode="¯" d="M402 672l-13 -75h-312l13 75h312z"/>
<glyph glyph-name="degree" horiz-adv-x="332" unicode="°" d="M227 656q-35 0 -55.5 -22t-20.5 -62q0 -33 20 -47t47 -14q35 0 55.5 21t20.5 61q0 34 -19.5 48.5t-47.5 14.5zM231 710q54 0 91 -27.5t37 -85.5q0 -68 -42 -104t-102 -36q-53 0 -91 28t-38 86q0 69 42.5 104t102.5 35z"/>
<glyph glyph-name="plusminus" horiz-adv-x="560" unicode="±" d="M380 568l-28 -160h188l-18 -97h-188l-27 -153h-100l26 153h-180l18 97h181l28 160h100zM488 116l-15 -85h-470l16 85h469z"/>
<glyph glyph-name="acute" horiz-adv-x="330" unicode="´" d="M375 726l-126 -148h-98l100 148h124z"/>
<glyph glyph-name="mu" horiz-adv-x="633" unicode="µ" d="M612 520l-74 -417l-11 -103h-112l2 63q-47 -75 -133 -75q-41 0 -74 16.5t-46 43.5l-40 -218h-131l123 690h131l-51 -289q-5 -35 -5 -44q0 -43 28 -69.5t78 -26.5q107 0 130 123l54 306h131z"/>
<glyph glyph-name="paragraph" horiz-adv-x="639" unicode="¶" d="M384 -86l121 688h-101l-121 -688h-98l61 346h-20q-78 0 -118.5 48t-40.5 127q0 69 23.5 122.5t62 83.5t81.5 44.5t88 14.5h296l-139 -786h-95z"/>
<glyph glyph-name="periodcentered" horiz-adv-x="296" unicode="·" d="M161 388q35 0 57.5 -19.5t22.5 -54.5q0 -2 -0.5 -6t-0.5 -6q-3 -41 -28 -62.5t-67 -21.5q-36 0 -58 19t-22 55v10q4 41 29 63.5t67 22.5z"/>
<glyph glyph-name="cedilla" horiz-adv-x="266" unicode="¸" d="M127 14l-34 -69q27 0 49 -14t22 -51q0 -46 -36.5 -66.5t-87.5 -20.5q-54 0 -89 15l14 50q29 -13 68 -13q51 0 51 30q0 24 -38 24q-8 0 -22 -2l-14 24l46 93h71z"/>
<glyph glyph-name="ordmasculine" horiz-adv-x="527" unicode="º" d="M330 641q-102 0 -108 -120v-8q0 -38 21.5 -60t62.5 -22q47 0 76 30t32 90v8q0 39 -21.5 60.5t-62.5 21.5zM465 281l-14 -79h-384l14 79h384zM342 725q80 0 127 -41.5t47 -119.5v-7q-3 -95 -61.5 -152t-158.5 -57q-80 0 -127 41t-47 117v9q3 95 61.5 152.5t158.5 57.5z "/>
<glyph glyph-name="guillemotright" horiz-adv-x="661" unicode="»" d="M15 76l184 194l-110 186l79 57l171 -239l-5 -28l-256 -239zM291 76l184 194l-110 186l79 57l171 -239l-5 -28l-256 -239z"/>
<glyph glyph-name="questiondown" horiz-adv-x="491" unicode="¿" d="M293 396q-30 0 -49.5 15.5t-19.5 46.5v6q2 31 22 48.5t52 17.5q30 0 50 -15t20 -45v-6q-2 -33 -22 -50.5t-53 -17.5zM198 -196q-89 0 -146.5 42t-57.5 123q0 50 20.5 87.5t51 59.5t62 40.5t58.5 43t35 54.5q4 17 9 55h102q-2 -38 -10 -73q-9 -39 -34.5 -69.5t-54 -49.5 t-56 -37t-45.5 -41.5t-18 -53.5q0 -40 27.5 -59t74.5 -19q62 0 159 45l34 -91q-114 -57 -211 -57z"/>
<glyph glyph-name="Agrave" horiz-adv-x="726" unicode="À" d="M472 866l46 -116h-91l-73 116h118zM422 581h-2l-168 -310h228zM530 701l142 -701h-143l-30 161h-302l-85 -161h-150l379 701h189z"/>
<glyph glyph-name="Aacute" horiz-adv-x="725" unicode="Á" d="M569 866l-111 -116h-97l86 116h122zM422 581h-2l-168 -310h228zM530 701l142 -701h-143l-30 161h-302l-85 -161h-150l379 701h189z"/>
<glyph glyph-name="Acircumflex" horiz-adv-x="726" unicode="Â" d="M272 750l138 116h118l90 -116h-97l-56 73l-87 -73h-106zM422 581h-2l-168 -310h228zM530 701l142 -701h-143l-30 161h-302l-85 -161h-150l379 701h189z"/>
<glyph glyph-name="Atilde" horiz-adv-x="725" unicode="Ã" d="M571 873l40 -20q-46 -96 -121 -96q-28 0 -64 21q-41 24 -61 24q-31 0 -54 -38l-40 20q45 95 120 95q27 0 66 -22q40 -23 59 -23q15 0 26.5 7.5t15 12t13.5 19.5zM422 581h-2l-168 -310h228zM530 701l142 -701h-143l-30 161h-302l-85 -161h-150l379 701h189z"/>
<glyph glyph-name="Adieresis" horiz-adv-x="726" unicode="Ä" d="M563 874q32 0 49 -16t15 -43q-2 -59 -64 -59q-29 0 -45.5 15t-16.5 40q0 29 16 46t46 17zM331 874q31 0 48 -15.5t17 -41.5q0 -29 -17 -45t-48 -16q-29 0 -45.5 15t-16.5 40q0 29 16 46t46 17zM422 581h-2l-168 -310h228zM530 701l142 -701h-143l-30 161h-302l-85 -161 h-150l379 701h189z"/>
<glyph glyph-name="Aring" horiz-adv-x="726" unicode="Å" d="M462 904q-45 0 -50 -57v-8q0 -44 47 -44q20 0 34.5 14.5t16.5 43.5v6q0 45 -48 45zM422 581h-2l-168 -310h228zM463 956q48 0 80.5 -25t32.5 -73q0 -55 -34 -84.5t-84 -29.5q-47 0 -79.5 24.5t-32.5 72.5v7q3 53 35.5 80.5t81.5 27.5zM530 701l142 -701h-143l-30 161 h-302l-85 -161h-150l379 701h189z"/>
<glyph glyph-name="AE" horiz-adv-x="1044" unicode="Æ" d="M502 590l-203 -303h178l53 303h-28zM108 0h-159l488 700h624l-20 -110h-370l-35 -194h321l-20 -110h-320l-31 -176h379l-20 -110h-519l32 177h-232z"/>
<glyph glyph-name="Ccedilla" horiz-adv-x="693" unicode="Ç" d="M465 712q134 0 241 -71l-50 -99q-83 58 -187 58q-126 0 -197.5 -77.5t-71.5 -190.5q0 -110 62 -171t163 -61q85 0 181 44l28 -101q-102 -55 -230 -55q-5 0 -15 0.5t-15 0.5l-22 -44q27 0 49 -14t22 -51q0 -46 -36.5 -66.5t-87.5 -20.5q-54 0 -89 15l14 50q29 -13 68 -13 q51 0 51 30q0 24 -38 24q-8 0 -22 -2l-14 24l38 77q-115 24 -185 106t-70 217q0 177 120 284t293 107z"/>
<glyph glyph-name="Egrave" horiz-adv-x="648" unicode="È" d="M432 866l46 -116h-91l-73 116h118zM663 700l-19 -110h-371l-34 -193h320l-19 -110h-319l-33 -177h379l-19 -110h-519l123 700h511z"/>
<glyph glyph-name="Eacute" horiz-adv-x="648" unicode="É" d="M559 866l-111 -116h-97l86 116h122zM663 700l-19 -110h-371l-34 -193h320l-19 -110h-319l-33 -177h379l-19 -110h-519l123 700h511z"/>
<glyph glyph-name="Ecircumflex" horiz-adv-x="647" unicode="Ê" d="M248 750l138 116h118l90 -116h-97l-56 73l-87 -73h-106zM663 700l-19 -110h-371l-34 -193h320l-19 -110h-319l-33 -177h379l-19 -110h-519l123 700h511z"/>
<glyph glyph-name="Edieresis" horiz-adv-x="648" unicode="Ë" d="M539 874q32 0 49 -16t15 -43q-2 -59 -64 -59q-29 0 -45.5 15t-16.5 40q0 29 16 46t46 17zM307 874q31 0 48 -15.5t17 -41.5q0 -29 -17 -45t-48 -16q-29 0 -45.5 15t-16.5 40q0 29 16 46t46 17zM663 700l-19 -110h-371l-34 -193h320l-19 -110h-319l-33 -177h379l-19 -110 h-519l123 700h511z"/>
<glyph glyph-name="Igrave" horiz-adv-x="306" unicode="Ì" d="M247 866l46 -116h-91l-73 116h118zM294 700l-125 -700h-140l125 700h140z"/>
<glyph glyph-name="Iacute" horiz-adv-x="306" unicode="Í" d="M374 866l-111 -116h-97l86 116h122zM294 700l-125 -700h-140l125 700h140z"/>
<glyph glyph-name="Icircumflex" horiz-adv-x="306" unicode="Î" d="M47 750l138 116h118l90 -116h-97l-56 73l-87 -73h-106zM294 700l-125 -700h-140l125 700h140z"/>
<glyph glyph-name="Idieresis" horiz-adv-x="306" unicode="Ï" d="M354 874q32 0 49 -16t15 -43q-2 -59 -64 -59q-29 0 -45.5 15t-16.5 40q0 29 16 46t46 17zM122 874q31 0 48 -15.5t17 -41.5q0 -29 -17 -45t-48 -16q-29 0 -45.5 15t-16.5 40q0 29 16 46t46 17zM294 700l-125 -700h-140l125 700h140z"/>
<glyph glyph-name="Eth" horiz-adv-x="757" unicode="Ð" d="M376 590h-102l-37 -208h127l-13 -75h-127l-34 -197h138q112 0 180.5 77.5t68.5 194.5q0 100 -52 154t-149 54zM154 700h206q170 0 267.5 -79.5t97.5 -236.5q0 -168 -108 -276t-296 -108h-291l54 307h-78l13 75h79z"/>
<glyph glyph-name="Ntilde" horiz-adv-x="765" unicode="Ñ" d="M611 873l40 -20q-46 -96 -121 -96q-28 0 -64 21q-41 24 -61 24q-31 0 -54 -38l-40 20q45 95 120 95q27 0 66 -22q40 -23 59 -23q15 0 26.5 7.5t15 12t13.5 19.5zM753 700l-124 -700h-146l-228 484l-86 -484h-140l124 700h146l230 -474l84 474h140z"/>
<glyph glyph-name="Ograve" horiz-adv-x="815" unicode="Ò" d="M474 866l46 -116h-91l-73 116h118zM447 600q-52 0 -94.5 -18.5t-69.5 -48.5t-45.5 -68.5t-26 -76.5t-8.5 -76v-5q0 -98 51.5 -152.5t138.5 -54.5q64 0 113.5 28t76.5 72.5t40 92.5t14 96v5q0 98 -51.5 152t-138.5 54zM450 712q155 0 245 -86.5t90 -233.5 q0 -53 -11.5 -105.5t-40.5 -107.5t-72.5 -96.5t-113.5 -68t-157 -26.5q-155 0 -245 86.5t-90 233.5q0 53 11.5 105.5t40.5 107.5t72.5 96.5t113.5 68t157 26.5z"/>
<glyph glyph-name="Oacute" horiz-adv-x="815" unicode="Ó" d="M583 866l-111 -116h-97l86 116h122zM447 600q-52 0 -94.5 -18.5t-69.5 -48.5t-45.5 -68.5t-26 -76.5t-8.5 -76v-5q0 -98 51.5 -152.5t138.5 -54.5q64 0 113.5 28t76.5 72.5t40 92.5t14 96v5q0 98 -51.5 152t-138.5 54zM450 712q155 0 245 -86.5t90 -233.5 q0 -53 -11.5 -105.5t-40.5 -107.5t-72.5 -96.5t-113.5 -68t-157 -26.5q-155 0 -245 86.5t-90 233.5q0 53 11.5 105.5t40.5 107.5t72.5 96.5t113.5 68t157 26.5z"/>
<glyph glyph-name="Ocircumflex" horiz-adv-x="815" unicode="Ô" d="M292 750l138 116h118l90 -116h-97l-56 73l-87 -73h-106zM447 600q-52 0 -94.5 -18.5t-69.5 -48.5t-45.5 -68.5t-26 -76.5t-8.5 -76v-5q0 -98 51.5 -152.5t138.5 -54.5q64 0 113.5 28t76.5 72.5t40 92.5t14 96v5q0 98 -51.5 152t-138.5 54zM450 712q155 0 245 -86.5 t90 -233.5q0 -53 -11.5 -105.5t-40.5 -107.5t-72.5 -96.5t-113.5 -68t-157 -26.5q-155 0 -245 86.5t-90 233.5q0 53 11.5 105.5t40.5 107.5t72.5 96.5t113.5 68t157 26.5z"/>
<glyph glyph-name="Otilde" horiz-adv-x="815" unicode="Õ" d="M592 873l40 -20q-46 -96 -121 -96q-28 0 -64 21q-41 24 -61 24q-31 0 -54 -38l-40 20q45 95 120 95q27 0 66 -22q40 -23 59 -23q15 0 26.5 7.5t15 12t13.5 19.5zM447 600q-52 0 -94.5 -18.5t-69.5 -48.5t-45.5 -68.5t-26 -76.5t-8.5 -76v-5q0 -98 51.5 -152.5 t138.5 -54.5q64 0 113.5 28t76.5 72.5t40 92.5t14 96v5q0 98 -51.5 152t-138.5 54zM450 712q155 0 245 -86.5t90 -233.5q0 -53 -11.5 -105.5t-40.5 -107.5t-72.5 -96.5t-113.5 -68t-157 -26.5q-155 0 -245 86.5t-90 233.5q0 53 11.5 105.5t40.5 107.5t72.5 96.5t113.5 68 t157 26.5z"/>
<glyph glyph-name="Odieresis" horiz-adv-x="815" unicode="Ö" d="M591 874q32 0 49 -16t15 -43q-2 -59 -64 -59q-29 0 -45.5 15t-16.5 40q0 29 16 46t46 17zM359 874q31 0 48 -15.5t17 -41.5q0 -29 -17 -45t-48 -16q-29 0 -45.5 15t-16.5 40q0 29 16 46t46 17zM447 600q-52 0 -94.5 -18.5t-69.5 -48.5t-45.5 -68.5t-26 -76.5t-8.5 -76v-5 q0 -98 51.5 -152.5t138.5 -54.5q64 0 113.5 28t76.5 72.5t40 92.5t14 96v5q0 98 -51.5 152t-138.5 54zM450 712q155 0 245 -86.5t90 -233.5q0 -53 -11.5 -105.5t-40.5 -107.5t-72.5 -96.5t-113.5 -68t-157 -26.5q-155 0 -245 86.5t-90 233.5q0 53 11.5 105.5t40.5 107.5 t72.5 96.5t113.5 68t157 26.5z"/>
<glyph glyph-name="multiply" horiz-adv-x="549" unicode="×" d="M159 565l132 -160l190 161l56 -69l-189 -161l132 -159l-80 -69l-132 160l-190 -160l-55 69l188 160l-131 160z"/>
<glyph glyph-name="Oslash" horiz-adv-x="815" unicode="Ø" d="M447 600q-52 0 -94.5 -18.5t-69.5 -48.5t-45.5 -68.5t-26 -76.5t-8.5 -76v-7q0 -76 32 -126l322 390q-46 31 -110 31zM637 389v6q0 75 -33 127l-324 -390q47 -32 113 -32q64 0 113.5 28t76.5 72.5t40 92.5t14 96zM450 712q109 0 188 -45l55 66h86l-87 -105 q93 -88 93 -237q0 -53 -11.5 -105.5t-40.5 -107t-72.5 -96t-113.5 -68t-157 -26.5q-111 0 -191 46l-59 -72h-85l92 111q-92 86 -92 236q0 53 11.5 105.5t40.5 107.5t72.5 96t113.5 67.5t157 26.5z"/>
<glyph glyph-name="Ugrave" horiz-adv-x="742" unicode="Ù" d="M478 866l46 -116h-91l-73 116h118zM736 700l-79 -451q-22 -120 -99 -190.5t-214 -70.5q-73 0 -128.5 20t-85.5 54t-44.5 71.5t-14.5 77.5q0 36 2 51l77 438h140l-76 -437q-3 -17 -3 -34q0 -57 34.5 -93t104.5 -36q72 0 112 37.5t51 99.5l83 463h140z"/>
<glyph glyph-name="Uacute" horiz-adv-x="742" unicode="Ú" d="M602 866l-111 -116h-97l86 116h122zM736 700l-79 -451q-22 -120 -99 -190.5t-214 -70.5q-73 0 -128.5 20t-85.5 54t-44.5 71.5t-14.5 77.5q0 36 2 51l77 438h140l-76 -437q-3 -17 -3 -34q0 -57 34.5 -93t104.5 -36q72 0 112 37.5t51 99.5l83 463h140z"/>
<glyph glyph-name="Ucircumflex" horiz-adv-x="742" unicode="Û" d="M278 750l138 116h118l90 -116h-97l-56 73l-87 -73h-106zM736 700l-79 -451q-22 -120 -99 -190.5t-214 -70.5q-73 0 -128.5 20t-85.5 54t-44.5 71.5t-14.5 77.5q0 36 2 51l77 438h140l-76 -437q-3 -17 -3 -34q0 -57 34.5 -93t104.5 -36q72 0 112 37.5t51 99.5l83 463h140z "/>
<glyph glyph-name="Udieresis" horiz-adv-x="742" unicode="Ü" d="M569 874q32 0 49 -16t15 -43q-2 -59 -64 -59q-29 0 -45.5 15t-16.5 40q0 29 16 46t46 17zM337 874q31 0 48 -15.5t17 -41.5q0 -29 -17 -45t-48 -16q-29 0 -45.5 15t-16.5 40q0 29 16 46t46 17zM736 700l-79 -451q-22 -120 -99 -190.5t-214 -70.5q-73 0 -128.5 20 t-85.5 54t-44.5 71.5t-14.5 77.5q0 36 2 51l77 438h140l-76 -437q-3 -17 -3 -34q0 -57 34.5 -93t104.5 -36q72 0 112 37.5t51 99.5l83 463h140z"/>
<glyph glyph-name="Yacute" horiz-adv-x="669" unicode="Ý" d="M559 866l-111 -116h-97l86 116h122zM356 0h-140l48 272l-177 428h140l122 -315l234 315h150l-329 -429z"/>
<glyph glyph-name="Thorn" horiz-adv-x="694" unicode="Þ" d="M213 255h183q65 0 100.5 35t35.5 86q0 43 -30 75t-87 32h-163zM271 593h171q117 0 177 -60t60 -152q0 -45 -15.5 -85.5t-46 -75t-83.5 -55t-121 -20.5h-219l-26 -145h-138l123 700h138z"/>
<glyph glyph-name="germandbls" horiz-adv-x="649" unicode="ß" d="M346 712q99 0 153 -45t54 -110q0 -34 -11 -61t-24.5 -41.5t-24.5 -36.5t-11 -46q0 -26 17 -50.5t37 -43t37 -52.5t17 -76v-5q-3 -91 -59 -131.5t-148 -40.5q-68 0 -161 27l25 102q68 -25 123 -25q85 0 88 87v5q0 28 -15 52t-32.5 40t-32.5 42t-15 56q0 32 11.5 56.5 t25.5 37.5t25.5 33.5t11.5 45.5q0 32 -22.5 54t-67.5 22q-50 0 -79.5 -38t-38.5 -90l-85 -480h-131l87 496q17 103 81 159.5t165 56.5z"/>
<glyph glyph-name="agrave" horiz-adv-x="642" unicode="à" d="M248 731h120l49 -148h-92zM326 429q-42 0 -74 -19.5t-49.5 -50.5t-25.5 -63t-8 -64q0 -65 33.5 -102.5t93.5 -37.5q43 0 75 20t48.5 52t24.5 64t8 63q0 64 -33 101t-93 37zM304 529q62 0 108 -24.5t67 -65.5l19 81h125l-69 -396l-15 -124h-123l8 70q-61 -79 -170 -79 q-107 0 -162.5 65t-56.5 173q0 124 71 212t198 88z"/>
<glyph glyph-name="aacute" horiz-adv-x="642" unicode="á" d="M513 731l-126 -148h-98l100 148h124zM326 429q-42 0 -74 -19.5t-49.5 -50.5t-25.5 -63t-8 -64q0 -65 33.5 -102.5t93.5 -37.5q43 0 75 20t48.5 52t24.5 64t8 63q0 64 -33 101t-93 37zM304 529q62 0 108 -24.5t67 -65.5l19 81h125l-69 -396l-15 -124h-123l8 70 q-61 -79 -170 -79q-107 0 -162.5 65t-56.5 173q0 124 71 212t198 88z"/>
<glyph glyph-name="acircumflex" horiz-adv-x="642" unicode="â" d="M456 732l87 -149h-97l-54 102l-91 -102h-104l140 149h119zM326 429q-42 0 -74 -19.5t-49.5 -50.5t-25.5 -63t-8 -64q0 -65 33.5 -102.5t93.5 -37.5q43 0 75 20t48.5 52t24.5 64t8 63q0 64 -33 101t-93 37zM304 529q62 0 108 -24.5t67 -65.5l19 81h125l-69 -396l-15 -124 h-123l8 70q-61 -79 -170 -79q-107 0 -162.5 65t-56.5 173q0 124 71 212t198 88z"/>
<glyph glyph-name="atilde" horiz-adv-x="642" unicode="ã" d="M497 706l40 -20q-46 -96 -121 -96q-28 0 -64 21q-41 24 -61 24q-31 0 -54 -38l-40 20q45 95 120 95q27 0 66 -22q40 -23 59 -23q15 0 26.5 7.5t15 12t13.5 19.5zM326 429q-42 0 -74 -19.5t-49.5 -50.5t-25.5 -63t-8 -64q0 -65 33.5 -102.5t93.5 -37.5q43 0 75 20t48.5 52 t24.5 64t8 63q0 64 -33 101t-93 37zM304 529q62 0 108 -24.5t67 -65.5l19 81h125l-69 -396l-15 -124h-123l8 70q-61 -79 -170 -79q-107 0 -162.5 65t-56.5 173q0 124 71 212t198 88z"/>
<glyph glyph-name="adieresis" horiz-adv-x="642" unicode="ä" d="M485 713q33 0 50.5 -16t17.5 -43q0 -30 -18 -47t-50 -17q-30 0 -47.5 15.5t-17.5 42.5q0 30 17.5 47.5t47.5 17.5zM253 713q33 0 50.5 -16t17.5 -43q0 -31 -18 -47.5t-50 -16.5q-30 0 -47.5 15.5t-17.5 42.5q0 30 17.5 47.5t47.5 17.5zM326 429q-42 0 -74 -19.5 t-49.5 -50.5t-25.5 -63t-8 -64q0 -65 33.5 -102.5t93.5 -37.5q43 0 75 20t48.5 52t24.5 64t8 63q0 64 -33 101t-93 37zM304 529q62 0 108 -24.5t67 -65.5l19 81h125l-69 -396l-15 -124h-123l8 70q-61 -79 -170 -79q-107 0 -162.5 65t-56.5 173q0 124 71 212t198 88z"/>
<glyph glyph-name="aring" horiz-adv-x="642" unicode="å" d="M388 737q-45 0 -50 -57v-8q0 -44 47 -44q20 0 34.5 14.5t16.5 43.5v6q0 45 -48 45zM389 789q48 0 80.5 -25t32.5 -73q0 -55 -34 -84.5t-84 -29.5q-47 0 -79.5 24.5t-32.5 72.5v7q3 53 35.5 80.5t81.5 27.5zM326 429q-42 0 -74 -19.5t-49.5 -50.5t-25.5 -63t-8 -64 q0 -65 33.5 -102.5t93.5 -37.5q43 0 75 20t48.5 52t24.5 64t8 63q0 64 -33 101t-93 37zM304 529q62 0 108 -24.5t67 -65.5l19 81h125l-69 -396l-15 -124h-123l8 70q-61 -79 -170 -79q-107 0 -162.5 65t-56.5 173q0 124 71 212t198 88z"/>
<glyph glyph-name="ae" horiz-adv-x="919" unicode="æ" d="M235 83q102 0 134 81q-6 28 -6 61v2q-36 3 -74 3q-75 0 -109 -19.5t-34 -60.5q0 -67 89 -67zM605 292q153 0 154 76q0 61 -83 61q-62 0 -106.5 -36.5t-61.5 -93.5q51 -7 97 -7zM685 529q90 0 147.5 -36.5t57.5 -116.5q-1 -170 -268 -170q-71 0 -124 11q4 -64 43.5 -96.5 t106.5 -32.5q87 0 165 41l26 -89q-84 -49 -216 -49q-154 0 -220 93q-60 -93 -203 -93q-89 0 -138.5 38t-49.5 113q0 172 270 172q45 0 93 -3q8 34 28 68q-12 49 -105 49q-89 0 -194 -28l-1 99q115 30 237 30q119 0 165 -47q77 47 180 47z"/>
<glyph glyph-name="ccedilla" horiz-adv-x="546" unicode="ç" d="M341 529q99 0 182 -47l-46 -91q-69 37 -136 37q-81 0 -127.5 -50t-46.5 -131q0 -76 42.5 -115.5t114.5 -39.5q62 0 126 31l25 -94q-89 -38 -175 -38q-3 0 -9 0.5t-8 0.5l-23 -47q27 0 49 -14t22 -51q0 -46 -36.5 -66.5t-87.5 -20.5q-54 0 -89 15l14 50q29 -13 68 -13 q51 0 51 30q0 24 -38 24q-8 0 -22 -2l-14 24l39 79q-82 20 -132.5 77.5t-50.5 157.5q0 133 87.5 213.5t220.5 80.5z"/>
<glyph glyph-name="egrave" horiz-adv-x="588" unicode="è" d="M257 731h120l49 -148h-92zM345 429q-61 0 -105.5 -36.5t-62.5 -93.5q41 -7 98 -7q153 0 154 76q0 61 -84 61zM355 529q91 0 148 -37t57 -118q-1 -168 -269 -168q-73 0 -123 9q4 -62 43.5 -94.5t105.5 -32.5q88 0 166 41l26 -89q-84 -49 -217 -49q-120 0 -190 60.5 t-69 173.5q0 127 88.5 215.5t233.5 88.5z"/>
<glyph glyph-name="eacute" horiz-adv-x="588" unicode="é" d="M506 731l-126 -148h-98l100 148h124zM345 429q-61 0 -105.5 -36.5t-62.5 -93.5q41 -7 98 -7q153 0 154 76q0 61 -84 61zM355 529q91 0 148 -37t57 -118q-1 -168 -269 -168q-73 0 -123 9q4 -62 43.5 -94.5t105.5 -32.5q88 0 166 41l26 -89q-84 -49 -217 -49 q-120 0 -190 60.5t-69 173.5q0 127 88.5 215.5t233.5 88.5z"/>
<glyph glyph-name="ecircumflex" horiz-adv-x="588" unicode="ê" d="M345 429q-61 0 -105.5 -36.5t-62.5 -93.5q41 -7 98 -7q153 0 154 76q0 61 -84 61zM421 732l87 -149h-97l-54 102l-91 -102h-104l140 149h119zM355 529q91 0 148 -37t57 -118q-1 -168 -269 -168q-73 0 -123 9q4 -62 43.5 -94.5t105.5 -32.5q88 0 166 41l26 -89 q-84 -49 -217 -49q-120 0 -190 60.5t-69 173.5q0 127 88.5 215.5t233.5 88.5z"/>
<glyph glyph-name="edieresis" horiz-adv-x="588" unicode="ë" d="M469 713q33 0 50.5 -16t17.5 -43q0 -30 -18 -47t-50 -17q-30 0 -47.5 15.5t-17.5 42.5q0 30 17.5 47.5t47.5 17.5zM237 713q33 0 50.5 -16t17.5 -43q0 -31 -18 -47.5t-50 -16.5q-30 0 -47.5 15.5t-17.5 42.5q0 30 17.5 47.5t47.5 17.5zM345 429q-61 0 -105.5 -36.5 t-62.5 -93.5q41 -7 98 -7q153 0 154 76q0 61 -84 61zM355 529q91 0 148 -37t57 -118q-1 -168 -269 -168q-73 0 -123 9q4 -62 43.5 -94.5t105.5 -32.5q88 0 166 41l26 -89q-84 -49 -217 -49q-120 0 -190 60.5t-69 173.5q0 127 88.5 215.5t233.5 88.5z"/>
<glyph glyph-name="igrave" horiz-adv-x="282" unicode="ì" d="M85 723h120l49 -148h-92zM258 520l-91 -520h-131l74 427h-64l17 93h195z"/>
<glyph glyph-name="iacute" horiz-adv-x="282" unicode="í" d="M352 731l-126 -148h-98l100 148h124zM258 520l-91 -520h-131l74 427h-64l17 93h195z"/>
<glyph glyph-name="icircumflex" horiz-adv-x="282" unicode="î" d="M268 724l87 -149h-97l-54 102l-91 -102h-104l140 149h119zM258 520l-91 -520h-131l74 427h-64l17 93h195z"/>
<glyph glyph-name="idieresis" horiz-adv-x="282" unicode="ï" d="M300 705q33 0 50.5 -16t17.5 -43q0 -30 -18 -47t-50 -17q-30 0 -47.5 15.5t-17.5 42.5q0 30 17.5 47.5t47.5 17.5zM68 705q33 0 50.5 -16t17.5 -43q0 -31 -18 -47.5t-50 -16.5q-30 0 -47.5 15.5t-17.5 42.5q0 30 17.5 47.5t47.5 17.5zM258 520l-91 -520h-131l74 427h-64 l17 93h195z"/>
<glyph glyph-name="eth" horiz-adv-x="582" unicode="ð" d="M294 389q-71 0 -108 -49t-37 -120q0 -59 28.5 -95t88.5 -36q71 0 109 45t38 124q0 59 -29.5 95t-89.5 36zM525 771l21 -42l-83 -51q100 -138 100 -321q0 -162 -78 -264t-219 -102q-121 0 -186 58.5t-65 167.5q0 115 67.5 193t189.5 78q109 0 168 -68q-2 27 -15 71 q-18 66 -58 128l-93 -57l-22 40l88 54q-35 45 -82 87l88 55q51 -42 88 -84z"/>
<glyph glyph-name="ntilde" horiz-adv-x="603" unicode="ñ" d="M496 706l40 -20q-46 -96 -121 -96q-28 0 -64 21q-41 24 -61 24q-31 0 -54 -38l-40 20q45 95 120 95q27 0 66 -22q40 -23 59 -23q15 0 26.5 7.5t15 12t13.5 19.5zM392 529q85 0 125.5 -43.5t40.5 -116.5q0 -29 -6 -59l-54 -310h-131l54 309q3 17 3 33q0 86 -86 86 q-60 0 -98 -42t-50 -113l-48 -273h-131l68 390l15 130h119l-8 -80q70 89 187 89z"/>
<glyph glyph-name="ograve" horiz-adv-x="620" unicode="ò" d="M252 723h120l49 -148h-92zM323 429q-52 0 -88 -31.5t-51 -75.5t-15 -95q0 -65 33 -100t90 -35q76 0 115 60.5t39 140.5q0 65 -33 100.5t-90 35.5zM335 529q110 0 177.5 -63t67.5 -175q-1 -132 -80 -216t-220 -84q-110 0 -177.5 63t-67.5 175q0 132 79.5 216t220.5 84z "/>
<glyph glyph-name="oacute" horiz-adv-x="620" unicode="ó" d="M510 731l-126 -148h-98l100 148h124zM323 429q-52 0 -88 -31.5t-51 -75.5t-15 -95q0 -65 33 -100t90 -35q76 0 115 60.5t39 140.5q0 65 -33 100.5t-90 35.5zM335 529q110 0 177.5 -63t67.5 -175q-1 -132 -80 -216t-220 -84q-110 0 -177.5 63t-67.5 175q0 132 79.5 216 t220.5 84z"/>
<glyph glyph-name="ocircumflex" horiz-adv-x="620" unicode="ô" d="M429 724l87 -149h-97l-54 102l-91 -102h-104l140 149h119zM323 429q-52 0 -88 -31.5t-51 -75.5t-15 -95q0 -65 33 -100t90 -35q76 0 115 60.5t39 140.5q0 65 -33 100.5t-90 35.5zM335 529q110 0 177.5 -63t67.5 -175q-1 -132 -80 -216t-220 -84q-110 0 -177.5 63 t-67.5 175q0 132 79.5 216t220.5 84z"/>
<glyph glyph-name="otilde" horiz-adv-x="619" unicode="õ" d="M486 698l40 -20q-46 -96 -121 -96q-28 0 -64 21q-41 24 -61 24q-31 0 -54 -38l-40 20q45 95 120 95q27 0 66 -22q40 -23 59 -23q15 0 26.5 7.5t15 12t13.5 19.5zM323 429q-52 0 -88 -31.5t-51 -75.5t-15 -95q0 -65 33 -100t90 -35q76 0 115 60.5t39 140.5q0 65 -33 100.5 t-90 35.5zM335 529q110 0 177.5 -63t67.5 -175q-1 -132 -80 -216t-220 -84q-110 0 -177.5 63t-67.5 175q0 132 79.5 216t220.5 84z"/>
<glyph glyph-name="odieresis" horiz-adv-x="620" unicode="ö" d="M469 705q33 0 50.5 -16t17.5 -43q0 -30 -18 -47t-50 -17q-30 0 -47.5 15.5t-17.5 42.5q0 30 17.5 47.5t47.5 17.5zM237 705q33 0 50.5 -16t17.5 -43q0 -31 -18 -47.5t-50 -16.5q-30 0 -47.5 15.5t-17.5 42.5q0 30 17.5 47.5t47.5 17.5zM323 429q-52 0 -88 -31.5 t-51 -75.5t-15 -95q0 -65 33 -100t90 -35q76 0 115 60.5t39 140.5q0 65 -33 100.5t-90 35.5zM335 529q110 0 177.5 -63t67.5 -175q-1 -132 -80 -216t-220 -84q-110 0 -177.5 63t-67.5 175q0 132 79.5 216t220.5 84z"/>
<glyph glyph-name="divide" horiz-adv-x="574" unicode="÷" d="M328 573q26 0 44 -14t18 -42v-6q-2 -26 -19.5 -44t-47.5 -18q-26 0 -43.5 13.5t-17.5 41.5v6q2 26 19 44.5t47 18.5zM265 214q26 0 44 -14t18 -42v-6q-2 -26 -19.5 -43.5t-47.5 -17.5q-25 0 -43 13.5t-18 41.5v5q2 27 19 45t47 18zM534 373l-15 -85h-465l15 85h465z"/>
<glyph glyph-name="oslash" horiz-adv-x="620" unicode="ø" d="M446 290q0 47 -16 78l-213 -255q30 -21 75 -21q75 0 113.5 59t40.5 139zM323 429q-75 0 -114 -60t-40 -139v-7q0 -45 17 -74l213 257q-31 23 -76 23zM335 529q79 0 138 -34l49 58h62l-72 -86q68 -65 68 -178q-1 -131 -80.5 -214.5t-219.5 -83.5q-80 0 -137 33l-47 -57 h-61l70 84q-70 64 -70 176q0 133 79 217.5t221 84.5z"/>
<glyph glyph-name="ugrave" horiz-adv-x="614" unicode="ù" d="M235 731h120l49 -148h-92zM205 -9q-86 0 -126.5 43.5t-40.5 116.5q0 29 6 59l54 310h132l-54 -309q-3 -17 -3 -33q0 -86 87 -86q59 0 97 42t50 113l48 273h131l-68 -390l-14 -130h-119l7 75q-69 -84 -187 -84z"/>
<glyph glyph-name="uacute" horiz-adv-x="615" unicode="ú" d="M513 731l-126 -148h-98l100 148h124zM205 -9q-86 0 -126.5 43.5t-40.5 116.5q0 29 6 59l54 310h132l-54 -309q-3 -17 -3 -33q0 -86 87 -86q59 0 97 42t50 113l48 273h131l-68 -390l-14 -130h-119l7 75q-69 -84 -187 -84z"/>
<glyph glyph-name="ucircumflex" horiz-adv-x="615" unicode="û" d="M439 732l87 -149h-97l-54 102l-91 -102h-104l140 149h119zM205 -9q-86 0 -126.5 43.5t-40.5 116.5q0 29 6 59l54 310h132l-54 -309q-3 -17 -3 -33q0 -86 87 -86q59 0 97 42t50 113l48 273h131l-68 -390l-14 -130h-119l7 75q-69 -84 -187 -84z"/>
<glyph glyph-name="udieresis" horiz-adv-x="615" unicode="ü" d="M467 713q33 0 50.5 -16t17.5 -43q0 -30 -18 -47t-50 -17q-30 0 -47.5 15.5t-17.5 42.5q0 30 17.5 47.5t47.5 17.5zM235 713q33 0 50.5 -16t17.5 -43q0 -31 -18 -47.5t-50 -16.5q-30 0 -47.5 15.5t-17.5 42.5q0 30 17.5 47.5t47.5 17.5zM205 -9q-86 0 -126.5 43.5 t-40.5 116.5q0 29 6 59l54 310h132l-54 -309q-3 -17 -3 -33q0 -86 87 -86q59 0 97 42t50 113l48 273h131l-68 -390l-14 -130h-119l7 75q-69 -84 -187 -84z"/>
<glyph glyph-name="yacute" horiz-adv-x="582" unicode="ý" d="M483 731l-126 -148h-98l100 148h124zM598 520l-294 -559q-42 -78 -89.5 -107t-116.5 -29q-65 0 -127 19l23 97q48 -14 80 -14q63 0 89 51l11 21l-120 521h135l77 -393l188 393h144z"/>
<glyph glyph-name="thorn" horiz-adv-x="639" unicode="þ" d="M342 427q-42 0 -74.5 -20t-49.5 -52t-25 -64t-8 -62q0 -64 33.5 -101t93.5 -37q42 0 74 19.5t49 50.5t25 63.5t8 63.5q0 65 -33.5 102t-92.5 37zM269 700l-41 -232q63 60 156 60q107 0 162.5 -63.5t55.5 -172.5q0 -125 -69.5 -212.5t-198.5 -89.5q-123 0 -176 85 l-42 -245h-132l153 870h132z"/>
<glyph glyph-name="ydieresis" horiz-adv-x="582" unicode="ÿ" d="M442 700q33 0 50.5 -16t17.5 -43q0 -30 -18 -47t-50 -17q-30 0 -47.5 15.5t-17.5 42.5q0 30 17.5 47.5t47.5 17.5zM210 700q33 0 50.5 -16t17.5 -43q0 -31 -18 -47.5t-50 -16.5q-30 0 -47.5 15.5t-17.5 42.5q0 30 17.5 47.5t47.5 17.5zM598 520l-294 -559 q-42 -78 -89.5 -107t-116.5 -29q-65 0 -127 19l23 97q48 -14 80 -14q63 0 89 51l11 21l-120 521h135l77 -393l188 393h144z"/>
<glyph glyph-name="Amacron" horiz-adv-x="725" unicode="Ā" d="M602 852l-13 -75h-312l13 75h312zM422 581h-2l-168 -310h228zM530 701l142 -701h-143l-30 161h-302l-85 -161h-150l379 701h189z"/>
<glyph glyph-name="amacron" horiz-adv-x="642" unicode="ā" d="M534 685l-13 -75h-312l13 75h312zM326 429q-42 0 -74 -19.5t-49.5 -50.5t-25.5 -63t-8 -64q0 -65 33.5 -102.5t93.5 -37.5q43 0 75 20t48.5 52t24.5 64t8 63q0 64 -33 101t-93 37zM304 529q62 0 108 -24.5t67 -65.5l19 81h125l-69 -396l-15 -124h-123l8 70 q-61 -79 -170 -79q-107 0 -162.5 65t-56.5 173q0 124 71 212t198 88z"/>
<glyph glyph-name="Abreve" horiz-adv-x="726" unicode="Ă" d="M540 873l72 -4q-16 -62 -54 -88.5t-103 -26.5q-124 0 -124 115l74 4q0 -55 56 -55q59 0 79 55zM422 581h-2l-168 -310h228zM530 701l142 -701h-143l-30 161h-302l-85 -161h-150l379 701h189z"/>
<glyph glyph-name="abreve" horiz-adv-x="642" unicode="ă" d="M441 721l80 -7q-16 -65 -55 -96t-108 -31q-129 0 -132 127l79 7q0 -35 13 -52.5t47 -17.5q57 0 76 70zM326 429q-42 0 -74 -19.5t-49.5 -50.5t-25.5 -63t-8 -64q0 -65 33.5 -102.5t93.5 -37.5q43 0 75 20t48.5 52t24.5 64t8 63q0 64 -33 101t-93 37zM304 529 q62 0 108 -24.5t67 -65.5l19 81h125l-69 -396l-15 -124h-123l8 70q-61 -79 -170 -79q-107 0 -162.5 65t-56.5 173q0 124 71 212t198 88z"/>
<glyph glyph-name="Aogonek" horiz-adv-x="726" unicode="Ą" d="M422 581h-2l-168 -310h228zM530 701l142 -701h-3q-59 -32 -59 -77q0 -33 33 -33q12 0 39 6l-3 -67q-32 -12 -68 -12q-81 0 -81 76q0 61 59 107h-60l-30 161h-302l-85 -161h-150l379 701h189z"/>
<glyph glyph-name="aogonek" horiz-adv-x="641" unicode="ą" d="M326 429q-42 0 -74 -19.5t-49.5 -50.5t-25.5 -63t-8 -64q0 -65 33.5 -102.5t93.5 -37.5q43 0 75 20t48.5 52t24.5 64t8 63q0 64 -33 101t-93 37zM304 529q62 0 108 -24.5t67 -65.5l19 81h125l-69 -396l-15 -124h-3q-59 -32 -59 -77q0 -33 33 -33q12 0 39 6l-3 -67 q-32 -12 -68 -12q-81 0 -81 76q0 61 59 107h-40l8 70q-61 -79 -170 -79q-107 0 -162.5 65t-56.5 173q0 124 71 212t198 88z"/>
<glyph glyph-name="Cacute" horiz-adv-x="693" unicode="Ć" d="M575 866l-111 -116h-97l86 116h122zM465 712q134 0 241 -71l-50 -99q-83 58 -187 58q-126 0 -197.5 -77.5t-71.5 -190.5q0 -110 62 -171t163 -61q85 0 181 44l28 -101q-102 -55 -230 -55q-98 0 -175.5 34.5t-127 111.5t-49.5 187q0 177 120 284t293 107z"/>
<glyph glyph-name="cacute" horiz-adv-x="546" unicode="ć" d="M485 731l-126 -148h-98l100 148h124zM341 529q99 0 182 -47l-46 -91q-69 37 -136 37q-81 0 -127.5 -50t-46.5 -131q0 -76 42.5 -115.5t114.5 -39.5q62 0 126 31l25 -94q-89 -38 -175 -38q-113 0 -190 60t-77 184q0 133 87.5 213.5t220.5 80.5z"/>
<glyph glyph-name="Ccircumflex" horiz-adv-x="693" unicode="Ĉ" d="M293 750l138 116h118l90 -116h-97l-56 73l-87 -73h-106zM465 712q134 0 241 -71l-50 -99q-83 58 -187 58q-126 0 -197.5 -77.5t-71.5 -190.5q0 -110 62 -171t163 -61q85 0 181 44l28 -101q-102 -55 -230 -55q-98 0 -175.5 34.5t-127 111.5t-49.5 187q0 177 120 284 t293 107z"/>
<glyph glyph-name="ccircumflex" horiz-adv-x="546" unicode="ĉ" d="M414 732l87 -149h-97l-54 102l-91 -102h-104l140 149h119zM341 529q99 0 182 -47l-46 -91q-69 37 -136 37q-81 0 -127.5 -50t-46.5 -131q0 -76 42.5 -115.5t114.5 -39.5q62 0 126 31l25 -94q-89 -38 -175 -38q-113 0 -190 60t-77 184q0 133 87.5 213.5t220.5 80.5z"/>
<glyph glyph-name="Cdotaccent" horiz-adv-x="693" unicode="Ċ" d="M478 874q32 0 49 -16t15 -43q-2 -59 -64 -59q-29 0 -45.5 15t-16.5 40q0 29 16 46t46 17zM465 712q134 0 241 -71l-50 -99q-83 58 -187 58q-126 0 -197.5 -77.5t-71.5 -190.5q0 -110 62 -171t163 -61q85 0 181 44l28 -101q-102 -55 -230 -55q-98 0 -175.5 34.5 t-127 111.5t-49.5 187q0 177 120 284t293 107z"/>
<glyph glyph-name="cdotaccent" horiz-adv-x="546" unicode="ċ" d="M336 713q72 0 72 -57q0 -66 -72 -66q-70 0 -70 58q0 31 18.5 48t51.5 17zM341 529q99 0 182 -47l-46 -91q-69 37 -136 37q-81 0 -127.5 -50t-46.5 -131q0 -76 42.5 -115.5t114.5 -39.5q62 0 126 31l25 -94q-89 -38 -175 -38q-113 0 -190 60t-77 184q0 133 87.5 213.5 t220.5 80.5z"/>
<glyph glyph-name="Ccaron" horiz-adv-x="693" unicode="Č" d="M665 866l-138 -116h-118l-90 116h97l56 -73l87 73h106zM465 712q134 0 241 -71l-50 -99q-83 58 -187 58q-126 0 -197.5 -77.5t-71.5 -190.5q0 -110 62 -171t163 -61q85 0 181 44l28 -101q-102 -55 -230 -55q-98 0 -175.5 34.5t-127 111.5t-49.5 187q0 177 120 284 t293 107z"/>
<glyph glyph-name="ccaron" horiz-adv-x="546" unicode="č" d="M529 732l-139 -149h-119l-88 149h97l54 -101l91 101h104zM341 529q99 0 182 -47l-46 -91q-69 37 -136 37q-81 0 -127.5 -50t-46.5 -131q0 -76 42.5 -115.5t114.5 -39.5q62 0 126 31l25 -94q-89 -38 -175 -38q-113 0 -190 60t-77 184q0 133 87.5 213.5t220.5 80.5z"/>
<glyph glyph-name="Dcaron" horiz-adv-x="757" unicode="Ď" d="M605 866l-138 -116h-118l-90 116h97l56 -73l87 73h106zM376 590h-102l-84 -480h138q112 0 180.5 77.5t68.5 194.5q0 100 -52 154t-149 54zM154 700h206q170 0 267.5 -79.5t97.5 -236.5q0 -168 -108 -276t-296 -108h-291z"/>
<glyph glyph-name="dcaron" horiz-adv-x="640" unicode="ď" d="M703 732h90q-13 -70 -54 -145h-64q2 8 12 60t16 85zM325 429q-42 0 -74 -19.5t-49 -50.5t-25 -63.5t-8 -63.5q0 -65 33.5 -102.5t93.5 -37.5q43 0 75 20.5t48.5 52.5t24 63.5t7.5 62.5q0 64 -33 101t-93 37zM660 732l-106 -608l-15 -124h-114l8 82q-60 -90 -180 -90 q-107 0 -162 63t-56 172q0 126 70 214t198 89q127 0 173 -91l53 293h131z"/>
<glyph glyph-name="Dcroat" horiz-adv-x="757" unicode="Đ" d="M376 590h-102l-37 -208h126l-13 -75h-126l-34 -197h138q112 0 180.5 77.5t68.5 194.5q0 100 -52 154t-149 54zM154 700h206q170 0 267.5 -79.5t97.5 -236.5q0 -168 -108 -276t-296 -108h-291l54 307h-79l13 75h80z"/>
<glyph glyph-name="dcroat" horiz-adv-x="640" unicode="đ" d="M325 429q-42 0 -74 -19.5t-49 -50.5t-25 -63.5t-8 -63.5q0 -65 33.5 -102.5t93.5 -37.5q43 0 75 20.5t48.5 52.5t24 63.5t7.5 62.5q0 64 -33 101t-93 37zM660 732l-16 -89h57l-7 -46h-58l-82 -473l-15 -124h-114l8 82q-60 -90 -180 -90q-107 0 -162 63t-56 172 q0 126 70 214t198 89q127 0 173 -91l29 158h-143l8 46h143l16 89h131z"/>
<glyph glyph-name="Emacron" horiz-adv-x="648" unicode="Ē" d="M585 852l-13 -75h-312l13 75h312zM663 700l-19 -110h-371l-34 -193h320l-19 -110h-319l-33 -177h379l-19 -110h-519l123 700h511z"/>
<glyph glyph-name="emacron" horiz-adv-x="588" unicode="ē" d="M516 685l-13 -75h-312l13 75h312zM345 429q-61 0 -105.5 -36.5t-62.5 -93.5q41 -7 98 -7q153 0 154 76q0 61 -84 61zM355 529q91 0 148 -37t57 -118q-1 -168 -269 -168q-73 0 -123 9q4 -62 43.5 -94.5t105.5 -32.5q88 0 166 41l26 -89q-84 -49 -217 -49q-120 0 -190 60.5 t-69 173.5q0 127 88.5 215.5t233.5 88.5z"/>
<glyph glyph-name="Ebreve" horiz-adv-x="648" unicode="Ĕ" d="M500 873l72 -4q-16 -62 -54 -88.5t-103 -26.5q-124 0 -124 115l74 4q0 -55 56 -55q59 0 79 55zM663 700l-19 -110h-371l-34 -193h320l-19 -110h-319l-33 -177h379l-19 -110h-519l123 700h511z"/>
<glyph glyph-name="ebreve" horiz-adv-x="588" unicode="ĕ" d="M423 721l80 -7q-16 -65 -55 -96t-108 -31q-129 0 -132 127l79 7q0 -35 13 -52.5t47 -17.5q57 0 76 70zM345 429q-61 0 -105.5 -36.5t-62.5 -93.5q41 -7 98 -7q153 0 154 76q0 61 -84 61zM355 529q91 0 148 -37t57 -118q-1 -168 -269 -168q-73 0 -123 9q4 -62 43.5 -94.5 t105.5 -32.5q88 0 166 41l26 -89q-84 -49 -217 -49q-120 0 -190 60.5t-69 173.5q0 127 88.5 215.5t233.5 88.5z"/>
<glyph glyph-name="Edotaccent" horiz-adv-x="648" unicode="Ė" d="M424 874q32 0 49 -16t15 -43q-2 -59 -64 -59q-29 0 -45.5 15t-16.5 40q0 29 16 46t46 17zM663 700l-19 -110h-371l-34 -193h320l-19 -110h-319l-33 -177h379l-19 -110h-519l123 700h511z"/>
<glyph glyph-name="edotaccent" horiz-adv-x="588" unicode="ė" d="M351 713q72 0 72 -57q0 -66 -72 -66q-70 0 -70 58q0 31 18.5 48t51.5 17zM345 429q-61 0 -105.5 -36.5t-62.5 -93.5q41 -7 98 -7q153 0 154 76q0 61 -84 61zM355 529q91 0 148 -37t57 -118q-1 -168 -269 -168q-73 0 -123 9q4 -62 43.5 -94.5t105.5 -32.5q88 0 166 41 l26 -89q-84 -49 -217 -49q-120 0 -190 60.5t-69 173.5q0 127 88.5 215.5t233.5 88.5z"/>
<glyph glyph-name="Eogonek" horiz-adv-x="648" unicode="Ę" d="M663 700l-19 -110h-371l-34 -193h320l-19 -110h-319l-33 -177h379l-19 -110h-42q-59 -32 -59 -77q0 -33 33 -33q12 0 39 6l-3 -67q-32 -12 -68 -12q-81 0 -81 76q0 61 59 107h-397l123 700h511z"/>
<glyph glyph-name="eogonek" horiz-adv-x="588" unicode="ę" d="M345 429q-61 0 -105.5 -36.5t-62.5 -93.5q41 -7 98 -7q153 0 154 76q0 61 -84 61zM355 529q91 0 148 -37t57 -118q-1 -168 -269 -168q-73 0 -123 9q4 -62 43.5 -94.5t105.5 -32.5q88 0 166 41l26 -89q-40 -23 -90 -34q-61 -29 -61 -83q0 -33 33 -33q12 0 39 6l-3 -67 q-32 -12 -68 -12q-81 0 -81 77q0 56 47 98q-11 -1 -33 -1q-120 0 -190 60.5t-69 173.5q0 127 88.5 215.5t233.5 88.5z"/>
<glyph glyph-name="Ecaron" horiz-adv-x="647" unicode="Ě" d="M618 866l-138 -116h-118l-90 116h97l56 -73l87 73h106zM663 700l-19 -110h-371l-34 -193h320l-19 -110h-319l-33 -177h379l-19 -110h-519l123 700h511z"/>
<glyph glyph-name="ecaron" horiz-adv-x="588" unicode="ě" d="M345 429q-61 0 -105.5 -36.5t-62.5 -93.5q41 -7 98 -7q153 0 154 76q0 61 -84 61zM533 732l-139 -149h-119l-88 149h97l54 -101l91 101h104zM355 529q91 0 148 -37t57 -118q-1 -168 -269 -168q-73 0 -123 9q4 -62 43.5 -94.5t105.5 -32.5q88 0 166 41l26 -89 q-84 -49 -217 -49q-120 0 -190 60.5t-69 173.5q0 127 88.5 215.5t233.5 88.5z"/>
<glyph glyph-name="Gcircumflex" horiz-adv-x="762" unicode="Ĝ" d="M305 750l138 116h118l90 -116h-97l-56 73l-87 -73h-106zM471 712q79 0 139 -15t122 -50l-59 -100q-95 53 -199 53q-137 0 -205 -77t-68 -205q0 -98 58 -158t167 -60q80 0 144 34l21 134h-174l17 101h287l-51 -299q-124 -82 -269 -82q-156 0 -252.5 83t-95.5 242 q0 182 117.5 290.5t300.5 108.5z"/>
<glyph glyph-name="gcircumflex" horiz-adv-x="628" unicode="ĝ" d="M445 732l87 -149h-97l-54 102l-91 -102h-104l140 149h119zM322 431q-69 0 -108 -49t-41 -120v-9q0 -63 31.5 -99t90.5 -36q71 0 109.5 49t40.5 122v8q0 64 -32 99t-91 35zM300 529q66 0 111 -25t65 -65l19 81h122l-82 -465q-20 -113 -88 -170t-203 -57q-137 0 -241 63 l39 94q37 -24 91.5 -40.5t107.5 -16.5q137 0 159 122l5 30q-51 -59 -154 -59q-95 0 -154 55.5t-59 168.5v10q4 128 76.5 201t185.5 73z"/>
<glyph glyph-name="Gbreve" horiz-adv-x="762" unicode="Ğ" d="M573 873l72 -4q-16 -62 -54 -88.5t-103 -26.5q-124 0 -124 115l74 4q0 -55 56 -55q59 0 79 55zM471 712q79 0 139 -15t122 -50l-59 -100q-95 53 -199 53q-137 0 -205 -77t-68 -205q0 -98 58 -158t167 -60q80 0 144 34l21 134h-174l17 101h287l-51 -299q-124 -82 -269 -82 q-156 0 -252.5 83t-95.5 242q0 182 117.5 290.5t300.5 108.5z"/>
<glyph glyph-name="gbreve" horiz-adv-x="629" unicode="ğ" d="M434 721l80 -7q-16 -65 -55 -96t-108 -31q-129 0 -132 127l79 7q0 -35 13 -52.5t47 -17.5q57 0 76 70zM322 431q-69 0 -108 -49t-41 -120v-9q0 -63 31.5 -99t90.5 -36q71 0 109.5 49t40.5 122v8q0 64 -32 99t-91 35zM300 529q66 0 111 -25t65 -65l19 81h122l-82 -465 q-20 -113 -88 -170t-203 -57q-137 0 -241 63l39 94q37 -24 91.5 -40.5t107.5 -16.5q137 0 159 122l5 30q-51 -59 -154 -59q-95 0 -154 55.5t-59 168.5v10q4 128 76.5 201t185.5 73z"/>
<glyph glyph-name="Gdotaccent" horiz-adv-x="762" unicode="Ġ" d="M480 874q32 0 49 -16t15 -43q-2 -59 -64 -59q-29 0 -45.5 15t-16.5 40q0 29 16 46t46 17zM471 712q79 0 139 -15t122 -50l-59 -100q-95 53 -199 53q-137 0 -205 -77t-68 -205q0 -98 58 -158t167 -60q80 0 144 34l21 134h-174l17 101h287l-51 -299q-124 -82 -269 -82 q-156 0 -252.5 83t-95.5 242q0 182 117.5 290.5t300.5 108.5z"/>
<glyph glyph-name="gdotaccent" horiz-adv-x="628" unicode="ġ" d="M365 713q72 0 72 -57q0 -66 -72 -66q-70 0 -70 58q0 31 18.5 48t51.5 17zM322 431q-69 0 -108 -49t-41 -120v-9q0 -63 31.5 -99t90.5 -36q71 0 109.5 49t40.5 122v8q0 64 -32 99t-91 35zM300 529q66 0 111 -25t65 -65l19 81h122l-82 -465q-20 -113 -88 -170t-203 -57 q-137 0 -241 63l39 94q37 -24 91.5 -40.5t107.5 -16.5q137 0 159 122l5 30q-51 -59 -154 -59q-95 0 -154 55.5t-59 168.5v10q4 128 76.5 201t185.5 73z"/>
<glyph glyph-name="Gcommaaccent" horiz-adv-x="762" unicode="Ģ" d="M334 -45h93q-3 -14 -5.5 -25.5t-7.5 -23.5t-7.5 -19t-9.5 -19.5t-9 -16t-11 -18t-10 -16.5h-80q36 79 47 138zM471 712q79 0 139 -15t122 -50l-59 -100q-95 53 -199 53q-137 0 -205 -77t-68 -205q0 -98 58 -158t167 -60q80 0 144 34l21 134h-174l17 101h287l-51 -299 q-124 -82 -269 -82q-156 0 -252.5 83t-95.5 242q0 182 117.5 290.5t300.5 108.5z"/>
<glyph glyph-name="gcommaaccent" horiz-adv-x="628" unicode="ģ" d="M374 583h-93q3 14 5.5 25.5t7.5 23.5t7.5 19t9.5 19.5t9 16t11 18t10 16.5h80q-36 -79 -47 -138zM322 431q-69 0 -108 -49t-41 -120v-9q0 -63 31.5 -99t90.5 -36q71 0 109.5 49t40.5 122v8q0 64 -32 99t-91 35zM300 529q66 0 111 -25t65 -65l19 81h122l-82 -465 q-20 -113 -88 -170t-203 -57q-137 0 -241 63l39 94q37 -24 91.5 -40.5t107.5 -16.5q137 0 159 122l5 30q-51 -59 -154 -59q-95 0 -154 55.5t-59 168.5v10q4 128 76.5 201t185.5 73z"/>
<glyph glyph-name="Hcircumflex" horiz-adv-x="776" unicode="Ĥ" d="M288 750l138 116h118l90 -116h-97l-56 73l-87 -73h-106zM169 0h-140l123 700h141l-53 -300h331l53 300h140l-123 -700h-140l51 290h-332z"/>
<glyph glyph-name="hcircumflex" horiz-adv-x="606" unicode="ĥ" d="M34 758l138 116h118l90 -116h-97l-56 73l-87 -73h-106zM273 732l-48 -270q61 67 165 67q89 0 129 -47.5t40 -123.5q0 -24 -5 -54l-53 -304h-131l52 303q4 21 4 34q0 91 -90 91q-56 0 -93.5 -39.5t-50.5 -115.5l-48 -273h-131l129 732h131z"/>
<glyph glyph-name="Hbar" horiz-adv-x="771" unicode="Ħ" d="M261 523l-21 -123h331l22 123h-332zM624 700h140l-20 -114h46l-11 -63h-46l-92 -523h-140l51 290h-332l-51 -290h-140l92 523h-56l11 63h56l20 114h141l-21 -114h332z"/>
<glyph glyph-name="hbar" horiz-adv-x="606" unicode="ħ" d="M273 732l-16 -89h125l-7 -46h-126l-24 -135q61 67 165 67q89 0 129 -47.5t40 -123.5q0 -24 -5 -54l-53 -304h-131l52 303q4 21 4 34q0 91 -90 91q-56 0 -93.5 -39.5t-50.5 -115.5l-48 -273h-131l105 597h-68l8 46h68l16 89h131z"/>
<glyph glyph-name="Itilde" horiz-adv-x="306" unicode="Ĩ" d="M373 873l40 -20q-46 -96 -121 -96q-28 0 -64 21q-41 24 -61 24q-31 0 -54 -38l-40 20q45 95 120 95q27 0 66 -22q40 -23 59 -23q15 0 26.5 7.5t15 12t13.5 19.5zM294 700l-125 -700h-140l125 700h140z"/>
<glyph glyph-name="itilde" horiz-adv-x="282" unicode="ĩ" d="M321 698l40 -20q-46 -96 -121 -96q-28 0 -64 21q-41 24 -61 24q-31 0 -54 -38l-40 20q45 95 120 95q27 0 66 -22q40 -23 59 -23q15 0 26.5 7.5t15 12t13.5 19.5zM258 520l-91 -520h-131l74 427h-64l17 93h195z"/>
<glyph glyph-name="Imacron" horiz-adv-x="306" unicode="Ī" d="M400 852l-13 -75h-312l13 75h312zM294 700l-125 -700h-140l125 700h140z"/>
<glyph glyph-name="imacron" horiz-adv-x="282" unicode="ī" d="M348 677l-13 -75h-312l13 75h312zM258 520l-91 -520h-131l74 427h-64l17 93h195z"/>
<glyph glyph-name="Ibreve" horiz-adv-x="306" unicode="Ĭ" d="M315 873l72 -4q-16 -62 -54 -88.5t-103 -26.5q-124 0 -124 115l74 4q0 -55 56 -55q59 0 79 55zM294 700l-125 -700h-140l125 700h140z"/>
<glyph glyph-name="ibreve" horiz-adv-x="282" unicode="ĭ" d="M270 713l80 -7q-16 -65 -55 -96t-108 -31q-129 0 -132 127l79 7q0 -35 13 -52.5t47 -17.5q57 0 76 70zM258 520l-91 -520h-131l74 427h-64l17 93h195z"/>
<glyph glyph-name="Iogonek" horiz-adv-x="306" unicode="Į" d="M294 700l-125 -700q-59 -32 -59 -77q0 -33 33 -33q12 0 39 6l-3 -67q-32 -12 -68 -12q-81 0 -81 76q0 61 59 107h-60l125 700h140z"/>
<glyph glyph-name="iogonek" horiz-adv-x="282" unicode="į" d="M196 717q73 0 73 -56q0 -66 -73 -66q-70 0 -70 56q0 32 18.5 49t51.5 17zM258 520l-91 -520h-15q-59 -32 -59 -77q0 -33 33 -33q12 0 39 6l-3 -67q-32 -12 -68 -12q-81 0 -81 76q0 61 59 107h-36l74 427h-64l17 93h195z"/>
<glyph glyph-name="Idotaccent" horiz-adv-x="306" unicode="İ" d="M239 874q32 0 49 -16t15 -43q-2 -59 -64 -59q-29 0 -45.5 15t-16.5 40q0 29 16 46t46 17zM294 700l-125 -700h-140l125 700h140z"/>
<glyph glyph-name="dotlessi" horiz-adv-x="282" unicode="ı" d="M258 520l-91 -520h-131l74 427h-64l17 93h195z"/>
<glyph glyph-name="Jcircumflex" horiz-adv-x="580" unicode="Ĵ" d="M320 750l138 116h118l90 -116h-97l-56 73l-87 -73h-106zM570 700l-84 -477q-42 -235 -258 -235q-160 0 -217 131l89 69q44 -88 124 -88q100 0 123 126l83 474h140z"/>
<glyph glyph-name="jcircumflex" horiz-adv-x="298" unicode="ĵ" d="M269 719l87 -149h-97l-54 102l-91 -102h-104l140 149h119zM276 520l-97 -551q-15 -87 -56.5 -117t-113.5 -30h-70l19 106h30q31 0 43.5 12t18.5 46l78 441h-73l17 93h204z"/>
<glyph glyph-name="Kcommaaccent" horiz-adv-x="711" unicode="Ķ" d="M284 -45h93q-3 -14 -5.5 -25.5t-7.5 -23.5t-7.5 -19t-9.5 -19.5t-9 -16t-11 -18t-10 -16.5h-80q36 79 47 138zM753 700l-294 -275l181 -425h-165l-131 318l-140 -131l-34 -187h-140l123 700h140l-58 -334l353 334h165z"/>
<glyph glyph-name="kcommaaccent" horiz-adv-x="560" unicode="ķ" d="M210 -45h93q-3 -14 -5.5 -25.5t-7.5 -23.5t-7.5 -19t-9.5 -19.5t-9 -16t-11 -18t-10 -16.5h-80q36 79 47 138zM275 732l-79 -437l247 225h151l-222 -198l135 -322h-138l-95 234l-104 -93l-25 -141h-131l129 732h132z"/>
<glyph glyph-name="kgreenlandic" horiz-adv-x="559" unicode="ĸ" d="M594 520l-223 -199l135 -321h-140l-94 232l-102 -91l-25 -141h-131l92 520h131l-41 -225l247 225h151z"/>
<glyph glyph-name="Lacute" horiz-adv-x="583" unicode="Ĺ" d="M381 866l-111 -116h-97l86 116h122zM293 700l-104 -588h344l-20 -112h-484l124 700h140z"/>
<glyph glyph-name="lacute" horiz-adv-x="295" unicode="ĺ" d="M366 874l-111 -116h-97l86 116h122zM271 732l-105 -602q-1 -4 -1 -10q0 -27 36 -27q21 0 43 2l-13 -96q-56 -8 -93 -8q-56 0 -82.5 20.5t-26.5 66.5q0 21 4 42l107 612h131z"/>
<glyph glyph-name="Lcommaaccent" horiz-adv-x="583" unicode="Ļ" d="M234 -45h93q-3 -14 -5.5 -25.5t-7.5 -23.5t-7.5 -19t-9.5 -19.5t-9 -16t-11 -18t-10 -16.5h-80q36 79 47 138zM293 700l-104 -588h344l-20 -112h-484l124 700h140z"/>
<glyph glyph-name="lcommaaccent" horiz-adv-x="295" unicode="ļ" d="M67 -45h93q-3 -14 -5.5 -25.5t-7.5 -23.5t-7.5 -19t-9.5 -19.5t-9 -16t-11 -18t-10 -16.5h-80q36 79 47 138zM271 732l-105 -602q-1 -4 -1 -10q0 -27 36 -27q21 0 43 2l-13 -96q-56 -8 -93 -8q-56 0 -82.5 20.5t-26.5 66.5q0 21 4 42l107 612h131z"/>
<glyph glyph-name="Lcaron" horiz-adv-x="583" unicode="Ľ" d="M293 700l-104 -588h344l-20 -112h-484l124 700h140zM439 700h90q-13 -70 -54 -145h-64q2 8 12 60t16 85z"/>
<glyph glyph-name="lcaron" horiz-adv-x="298" unicode="ľ" d="M271 732l-105 -602q-1 -4 -1 -10q0 -27 36 -27q21 0 43 2l-13 -96q-56 -8 -93 -8q-56 0 -82.5 20.5t-26.5 66.5q0 21 4 42l107 612h131zM335 732h90q-13 -70 -54 -145h-64q2 8 12 60t16 85z"/>
<glyph glyph-name="Lslash" horiz-adv-x="583" unicode="Ł" d="M293 700l-52 -295l173 95l-12 -64l-173 -95l-40 -229h344l-20 -112h-484l45 255l-101 -55l11 64l102 56l67 380h140z"/>
<glyph glyph-name="lslash" horiz-adv-x="334" unicode="ł" d="M285 732l-57 -325l139 75l-10 -72l-142 -77l-35 -203q-1 -4 -1 -10q0 -27 36 -27q21 0 43 2l-13 -96q-56 -8 -93 -8q-56 0 -82.5 20.5t-26.5 66.5q0 21 4 42l23 135l-78 -42l12 72l79 43l71 404h131z"/>
<glyph glyph-name="Nacute" horiz-adv-x="765" unicode="Ń" d="M614 866l-111 -116h-97l86 116h122zM753 700l-124 -700h-146l-228 484l-86 -484h-140l124 700h146l230 -474l84 474h140z"/>
<glyph glyph-name="nacute" horiz-adv-x="603" unicode="ń" d="M512 731l-126 -148h-98l100 148h124zM392 529q85 0 125.5 -43.5t40.5 -116.5q0 -29 -6 -59l-54 -310h-131l54 309q3 17 3 33q0 86 -86 86q-60 0 -98 -42t-50 -113l-48 -273h-131l68 390l15 130h119l-8 -80q70 89 187 89z"/>
<glyph glyph-name="Ncommaaccent" horiz-adv-x="765" unicode="Ņ" d="M286 -45h93q-3 -14 -5.5 -25.5t-7.5 -23.5t-7.5 -19t-9.5 -19.5t-9 -16t-11 -18t-10 -16.5h-80q36 79 47 138zM753 700l-124 -700h-146l-228 484l-86 -484h-140l124 700h146l230 -474l84 474h140z"/>
<glyph glyph-name="ncommaaccent" horiz-adv-x="603" unicode="ņ" d="M207 -45h93q-3 -14 -5.5 -25.5t-7.5 -23.5t-7.5 -19t-9.5 -19.5t-9 -16t-11 -18t-10 -16.5h-80q36 79 47 138zM392 529q85 0 125.5 -43.5t40.5 -116.5q0 -29 -6 -59l-54 -310h-131l54 309q3 17 3 33q0 86 -86 86q-60 0 -98 -42t-50 -113l-48 -273h-131l68 390l15 130h119 l-8 -80q70 89 187 89z"/>
<glyph glyph-name="Ncaron" horiz-adv-x="765" unicode="Ň" d="M656 866l-138 -116h-118l-90 116h97l56 -73l87 73h106zM753 700l-124 -700h-146l-228 484l-86 -484h-140l124 700h146l230 -474l84 474h140z"/>
<glyph glyph-name="ncaron" horiz-adv-x="603" unicode="ň" d="M540 732l-139 -149h-119l-88 149h97l54 -101l91 101h104zM392 529q85 0 125.5 -43.5t40.5 -116.5q0 -29 -6 -59l-54 -310h-131l54 309q3 17 3 33q0 86 -86 86q-60 0 -98 -42t-50 -113l-48 -273h-131l68 390l15 130h119l-8 -80q70 89 187 89z"/>
<glyph glyph-name="Eng" horiz-adv-x="765" unicode="Ŋ" d="M753 700l-117 -665q-33 -186 -244 -213l-14 94q92 20 108 72l3 12l-233 496l-87 -496h-139l122 700h145l230 -485l87 485h139z"/>
<glyph glyph-name="eng" horiz-adv-x="603" unicode="ŋ" d="M392 529q85 0 125.5 -43.5t40.5 -116.5q0 -29 -6 -59l-54 -310l-1 -4q-26 -149 -236 -174l-9 86q102 20 112 77l57 324q3 17 3 33q0 86 -86 86q-60 0 -98 -42t-50 -113l-48 -273h-131l68 390l15 130h119l-8 -80q70 89 187 89z"/>
<glyph glyph-name="Omacron" horiz-adv-x="815" unicode="Ō" d="M625 852l-13 -75h-312l13 75h312zM447 600q-52 0 -94.5 -18.5t-69.5 -48.5t-45.5 -68.5t-26 -76.5t-8.5 -76v-5q0 -98 51.5 -152.5t138.5 -54.5q64 0 113.5 28t76.5 72.5t40 92.5t14 96v5q0 98 -51.5 152t-138.5 54zM450 712q155 0 245 -86.5t90 -233.5 q0 -53 -11.5 -105.5t-40.5 -107.5t-72.5 -96.5t-113.5 -68t-157 -26.5q-155 0 -245 86.5t-90 233.5q0 53 11.5 105.5t40.5 107.5t72.5 96.5t113.5 68t157 26.5z"/>
<glyph glyph-name="omacron" horiz-adv-x="620" unicode="ō" d="M511 677l-13 -75h-312l13 75h312zM323 429q-52 0 -88 -31.5t-51 -75.5t-15 -95q0 -65 33 -100t90 -35q76 0 115 60.5t39 140.5q0 65 -33 100.5t-90 35.5zM335 529q110 0 177.5 -63t67.5 -175q-1 -132 -80 -216t-220 -84q-110 0 -177.5 63t-67.5 175q0 132 79.5 216 t220.5 84z"/>
<glyph glyph-name="Obreve" horiz-adv-x="815" unicode="Ŏ" d="M554 873l72 -4q-16 -62 -54 -88.5t-103 -26.5q-124 0 -124 115l74 4q0 -55 56 -55q59 0 79 55zM447 600q-52 0 -94.5 -18.5t-69.5 -48.5t-45.5 -68.5t-26 -76.5t-8.5 -76v-5q0 -98 51.5 -152.5t138.5 -54.5q64 0 113.5 28t76.5 72.5t40 92.5t14 96v5q0 98 -51.5 152 t-138.5 54zM450 712q155 0 245 -86.5t90 -233.5q0 -53 -11.5 -105.5t-40.5 -107.5t-72.5 -96.5t-113.5 -68t-157 -26.5q-155 0 -245 86.5t-90 233.5q0 53 11.5 105.5t40.5 107.5t72.5 96.5t113.5 68t157 26.5z"/>
<glyph glyph-name="obreve" horiz-adv-x="620" unicode="ŏ" d="M435 713l80 -7q-16 -65 -55 -96t-108 -31q-129 0 -132 127l79 7q0 -35 13 -52.5t47 -17.5q57 0 76 70zM323 429q-52 0 -88 -31.5t-51 -75.5t-15 -95q0 -65 33 -100t90 -35q76 0 115 60.5t39 140.5q0 65 -33 100.5t-90 35.5zM335 529q110 0 177.5 -63t67.5 -175 q-1 -132 -80 -216t-220 -84q-110 0 -177.5 63t-67.5 175q0 132 79.5 216t220.5 84z"/>
<glyph glyph-name="Ohungarumlaut" horiz-adv-x="815" unicode="Ő" d="M515 866l-124 -116h-99l98 116h125zM694 866l-124 -116h-99l98 116h125zM447 600q-52 0 -94.5 -18.5t-69.5 -48.5t-45.5 -68.5t-26 -76.5t-8.5 -76v-5q0 -98 51.5 -152.5t138.5 -54.5q64 0 113.5 28t76.5 72.5t40 92.5t14 96v5q0 98 -51.5 152t-138.5 54zM450 712 q155 0 245 -86.5t90 -233.5q0 -53 -11.5 -105.5t-40.5 -107.5t-72.5 -96.5t-113.5 -68t-157 -26.5q-155 0 -245 86.5t-90 233.5q0 53 11.5 105.5t40.5 107.5t72.5 96.5t113.5 68t157 26.5z"/>
<glyph glyph-name="ohungarumlaut" horiz-adv-x="620" unicode="ő" d="M417 723l-131 -148h-97l102 148h126zM596 723l-131 -148h-97l102 148h126zM323 429q-52 0 -88 -31.5t-51 -75.5t-15 -95q0 -65 33 -100t90 -35q76 0 115 60.5t39 140.5q0 65 -33 100.5t-90 35.5zM335 529q110 0 177.5 -63t67.5 -175q-1 -132 -80 -216t-220 -84 q-110 0 -177.5 63t-67.5 175q0 132 79.5 216t220.5 84z"/>
<glyph glyph-name="OE" horiz-adv-x="1258" unicode="Œ" d="M447 600q-52 0 -94.5 -18.5t-69.5 -48.5t-45.5 -68.5t-26 -76.5t-8.5 -76v-5q0 -98 51.5 -152.5t139.5 -54.5q52 0 95 18.5t70 48.5t45.5 69t26 77t8.5 76v5q0 98 -52 152t-140 54zM1273 700l-19 -110h-371l-34 -193h320l-19 -110h-319l-33 -177h379l-19 -110h-519l17 99 q-97 -111 -266 -111q-155 0 -245 86.5t-90 233.5q0 53 11.5 105.5t40.5 107.5t72.5 96.5t113.5 68t157 26.5q103 0 177 -43t108 -121l27 152h511z"/>
<glyph glyph-name="oe" horiz-adv-x="1005" unicode="œ" d="M762 429q-61 0 -105.5 -36.5t-62.5 -93.5q41 -7 98 -7q153 0 154 76q0 61 -84 61zM323 429q-52 0 -88 -31.5t-51 -75.5t-15 -95q0 -65 33 -100t90 -35q76 0 115 60.5t39 140.5q0 65 -33 100.5t-90 35.5zM335 529q136 0 201 -90q92 90 236 90q91 0 148 -37t57 -118 q-1 -168 -269 -168q-74 0 -123 9q4 -62 43.5 -94.5t105.5 -32.5q88 0 166 41l26 -89q-84 -49 -217 -49q-144 0 -211 82q-82 -82 -218 -82q-110 0 -177.5 63t-67.5 175q0 132 79.5 216t220.5 84z"/>
<glyph glyph-name="Racute" horiz-adv-x="726" unicode="Ŕ" d="M557 866l-111 -116h-97l86 116h122zM249 378h201q56 0 90 33t34 79q0 43 -25.5 71.5t-73.5 28.5h-188zM721 494q0 -76 -49 -133.5t-132 -76.5l89 -284h-143l-74 268h-22h-160l-48 -268h-140l124 700h341q101 0 157.5 -59.5t56.5 -146.5z"/>
<glyph glyph-name="racute" horiz-adv-x="381" unicode="ŕ" d="M404 726l-126 -148h-98l100 148h124zM386 520l-29 -129q-20 2 -27 2q-63 0 -96.5 -43.5t-49.5 -130.5l-38 -219h-133l71 403l14 117h119l-10 -96q48 101 138 101q22 0 41 -5z"/>
<glyph glyph-name="Rcommaaccent" horiz-adv-x="727" unicode="Ŗ" d="M280 -45h93q-3 -14 -5.5 -25.5t-7.5 -23.5t-7.5 -19t-9.5 -19.5t-9 -16t-11 -18t-10 -16.5h-80q36 79 47 138zM249 378h201q56 0 90 33t34 79q0 43 -25.5 71.5t-73.5 28.5h-188zM721 494q0 -76 -49 -133.5t-132 -76.5l89 -284h-143l-74 268h-22h-160l-48 -268h-140 l124 700h341q101 0 157.5 -59.5t56.5 -146.5z"/>
<glyph glyph-name="rcommaaccent" horiz-adv-x="381" unicode="ŗ" d="M30 -45h93q-3 -14 -5.5 -25.5t-7.5 -23.5t-7.5 -19t-9.5 -19.5t-9 -16t-11 -18t-10 -16.5h-80q36 79 47 138zM386 520l-29 -129q-20 2 -27 2q-63 0 -96.5 -43.5t-49.5 -130.5l-38 -219h-133l71 403l14 117h119l-10 -96q48 101 138 101q22 0 41 -5z"/>
<glyph glyph-name="Rcaron" horiz-adv-x="727" unicode="Ř" d="M626 862l-138 -116h-118l-90 116h97l56 -73l87 73h106zM249 378h201q56 0 90 33t34 79q0 43 -25.5 71.5t-73.5 28.5h-188zM721 494q0 -76 -49 -133.5t-132 -76.5l89 -284h-143l-74 268h-22h-160l-48 -268h-140l124 700h341q101 0 157.5 -59.5t56.5 -146.5z"/>
<glyph glyph-name="rcaron" horiz-adv-x="381" unicode="ř" d="M432 727l-139 -149h-119l-88 149h97l54 -101l91 101h104zM386 520l-29 -129q-20 2 -27 2q-63 0 -96.5 -43.5t-49.5 -130.5l-38 -219h-133l71 403l14 117h119l-10 -96q48 101 138 101q22 0 41 -5z"/>
<glyph glyph-name="Sacute" horiz-adv-x="616" unicode="Ś" d="M534 866l-111 -116h-97l86 116h122zM362 712q119 0 257 -64l-46 -110q-120 62 -210 62q-126 0 -126 -84q0 -37 29 -57t101 -46q35 -13 51.5 -19.5t43.5 -19t40 -22t30.5 -25t25 -32t13.5 -39t6 -49.5q0 -108 -76.5 -163.5t-199.5 -55.5q-84 0 -165 24.5t-135 60.5l49 111 q138 -82 253 -82h5q51 0 86 20t35 61q0 36 -28.5 54.5t-103.5 44.5q-19 6 -29 10q-45 16 -70 28.5t-54 35t-42 55.5t-13 79q0 112 76 167t197 55z"/>
<glyph glyph-name="sacute" horiz-adv-x="500" unicode="ś" d="M461 731l-126 -148h-98l100 148h124zM276 529q24 0 50 -3.5t45.5 -8t40 -11.5t32 -11.5t24.5 -10.5l12 -5l-41 -86q-87 40 -153 40q-90 0 -90 -53q0 -16 11.5 -27.5t26.5 -17.5t44 -15q5 -1 7 -2q32 -11 49 -17t41.5 -19.5t37 -28t22 -38.5t9.5 -54q0 -85 -61.5 -127.5 t-157.5 -42.5q-127 0 -231 66l42 86q98 -56 181 -56q94 2 94 56q0 24 -21 37.5t-75 28.5q-23 7 -28.5 8.5t-27.5 10t-30.5 14.5t-24.5 18.5t-23 25.5t-13 33t-6 43q0 83 61 125t153 42z"/>
<glyph glyph-name="Scircumflex" horiz-adv-x="616" unicode="Ŝ" d="M207 750l138 116h118l90 -116h-97l-56 73l-87 -73h-106zM362 712q119 0 257 -64l-46 -110q-120 62 -210 62q-126 0 -126 -84q0 -37 29 -57t101 -46q35 -13 51.5 -19.5t43.5 -19t40 -22t30.5 -25t25 -32t13.5 -39t6 -49.5q0 -108 -76.5 -163.5t-199.5 -55.5 q-84 0 -165 24.5t-135 60.5l49 111q138 -82 253 -82h5q51 0 86 20t35 61q0 36 -28.5 54.5t-103.5 44.5q-19 6 -29 10q-45 16 -70 28.5t-54 35t-42 55.5t-13 79q0 112 76 167t197 55z"/>
<glyph glyph-name="scircumflex" horiz-adv-x="500" unicode="ŝ" d="M379 731l87 -149h-97l-54 102l-91 -102h-104l140 149h119zM276 529q24 0 50 -3.5t45.5 -8t40 -11.5t32 -11.5t24.5 -10.5l12 -5l-41 -86q-87 40 -153 40q-90 0 -90 -53q0 -16 11.5 -27.5t26.5 -17.5t44 -15q5 -1 7 -2q32 -11 49 -17t41.5 -19.5t37 -28t22 -38.5t9.5 -54 q0 -85 -61.5 -127.5t-157.5 -42.5q-127 0 -231 66l42 86q98 -56 181 -56q94 2 94 56q0 24 -21 37.5t-75 28.5q-23 7 -28.5 8.5t-27.5 10t-30.5 14.5t-24.5 18.5t-23 25.5t-13 33t-6 43q0 83 61 125t153 42z"/>
<glyph glyph-name="Scedilla" horiz-adv-x="616" unicode="Ş" d="M362 712q119 0 257 -64l-46 -110q-120 62 -210 62q-126 0 -126 -84q0 -37 29 -57t101 -46q35 -13 51.5 -19.5t43.5 -19t40 -22t30.5 -25t25 -32t13.5 -39t6 -49.5q0 -108 -76.5 -163.5t-199.5 -55.5h-5l-20 -42q27 0 49 -14t22 -51q0 -46 -36.5 -66.5t-87.5 -20.5 q-54 0 -89 15l14 50q29 -13 68 -13q51 0 51 30q0 24 -38 24q-8 0 -22 -2l-14 24l35 71q-136 18 -227 80l49 111q138 -82 253 -82h5q51 0 86 20t35 61q0 36 -28.5 54.5t-103.5 44.5q-19 6 -29 10q-45 16 -70 28.5t-54 35t-42 55.5t-13 79q0 112 76 167t197 55z"/>
<glyph glyph-name="scedilla" horiz-adv-x="500" unicode="ş" d="M276 529q24 0 50 -3.5t45.5 -8t40 -11.5t32 -11.5t24.5 -10.5l12 -5l-41 -86q-87 40 -153 40q-90 0 -90 -53q0 -16 11.5 -27.5t26.5 -17.5t44 -15q5 -1 7 -2q32 -11 49 -17t41.5 -19.5t37 -28t22 -38.5t9.5 -54q0 -85 -61.5 -127.5t-157.5 -42.5h-2l-22 -46q27 0 49 -14 t22 -51q0 -46 -36.5 -66.5t-87.5 -20.5q-54 0 -89 15l14 50q29 -13 68 -13q51 0 51 30q0 24 -38 24q-8 0 -22 -2l-14 24l37 76q-87 13 -161 60l42 86q98 -56 181 -56q94 2 94 56q0 24 -21 37.5t-75 28.5q-23 7 -28.5 8.5t-27.5 10t-30.5 14.5t-24.5 18.5t-23 25.5t-13 33 t-6 43q0 83 61 125t153 42z"/>
<glyph glyph-name="Scaron" horiz-adv-x="616" unicode="Š" d="M576 866l-138 -116h-118l-90 116h97l56 -73l87 73h106zM362 712q119 0 257 -64l-46 -110q-120 62 -210 62q-126 0 -126 -84q0 -37 29 -57t101 -46q35 -13 51.5 -19.5t43.5 -19t40 -22t30.5 -25t25 -32t13.5 -39t6 -49.5q0 -108 -76.5 -163.5t-199.5 -55.5 q-84 0 -165 24.5t-135 60.5l49 111q138 -82 253 -82h5q51 0 86 20t35 61q0 36 -28.5 54.5t-103.5 44.5q-19 6 -29 10q-45 16 -70 28.5t-54 35t-42 55.5t-13 79q0 112 76 167t197 55z"/>
<glyph glyph-name="scaron" horiz-adv-x="500" unicode="š" d="M491 731l-139 -149h-119l-88 149h97l54 -101l91 101h104zM276 529q24 0 50 -3.5t45.5 -8t40 -11.5t32 -11.5t24.5 -10.5l12 -5l-41 -86q-87 40 -153 40q-90 0 -90 -53q0 -16 11.5 -27.5t26.5 -17.5t44 -15q5 -1 7 -2q32 -11 49 -17t41.5 -19.5t37 -28t22 -38.5t9.5 -54 q0 -85 -61.5 -127.5t-157.5 -42.5q-127 0 -231 66l42 86q98 -56 181 -56q94 2 94 56q0 24 -21 37.5t-75 28.5q-23 7 -28.5 8.5t-27.5 10t-30.5 14.5t-24.5 18.5t-23 25.5t-13 33t-6 43q0 83 61 125t153 42z"/>
<glyph glyph-name="Tcommaaccent" horiz-adv-x="621" unicode="Ţ" d="M210 -45h93q-3 -14 -5.5 -25.5t-7.5 -23.5t-7.5 -19t-9.5 -19.5t-9 -16t-11 -18t-10 -16.5h-80q36 79 47 138zM684 700l-20 -110h-227l-105 -590h-140l105 590h-228l20 110h595z"/>
<glyph glyph-name="tcommaaccent" horiz-adv-x="400" unicode="ţ" d="M135 -45h93q-3 -14 -5.5 -25.5t-7.5 -23.5t-7.5 -19t-9.5 -19.5t-9 -16t-11 -18t-10 -16.5h-80q36 79 47 138zM286 671l-26 -151h143l-17 -93h-143l-48 -267q-3 -16 -3 -31q0 -43 55 -43q30 0 78 14l-9 -88q-45 -20 -126 -20q-73 0 -102.5 28t-29.5 78q0 18 6 58l48 271 h-71l16 93h72l46 151h111z"/>
<glyph glyph-name="Tcaron" horiz-adv-x="621" unicode="Ť" d="M591 866l-138 -116h-118l-90 116h97l56 -73l87 73h106zM684 700l-20 -110h-227l-105 -590h-140l105 590h-228l20 110h595z"/>
<glyph glyph-name="tcaron" horiz-adv-x="400" unicode="ť" d="M286 671l-26 -151h143l-17 -93h-143l-48 -267q-3 -16 -3 -31q0 -43 55 -43q30 0 78 14l-9 -88q-45 -20 -126 -20q-73 0 -102.5 28t-29.5 78q0 18 6 58l48 271h-71l16 93h72l46 151h111zM365 732h90q-13 -70 -54 -145h-64q2 8 12 60t16 85z"/>
<glyph glyph-name="Tbar" horiz-adv-x="621" unicode="Ŧ" d="M684 700l-20 -110h-227l-37 -208h142l-12 -63h-141l-57 -319h-140l57 319h-143l12 63h142l37 208h-228l20 110h595z"/>
<glyph glyph-name="tbar" horiz-adv-x="399" unicode="ŧ" d="M286 671l-26 -151h143l-17 -93h-143l-17 -93h135l-8 -46h-135l-23 -128q-3 -16 -3 -31q0 -43 55 -43q30 0 78 14l-9 -88q-45 -20 -126 -20q-73 0 -102.5 28t-29.5 78q0 18 6 58l23 132h-70l9 46h69l17 93h-71l16 93h72l46 151h111z"/>
<glyph glyph-name="Utilde" horiz-adv-x="741" unicode="Ũ" d="M585 873l40 -20q-46 -96 -121 -96q-28 0 -64 21q-41 24 -61 24q-31 0 -54 -38l-40 20q45 95 120 95q27 0 66 -22q40 -23 59 -23q15 0 26.5 7.5t15 12t13.5 19.5zM736 700l-79 -451q-22 -120 -99 -190.5t-214 -70.5q-73 0 -128.5 20t-85.5 54t-44.5 71.5t-14.5 77.5 q0 36 2 51l77 438h140l-76 -437q-3 -17 -3 -34q0 -57 34.5 -93t104.5 -36q72 0 112 37.5t51 99.5l83 463h140z"/>
<glyph glyph-name="utilde" horiz-adv-x="614" unicode="ũ" d="M491 706l40 -20q-46 -96 -121 -96q-28 0 -64 21q-41 24 -61 24q-31 0 -54 -38l-40 20q45 95 120 95q27 0 66 -22q40 -23 59 -23q15 0 26.5 7.5t15 12t13.5 19.5zM205 -9q-86 0 -126.5 43.5t-40.5 116.5q0 29 6 59l54 310h132l-54 -309q-3 -17 -3 -33q0 -86 87 -86 q59 0 97 42t50 113l48 273h131l-68 -390l-14 -130h-119l7 75q-69 -84 -187 -84z"/>
<glyph glyph-name="Umacron" horiz-adv-x="741" unicode="Ū" d="M619 852l-13 -75h-312l13 75h312zM736 700l-79 -451q-22 -120 -99 -190.5t-214 -70.5q-73 0 -128.5 20t-85.5 54t-44.5 71.5t-14.5 77.5q0 36 2 51l77 438h140l-76 -437q-3 -17 -3 -34q0 -57 34.5 -93t104.5 -36q72 0 112 37.5t51 99.5l83 463h140z"/>
<glyph glyph-name="umacron" horiz-adv-x="615" unicode="ū" d="M515 685l-13 -75h-312l13 75h312zM205 -9q-86 0 -126.5 43.5t-40.5 116.5q0 29 6 59l54 310h132l-54 -309q-3 -17 -3 -33q0 -86 87 -86q59 0 97 42t50 113l48 273h131l-68 -390l-14 -130h-119l7 75q-69 -84 -187 -84z"/>
<glyph glyph-name="Ubreve" horiz-adv-x="742" unicode="Ŭ" d="M538 873l72 -4q-16 -62 -54 -88.5t-103 -26.5q-124 0 -124 115l74 4q0 -55 56 -55q59 0 79 55zM736 700l-79 -451q-22 -120 -99 -190.5t-214 -70.5q-73 0 -128.5 20t-85.5 54t-44.5 71.5t-14.5 77.5q0 36 2 51l77 438h140l-76 -437q-3 -17 -3 -34q0 -57 34.5 -93 t104.5 -36q72 0 112 37.5t51 99.5l83 463h140z"/>
<glyph glyph-name="ubreve" horiz-adv-x="615" unicode="ŭ" d="M441 721l80 -7q-16 -65 -55 -96t-108 -31q-129 0 -132 127l79 7q0 -35 13 -52.5t47 -17.5q57 0 76 70zM205 -9q-86 0 -126.5 43.5t-40.5 116.5q0 29 6 59l54 310h132l-54 -309q-3 -17 -3 -33q0 -86 87 -86q59 0 97 42t50 113l48 273h131l-68 -390l-14 -130h-119l7 75 q-69 -84 -187 -84z"/>
<glyph glyph-name="Uring" horiz-adv-x="742" unicode="Ů" d="M468 904q-45 0 -50 -57v-8q0 -44 47 -44q20 0 34.5 14.5t16.5 43.5v6q0 45 -48 45zM469 956q48 0 80.5 -25t32.5 -73q0 -55 -34 -84.5t-84 -29.5q-47 0 -79.5 24.5t-32.5 72.5v7q3 53 35.5 80.5t81.5 27.5zM736 700l-79 -451q-22 -120 -99 -190.5t-214 -70.5 q-73 0 -128.5 20t-85.5 54t-44.5 71.5t-14.5 77.5q0 36 2 51l77 438h140l-76 -437q-3 -17 -3 -34q0 -57 34.5 -93t104.5 -36q72 0 112 37.5t51 99.5l83 463h140z"/>
<glyph glyph-name="uring" horiz-adv-x="615" unicode="ů" d="M371 737q-45 0 -50 -57v-8q0 -44 47 -44q20 0 34.5 14.5t16.5 43.5v6q0 45 -48 45zM372 789q48 0 80.5 -25t32.5 -73q0 -55 -34 -84.5t-84 -29.5q-47 0 -79.5 24.5t-32.5 72.5v7q3 53 35.5 80.5t81.5 27.5zM205 -9q-86 0 -126.5 43.5t-40.5 116.5q0 29 6 59l54 310h132 l-54 -309q-3 -17 -3 -33q0 -86 87 -86q59 0 97 42t50 113l48 273h131l-68 -390l-14 -130h-119l7 75q-69 -84 -187 -84z"/>
<glyph glyph-name="Uhungarumlaut" horiz-adv-x="741" unicode="Ű" d="M502 866l-124 -116h-99l98 116h125zM681 866l-124 -116h-99l98 116h125zM736 700l-79 -451q-22 -120 -99 -190.5t-214 -70.5q-73 0 -128.5 20t-85.5 54t-44.5 71.5t-14.5 77.5q0 36 2 51l77 438h140l-76 -437q-3 -17 -3 -34q0 -57 34.5 -93t104.5 -36q72 0 112 37.5 t51 99.5l83 463h140z"/>
<glyph glyph-name="uhungarumlaut" horiz-adv-x="615" unicode="ű" d="M608 731l-131 -148h-97l102 148h126zM429 731l-131 -148h-97l102 148h126zM205 -9q-86 0 -126.5 43.5t-40.5 116.5q0 29 6 59l54 310h132l-54 -309q-3 -17 -3 -33q0 -86 87 -86q59 0 97 42t50 113l48 273h131l-68 -390l-14 -130h-119l7 75q-69 -84 -187 -84z"/>
<glyph glyph-name="Uogonek" horiz-adv-x="742" unicode="Ų" d="M736 700l-79 -451q-39 -211 -225 -252q-41 -33 -41 -74q0 -33 31 -33q19 0 41 6l-3 -67q-34 -12 -68 -12q-81 0 -81 76q0 53 42 95h-9q-73 0 -128.5 20t-85.5 54t-44.5 71.5t-14.5 77.5q0 36 2 51l77 438h140l-76 -437q-3 -17 -3 -34q0 -57 34.5 -93t104.5 -36 q72 0 112 37.5t51 99.5l83 463h140z"/>
<glyph glyph-name="uogonek" horiz-adv-x="615" unicode="ų" d="M205 -9q-86 0 -126.5 43.5t-40.5 116.5q0 29 6 59l54 310h132l-54 -309q-3 -17 -3 -33q0 -86 87 -86q59 0 97 42t50 113l48 273h131l-68 -390l-14 -130h-2q-59 -32 -59 -77q0 -33 33 -33q12 0 39 6l-3 -67q-32 -12 -68 -12q-81 0 -81 76q0 61 59 107h-37l7 75 q-69 -84 -187 -84z"/>
<glyph glyph-name="Wcircumflex" horiz-adv-x="1000" unicode="Ŵ" d="M389 750l138 116h118l90 -116h-97l-56 73l-87 -73h-106zM1058 700l-316 -700h-175l-31 498l-208 -498h-174l-71 700h147l43 -534l217 531h158l32 -520l219 523h159z"/>
<glyph glyph-name="wcircumflex" horiz-adv-x="847" unicode="ŵ" d="M553 724l87 -149h-97l-54 102l-91 -102h-104l140 149h119zM869 520l-238 -520h-152l-46 341l-166 -341h-152l-54 520h128l32 -379l183 379h117l48 -372l158 371z"/>
<glyph glyph-name="Ycircumflex" horiz-adv-x="669" unicode="Ŷ" d="M232 750l138 116h118l90 -116h-97l-56 73l-87 -73h-106zM356 0h-140l48 272l-177 428h140l122 -315l234 315h150l-329 -429z"/>
<glyph glyph-name="ycircumflex" horiz-adv-x="582" unicode="ŷ" d="M414 724l87 -149h-97l-54 102l-91 -102h-104l140 149h119zM598 520l-294 -559q-42 -78 -89.5 -107t-116.5 -29q-65 0 -127 19l23 97q48 -14 80 -14q63 0 89 51l11 21l-120 521h135l77 -393l188 393h144z"/>
<glyph glyph-name="Ydieresis" horiz-adv-x="669" unicode="Ÿ" d="M530 874q32 0 49 -16t15 -43q-2 -59 -64 -59q-29 0 -45.5 15t-16.5 40q0 29 16 46t46 17zM298 874q31 0 48 -15.5t17 -41.5q0 -29 -17 -45t-48 -16q-29 0 -45.5 15t-16.5 40q0 29 16 46t46 17zM356 0h-140l48 272l-177 428h140l122 -315l234 315h150l-329 -429z"/>
<glyph glyph-name="Zacute" horiz-adv-x="636" unicode="Ź" d="M545 866l-111 -116h-97l86 116h122zM664 700l-15 -90l-456 -504l184 4h192l-20 -110h-566l16 91l459 502l-182 -3h-173l20 110h541z"/>
<glyph glyph-name="zacute" horiz-adv-x="532" unicode="ź" d="M470 731l-126 -148h-98l100 148h124zM531 520l-18 -103l-345 -328l184 4h114l-18 -93h-463l18 101l348 330l-180 -4h-102l18 93h444z"/>
<glyph glyph-name="Zdotaccent" horiz-adv-x="636" unicode="Ż" d="M402 874q32 0 49 -16t15 -43q-2 -59 -64 -59q-29 0 -45.5 15t-16.5 40q0 29 16 46t46 17zM664 700l-15 -90l-456 -504l184 4h192l-20 -110h-566l16 91l459 502l-182 -3h-173l20 110h541z"/>
<glyph glyph-name="zdotaccent" horiz-adv-x="532" unicode="ż" d="M310 705q72 0 72 -57q0 -66 -72 -66q-70 0 -70 58q0 31 18.5 48t51.5 17zM531 520l-18 -103l-345 -328l184 4h114l-18 -93h-463l18 101l348 330l-180 -4h-102l18 93h444z"/>
<glyph glyph-name="Zcaron" horiz-adv-x="636" unicode="Ž" d="M587 866l-138 -116h-118l-90 116h97l56 -73l87 73h106zM664 700l-15 -90l-456 -504l184 4h192l-20 -110h-566l16 91l459 502l-182 -3h-173l20 110h541z"/>
<glyph glyph-name="zcaron" horiz-adv-x="532" unicode="ž" d="M503 732l-139 -149h-119l-88 149h97l54 -101l91 101h104zM531 520l-18 -103l-345 -328l184 4h114l-18 -93h-463l18 101l348 330l-180 -4h-102l18 93h444z"/>
<glyph glyph-name="AEacute" horiz-adv-x="1044" unicode="Ǽ" d="M866 866l-111 -116h-97l86 116h122zM502 590l-203 -303h178l53 303h-28zM108 0h-159l488 700h624l-20 -110h-370l-35 -194h321l-20 -110h-320l-31 -176h379l-20 -110h-519l32 177h-232z"/>
<glyph glyph-name="aeacute" horiz-adv-x="919" unicode="ǽ" d="M647 731l-126 -148h-98l100 148h124zM235 83q102 0 134 81q-6 28 -6 61v2q-36 3 -74 3q-75 0 -109 -19.5t-34 -60.5q0 -67 89 -67zM605 292q153 0 154 76q0 61 -83 61q-62 0 -106.5 -36.5t-61.5 -93.5q51 -7 97 -7zM685 529q90 0 147.5 -36.5t57.5 -116.5 q-1 -170 -268 -170q-71 0 -124 11q4 -64 43.5 -96.5t106.5 -32.5q87 0 165 41l26 -89q-84 -49 -216 -49q-154 0 -220 93q-60 -93 -203 -93q-89 0 -138.5 38t-49.5 113q0 172 270 172q45 0 93 -3q8 34 28 68q-12 49 -105 49q-89 0 -194 -28l-1 99q115 30 237 30 q119 0 165 -47q77 47 180 47z"/>
<glyph glyph-name="Oslashacute" horiz-adv-x="815" unicode="Ǿ" d="M583 866l-111 -116h-97l86 116h122zM447 600q-52 0 -94.5 -18.5t-69.5 -48.5t-45.5 -68.5t-26 -76.5t-8.5 -76v-7q0 -76 32 -126l322 390q-46 31 -110 31zM637 389v6q0 75 -33 127l-324 -390q47 -32 113 -32q64 0 113.5 28t76.5 72.5t40 92.5t14 96zM450 712 q109 0 188 -45l55 66h86l-87 -105q93 -88 93 -237q0 -53 -11.5 -105.5t-40.5 -107t-72.5 -96t-113.5 -68t-157 -26.5q-111 0 -191 46l-59 -72h-85l92 111q-92 86 -92 236q0 53 11.5 105.5t40.5 107.5t72.5 96t113.5 67.5t157 26.5z"/>
<glyph glyph-name="oslashacute" horiz-adv-x="620" unicode="ǿ" d="M502 731l-126 -148h-98l100 148h124zM446 290q0 47 -16 78l-213 -255q30 -21 75 -21q75 0 113.5 59t40.5 139zM323 429q-75 0 -114 -60t-40 -139v-7q0 -45 17 -74l213 257q-31 23 -76 23zM335 529q79 0 138 -34l49 58h62l-72 -86q68 -65 68 -178q-1 -131 -80.5 -214.5 t-219.5 -83.5q-80 0 -137 33l-47 -57h-61l70 84q-70 64 -70 176q0 133 79 217.5t221 84.5z"/>
<glyph glyph-name="Scommaaccent" horiz-adv-x="616" unicode="Ș" d="M229 -44h93q-3 -14 -5.5 -25.5t-7.5 -23.5t-7.5 -19t-9.5 -19.5t-9 -16t-11 -18t-10 -16.5h-80q36 79 47 138zM362 712q119 0 257 -64l-46 -110q-120 62 -210 62q-126 0 -126 -84q0 -37 29 -57t101 -46q35 -13 51.5 -19.5t43.5 -19t40 -22t30.5 -25t25 -32t13.5 -39 t6 -49.5q0 -108 -76.5 -163.5t-199.5 -55.5q-84 0 -165 24.5t-135 60.5l49 111q138 -82 253 -82h5q51 0 86 20t35 61q0 36 -28.5 54.5t-103.5 44.5q-19 6 -29 10q-45 16 -70 28.5t-54 35t-42 55.5t-13 79q0 112 76 167t197 55z"/>
<glyph glyph-name="scommaaccent" horiz-adv-x="500" unicode="ș" d="M164 -45h93q-3 -14 -5.5 -25.5t-7.5 -23.5t-7.5 -19t-9.5 -19.5t-9 -16t-11 -18t-10 -16.5h-80q36 79 47 138zM276 529q24 0 50 -3.5t45.5 -8t40 -11.5t32 -11.5t24.5 -10.5l12 -5l-41 -86q-87 40 -153 40q-90 0 -90 -53q0 -16 11.5 -27.5t26.5 -17.5t44 -15q5 -1 7 -2 q32 -11 49 -17t41.5 -19.5t37 -28t22 -38.5t9.5 -54q0 -85 -61.5 -127.5t-157.5 -42.5q-127 0 -231 66l42 86q98 -56 181 -56q94 2 94 56q0 24 -21 37.5t-75 28.5q-23 7 -28.5 8.5t-27.5 10t-30.5 14.5t-24.5 18.5t-23 25.5t-13 33t-6 43q0 83 61 125t153 42z"/>
<glyph glyph-name="circumflex" horiz-adv-x="413" unicode="ˆ" d="M345 719l87 -149h-97l-54 102l-91 -102h-104l140 149h119z"/>
<glyph glyph-name="caron" horiz-adv-x="391" unicode="ˇ" d="M446 719l-139 -149h-119l-88 149h97l54 -101l91 101h104z"/>
<glyph glyph-name="breve" horiz-adv-x="346" unicode="˘" d="M313 708l80 -7q-16 -65 -55 -96t-108 -31q-129 0 -132 127l79 7q0 -35 13 -52.5t47 -17.5q57 0 76 70z"/>
<glyph glyph-name="dotaccent" horiz-adv-x="268" unicode="˙" d="M198 700q72 0 72 -57q0 -66 -72 -66q-70 0 -70 58q0 31 18.5 48t51.5 17z"/>
<glyph glyph-name="ring" horiz-adv-x="285" unicode="˚" d="M221 724q-45 0 -50 -57v-8q0 -44 47 -44q20 0 34.5 14.5t16.5 43.5v6q0 45 -48 45zM222 776q48 0 80.5 -25t32.5 -73q0 -55 -34 -84.5t-84 -29.5q-47 0 -79.5 24.5t-32.5 72.5v7q3 53 35.5 80.5t81.5 27.5z"/>
<glyph glyph-name="ogonek" horiz-adv-x="275" unicode="˛" d="M133 38l17 -38q-59 -32 -59 -77q0 -33 33 -33q12 0 39 6l-3 -67q-32 -12 -68 -12q-81 0 -81 76q0 29 14 55t36.5 44.5t38.5 28t33 17.5z"/>
<glyph glyph-name="tilde" horiz-adv-x="378" unicode="˜" d="M385 693l40 -20q-46 -96 -121 -96q-28 0 -64 21q-41 24 -61 24q-31 0 -54 -38l-40 20q45 95 120 95q27 0 66 -22q40 -23 59 -23q15 0 26.5 7.5t15 12t13.5 19.5z"/>
<glyph glyph-name="hungarumlaut" horiz-adv-x="440" unicode="˝" d="M310 718l-131 -148h-97l102 148h126zM489 718l-131 -148h-97l102 148h126z"/>
<glyph glyph-name="Wgrave" horiz-adv-x="1000" unicode="Ẁ" d="M589 866l46 -116h-91l-73 116h118zM1058 700l-316 -700h-175l-31 498l-208 -498h-174l-71 700h147l43 -534l217 531h158l32 -520l219 523h159z"/>
<glyph glyph-name="wgrave" horiz-adv-x="847" unicode="ẁ" d="M351 723h120l49 -148h-92zM869 520l-238 -520h-152l-46 341l-166 -341h-152l-54 520h128l32 -379l183 379h117l48 -372l158 371z"/>
<glyph glyph-name="Wacute" horiz-adv-x="1000" unicode="Ẃ" d="M716 866l-111 -116h-97l86 116h122zM1058 700l-316 -700h-175l-31 498l-208 -498h-174l-71 700h147l43 -534l217 531h158l32 -520l219 523h159z"/>
<glyph glyph-name="wacute" horiz-adv-x="847" unicode="ẃ" d="M637 731l-126 -148h-98l100 148h124zM869 520l-238 -520h-152l-46 341l-166 -341h-152l-54 520h128l32 -379l183 379h117l48 -372l158 371z"/>
<glyph glyph-name="Wdieresis" horiz-adv-x="1000" unicode="Ẅ" d="M696 874q32 0 49 -16t15 -43q-2 -59 -64 -59q-29 0 -45.5 15t-16.5 40q0 29 16 46t46 17zM464 874q31 0 48 -15.5t17 -41.5q0 -29 -17 -45t-48 -16q-29 0 -45.5 15t-16.5 40q0 29 16 46t46 17zM1058 700l-316 -700h-175l-31 498l-208 -498h-174l-71 700h147l43 -534 l217 531h158l32 -520l219 523h159z"/>
<glyph glyph-name="wdieresis" horiz-adv-x="847" unicode="ẅ" d="M587 705q33 0 50.5 -16t17.5 -43q0 -30 -18 -47t-50 -17q-30 0 -47.5 15.5t-17.5 42.5q0 30 17.5 47.5t47.5 17.5zM355 705q33 0 50.5 -16t17.5 -43q0 -31 -18 -47.5t-50 -16.5q-30 0 -47.5 15.5t-17.5 42.5q0 30 17.5 47.5t47.5 17.5zM869 520l-238 -520h-152l-46 341 l-166 -341h-152l-54 520h128l32 -379l183 379h117l48 -372l158 371z"/>
<glyph glyph-name="germandbls.case" horiz-adv-x="769" unicode="ẞ" d="M408 713h12q80 0 159 -27t141 -77q-11 -15 -40 -52t-44 -58t-29 -50.5t-14 -51.5q0 -20 11.5 -38.5t27.5 -35t32 -34.5t27.5 -46t11.5 -62q-1 -103 -69 -152t-178 -49q-69 0 -182 32l24 104q85 -33 150 -33q57 0 89.5 25.5t32.5 74.5q0 22 -16.5 46t-36 43t-36 47.5 t-16.5 59.5q0 13 3 26.5t6 24t11 25t12 22.5t16 24.5t16 21.5t18 23.5t17 21.5q-28 19 -70 28.5t-76 9.5q-144 0 -173 -165l-78 -441h-139l77 439q22 133 104 202.5t199 71.5z"/>
<glyph glyph-name="Ygrave" horiz-adv-x="669" unicode="Ỳ" d="M432 866l46 -116h-91l-73 116h118zM356 0h-140l48 272l-177 428h140l122 -315l234 315h150l-329 -429z"/>
<glyph glyph-name="ygrave" horiz-adv-x="582" unicode="ỳ" d="M211 723h120l49 -148h-92zM598 520l-294 -559q-42 -78 -89.5 -107t-116.5 -29q-65 0 -127 19l23 97q48 -14 80 -14q63 0 89 51l11 21l-120 521h135l77 -393l188 393h144z"/>
<glyph glyph-name="endash" horiz-adv-x="710" unicode="–" d="M644 314l-17 -97l-578 -1l18 98h577z"/>
<glyph glyph-name="emdash" horiz-adv-x="919" unicode="—" d="M853 314l-17 -98h-787l18 98h786z"/>
<glyph glyph-name="quoteleft" horiz-adv-x="270" unicode="‘" d="M183 443q-36 0 -56.5 24t-20.5 63q0 56 41 99.5t99 64.5l27 -35q-33 -12 -61 -40t-31 -64q12 7 27 7q50 0 50 -50q0 -32 -21 -50.5t-54 -18.5z"/>
<glyph glyph-name="quoteright" horiz-adv-x="269" unicode="’" d="M196 693q36 0 56 -24t20 -63q0 -56 -41 -100t-99 -64l-27 36q33 12 60 39t31 64q-8 -7 -26 -7q-49 0 -49 51q0 31 21 49.5t54 18.5z"/>
<glyph glyph-name="quotesinglbase" horiz-adv-x="268" unicode="‚" d="M95 125q36 0 56 -24t20 -62q0 -56 -41 -100.5t-99 -64.5l-27 36q33 14 60 40t31 63q-8 -7 -26 -7q-23 0 -36 13t-13 37q0 32 20.5 50.5t54.5 18.5z"/>
<glyph glyph-name="quotedblleft" horiz-adv-x="482" unicode="“" d="M395 443q-36 0 -56.5 24t-20.5 63q0 56 41 99.5t99 64.5l27 -35q-33 -12 -61 -40t-31 -64q12 7 27 7q50 0 50 -50q0 -32 -21 -50.5t-54 -18.5zM183 443q-36 0 -56.5 24t-20.5 63q0 56 41 99.5t99 64.5l27 -35q-33 -12 -61 -40t-31 -64q12 7 27 7q50 0 50 -50 q0 -32 -21 -50.5t-54 -18.5z"/>
<glyph glyph-name="quotedblright" horiz-adv-x="482" unicode="”" d="M409 693q36 0 56 -24t20 -63q0 -56 -41 -100t-99 -64l-27 36q33 13 60.5 39.5t30.5 63.5q-8 -7 -26 -7q-49 0 -49 51q0 31 21 49.5t54 18.5zM196 693q36 0 56 -24t20 -63q0 -56 -41 -100t-99 -64l-27 36q33 13 60.5 39.5t30.5 63.5q-8 -7 -26 -7q-49 0 -49 51 q0 31 21 49.5t54 18.5z"/>
<glyph glyph-name="quotedblbase" horiz-adv-x="482" unicode="„" d="M96 125q36 0 56 -24t20 -62q0 -56 -41 -100.5t-99 -64.5l-27 36q33 12 60.5 39.5t30.5 63.5q-8 -7 -26 -7q-23 0 -36 13t-13 37q0 32 20.5 50.5t54.5 18.5zM308 125q36 0 56 -24t20 -62q0 -56 -41 -100.5t-99 -64.5l-27 36q33 12 60.5 39.5t30.5 63.5q-8 -7 -26 -7 q-23 0 -36 13t-13 37q0 32 20.5 50.5t54.5 18.5z"/>
<glyph glyph-name="dagger" horiz-adv-x="612" unicode="†" d="M621 550l-16 -89l-167 14l10 58zM92 550l166 -17l-10 -58l-172 -14zM439 701l-137 -701h-80l108 701h109z"/>
<glyph glyph-name="daggerdbl" horiz-adv-x="611" unicode="‡" d="M620 550l-16 -89l-167 14l10 58zM91 550l166 -17l-10 -58l-172 -14zM575 296l-16 -91l-166 17l10 57zM46 296l167 -17l-10 -57l-173 -17zM439 701l-137 -701h-80l108 701h109z"/>
<glyph glyph-name="bullet" horiz-adv-x="426" unicode="•" d="M234 461q49 0 80.5 -27t31.5 -76q0 -2 -0.5 -6.5t-0.5 -7.5q-4 -56 -39 -86.5t-92 -30.5q-49 0 -80.5 28t-31.5 77v12q4 56 39 86.5t93 30.5z"/>
<glyph glyph-name="ellipsis" horiz-adv-x="716" unicode="…" d="M555 118q30 0 49 -15.5t19 -41.5v-7q-6 -67 -69 -67q-29 0 -48 14.5t-19 42.5q0 2 0.5 5t0.5 4q2 30 19.5 47.5t47.5 17.5zM321 118q30 0 49 -15.5t19 -41.5v-7q-6 -67 -69 -67q-29 0 -48 14.5t-19 42.5q0 2 0.5 5t0.5 4q2 30 19.5 47.5t47.5 17.5zM90 118q30 0 49 -15.5 t19 -41.5v-7q-6 -67 -69 -67q-29 0 -48 14.5t-19 42.5q0 2 0.5 5t0.5 4q2 30 19.5 47.5t47.5 17.5z"/>
<glyph glyph-name="perthousand" horiz-adv-x="1262" unicode="‰" d="M1061 326q65 0 104 -37t39 -101q0 -97 -50 -148t-141 -51q-65 0 -104.5 37t-39.5 101q0 96 50.5 147.5t141.5 51.5zM1046 242q-36 0 -56.5 -27t-20.5 -76q0 -67 60 -67q35 0 55.5 26.5t20.5 75.5q0 68 -59 68zM673 326q65 0 104 -37t39 -101q0 -97 -50 -148t-141 -51 q-65 0 -104.5 37t-39.5 101q0 96 50.5 147.5t141.5 51.5zM658 242q-36 0 -56.5 -27t-20.5 -76q0 -67 60 -67q35 0 55.5 26.5t20.5 75.5q0 68 -59 68zM276 713q65 0 104 -37t39 -102q0 -96 -50 -147t-141 -51q-65 0 -104.5 37t-39.5 101q0 96 50.5 147.5t141.5 51.5zM261 628 q-36 0 -56.5 -27t-20.5 -76q0 -67 60 -67q35 0 55.5 27t20.5 76q0 67 -59 67zM765 701l-524 -701h-105l527 701h102z"/>
<glyph glyph-name="guilsinglleft" horiz-adv-x="369" unicode="‹" d="M355 444l-184 -194l110 -186l-79 -57l-171 239l5 28l255 239z"/>
<glyph glyph-name="guilsinglright" horiz-adv-x="369" unicode="›" d="M0 76l183 193l-109 187l79 57l171 -239l-5 -28l-256 -239z"/>
<glyph glyph-name="fraction" horiz-adv-x="422" unicode="⁄" d="M486 701l-422 -701h-107l422 701h107z"/>
<glyph glyph-name="Euro" horiz-adv-x="789" unicode="€" d="M555 311l-25 -62h-236q19 -67 70.5 -107t136.5 -40q88 0 166 39l-8 -114q-83 -39 -187 -39q-143 0 -227.5 73.5t-106.5 187.5h-94l25 62h62v13q0 32 4 59h-85l30 62h69q37 118 138 192.5t254 74.5q123 0 212 -58l-50 -96q-73 42 -154 42q-93 0 -154.5 -42.5t-90.5 -112.5 h305l-30 -62h-292q-4 -23 -4 -51v-21h272z"/>
<glyph glyph-name="trademark" horiz-adv-x="793" unicode="™" d="M418 700l-11 -60h-110l-45 -253h-67l44 253h-106l11 60h284zM795 700l-55 -313h-66l32 183l-98 -148h-47l-50 148l-33 -183h-66l55 313h66l64 -203l132 203h66z"/>
<glyph glyph-name="commaaccentcomb" horiz-adv-x="0" unicode="" d="M-232 -45h93q-3 -14 -5.5 -25.5t-7.5 -23.5t-7.5 -19t-9.5 -19.5t-9 -16t-11 -18t-10 -16.5h-80q36 79 47 138z"/>
<glyph glyph-name="apple" horiz-adv-x="1392" unicode="" d="M566 327q-14 0 -14 -20h25q4 20 -11 20zM869 328q-14 0 -14 -20h25q4 20 -11 20zM1172 326q-10 0 -10 -25q0 -27 10 -27q9 0 9 27q0 25 -9 25zM1022 320q-7 0 -14 -7v-37q7 -5 12 -5q15 0 15 25q0 24 -13 24zM414 320q-7 0 -14 -7v-37q7 -5 12 -5q15 0 15 25q0 24 -13 24 zM713 322q-17 0 -17 -25q0 -26 12 -26q8 0 15 7v41q-6 3 -10 3zM134 400v-44h29v-37h-29v-19q0 -17 16 -17q9 0 15 2l1 -37q-18 -8 -41 -8q-28 0 -40.5 11.5t-12.5 40.5v27h-23v37h23l8 44h54zM1331 400v-44h28v-37h-28v-19q0 -17 15 -17q9 0 15 2l1 -37q-18 -8 -40 -8 q-29 0 -41.5 11.5t-12.5 40.5v27h-22v37h22l8 44h55zM869 361q61 0 61 -46q0 -17 -1 -26h-73q3 -17 29 -17q23 0 40 5v-29q-27 -10 -53 -10q-73 0 -73 61q0 62 70 62zM566 360q61 0 61 -46q0 -17 -1 -26h-73q3 -17 29 -17q24 0 40 5v-29q-25 -10 -53 -10q-73 0 -73 61 q0 62 70 62zM1171 360h1q68 0 68 -61q0 -62 -67 -62h-2q-35 0 -51 15t-16 47t16 46.5t51 14.5zM1046 360q21 0 33.5 -15.5t12.5 -44.5q0 -63 -50 -63q-20 0 -33 11v-60h-64v168h53l4 -13q19 17 44 17zM438 360q21 0 33.5 -15.5t12.5 -44.5q0 -63 -50 -63q-20 0 -33 11v-60 h-64v168h53l4 -13q19 17 44 17zM786 409v-168h-58l-3 11q-18 -15 -37 -15q-49 0 -49 62q0 61 51 61q16 0 32 -10v59h64zM320 356v-108q0 -34 -16.5 -49.5t-53.5 -15.5q-42 0 -62 12l6 32q20 -7 36 -7q28 0 28 16v10q-15 -9 -32 -9q-45 0 -45 49v70h63v-80q0 -12 14 -6v86h62 z"/>
<glyph glyph-name="f_i" horiz-adv-x="610" unicode="ﬁ" d="M377 741q104 0 178 -48l-43 -80q-5 4 -19 10.5t-44 15t-60 8.5q-95 0 -112 -90l-7 -37h316l-91 -520h-132l75 427h-184l-95 -537h-131l94 537h-85l17 93h85l6 34q15 90 77.5 138.5t154.5 48.5z"/>
<glyph glyph-name="f_l" horiz-adv-x="640" unicode="ﬂ" d="M546 93q21 0 43 2l-13 -96q-56 -8 -93 -8q-57 0 -84.5 20.5t-27.5 67.5q0 21 4 41l73 413q3 16 3 30q0 79 -81 79q-38 0 -66 -24t-37 -71l-5 -27h109l-16 -93h-109l-95 -537h-131l95 537h-78l16 93h78l3 17q16 94 78 149t165 55q91 0 147.5 -44.5t56.5 -138.5 q0 -30 -6 -64l-64 -364q-1 -4 -1 -10q0 -27 36 -27z"/>
<glyph glyph-name="J.alt" d="M350 700l-105 -596q-33 -184 -265 -244l-30 92q60 22 88 45q55 45 69 123l83 470h-72l19 110h213z" horiz-adv-x="358"/>
<glyph glyph-name="Jcircumflex.alt" d="M87 750l138 116h118l90 -116h-97l-56 73l-87 -73h-106zM350 700l-105 -596q-33 -184 -265 -244l-30 92q60 22 88 45q55 45 69 123l83 470h-72l19 110h213z" horiz-adv-x="358"/>
<glyph glyph-name="a.alt" d="M229 84q55 0 96 26.5t50 74.5l7 40q-45 5 -94 5q-142 0 -142 -78q0 -68 83 -68zM344 529q95 0 145 -32.5t50 -109.5q0 -25 -6 -55l-36 -198q-1 -4 -1 -11q0 -23 26 -23q11 0 32 3l-12 -90q-44 -17 -93 -17q-84 0 -86 60q-65 -65 -188 -65q-74 0 -119 38t-44 111 q0 174 273 174q40 0 112 -6l6 29q2 8 2 22q0 69 -104 69q-92 0 -197 -28l-1 99q115 30 241 30z" horiz-adv-x="606"/>
<glyph glyph-name="aacute.alt" d="M483 731l-126 -148h-98l100 148h124zM229 84q55 0 96 26.5t50 74.5l7 40q-45 5 -94 5q-142 0 -142 -78q0 -68 83 -68zM344 529q95 0 145 -32.5t50 -109.5q0 -25 -6 -55l-36 -198q-1 -4 -1 -11q0 -23 26 -23q11 0 32 3l-12 -90q-44 -17 -93 -17q-84 0 -86 60 q-65 -65 -188 -65q-74 0 -119 38t-44 111q0 174 273 174q40 0 112 -6l6 29q2 8 2 22q0 69 -104 69q-92 0 -197 -28l-1 99q115 30 241 30z" horiz-adv-x="606"/>
<glyph glyph-name="abreve.alt" d="M440 713l80 -7q-16 -65 -55 -96t-108 -31q-129 0 -132 127l79 7q0 -35 13 -52.5t47 -17.5q57 0 76 70zM229 84q55 0 96 26.5t50 74.5l7 40q-45 5 -94 5q-142 0 -142 -78q0 -68 83 -68zM344 529q95 0 145 -32.5t50 -109.5q0 -25 -6 -55l-36 -198q-1 -4 -1 -11 q0 -23 26 -23q11 0 32 3l-12 -90q-44 -17 -93 -17q-84 0 -86 60q-65 -65 -188 -65q-74 0 -119 38t-44 111q0 174 273 174q40 0 112 -6l6 29q2 8 2 22q0 69 -104 69q-92 0 -197 -28l-1 99q115 30 241 30z" horiz-adv-x="606"/>
<glyph glyph-name="acircumflex.alt" d="M399 724l87 -149h-97l-54 102l-91 -102h-104l140 149h119zM229 84q55 0 96 26.5t50 74.5l7 40q-45 5 -94 5q-142 0 -142 -78q0 -68 83 -68zM344 529q95 0 145 -32.5t50 -109.5q0 -25 -6 -55l-36 -198q-1 -4 -1 -11q0 -23 26 -23q11 0 32 3l-12 -90q-44 -17 -93 -17 q-84 0 -86 60q-65 -65 -188 -65q-74 0 -119 38t-44 111q0 174 273 174q40 0 112 -6l6 29q2 8 2 22q0 69 -104 69q-92 0 -197 -28l-1 99q115 30 241 30z" horiz-adv-x="606"/>
<glyph glyph-name="adieresis.alt" d="M447 705q33 0 50.5 -16t17.5 -43q0 -30 -18 -47t-50 -17q-30 0 -47.5 15.5t-17.5 42.5q0 30 17.5 47.5t47.5 17.5zM215 705q33 0 50.5 -16t17.5 -43q0 -31 -18 -47.5t-50 -16.5q-30 0 -47.5 15.5t-17.5 42.5q0 30 17.5 47.5t47.5 17.5zM229 84q55 0 96 26.5t50 74.5l7 40 q-45 5 -94 5q-142 0 -142 -78q0 -68 83 -68zM344 529q95 0 145 -32.5t50 -109.5q0 -25 -6 -55l-36 -198q-1 -4 -1 -11q0 -23 26 -23q11 0 32 3l-12 -90q-44 -17 -93 -17q-84 0 -86 60q-65 -65 -188 -65q-74 0 -119 38t-44 111q0 174 273 174q40 0 112 -6l6 29q2 8 2 22 q0 69 -104 69q-92 0 -197 -28l-1 99q115 30 241 30z" horiz-adv-x="606"/>
<glyph glyph-name="agrave.alt" d="M219 723h120l49 -148h-92zM229 84q55 0 96 26.5t50 74.5l7 40q-45 5 -94 5q-142 0 -142 -78q0 -68 83 -68zM344 529q95 0 145 -32.5t50 -109.5q0 -25 -6 -55l-36 -198q-1 -4 -1 -11q0 -23 26 -23q11 0 32 3l-12 -90q-44 -17 -93 -17q-84 0 -86 60q-65 -65 -188 -65 q-74 0 -119 38t-44 111q0 174 273 174q40 0 112 -6l6 29q2 8 2 22q0 69 -104 69q-92 0 -197 -28l-1 99q115 30 241 30z" horiz-adv-x="606"/>
<glyph glyph-name="amacron.alt" d="M527 677l-13 -75h-312l13 75h312zM229 84q55 0 96 26.5t50 74.5l7 40q-45 5 -94 5q-142 0 -142 -78q0 -68 83 -68zM344 529q95 0 145 -32.5t50 -109.5q0 -25 -6 -55l-36 -198q-1 -4 -1 -11q0 -23 26 -23q11 0 32 3l-12 -90q-44 -17 -93 -17q-84 0 -86 60 q-65 -65 -188 -65q-74 0 -119 38t-44 111q0 174 273 174q40 0 112 -6l6 29q2 8 2 22q0 69 -104 69q-92 0 -197 -28l-1 99q115 30 241 30z" horiz-adv-x="606"/>
<glyph glyph-name="aogonek.alt" d="M229 84q55 0 96 26.5t50 74.5l7 40q-45 5 -94 5q-142 0 -142 -78q0 -68 83 -68zM344 529q95 0 145 -32.5t50 -109.5q0 -25 -6 -55l-36 -198q-1 -4 -1 -11q0 -23 26 -23q11 0 32 3l-12 -90q-23 -10 -56 -14q-57 -31 -57 -76q0 -33 33 -33q12 0 39 6l-3 -67 q-32 -12 -68 -12q-81 0 -81 76q0 62 60 108q-44 13 -46 55q-65 -65 -188 -65q-74 0 -119 38t-44 111q0 174 273 174q40 0 112 -6l6 29q2 8 2 22q0 69 -104 69q-92 0 -197 -28l-1 99q115 30 241 30z" horiz-adv-x="606"/>
<glyph glyph-name="aring.alt" d="M390 729q-45 0 -50 -57v-8q0 -44 47 -44q20 0 34.5 14.5t16.5 43.5v6q0 45 -48 45zM229 84q55 0 96 26.5t50 74.5l7 40q-45 5 -94 5q-142 0 -142 -78q0 -68 83 -68zM391 781q48 0 80.5 -25t32.5 -73q0 -55 -34 -84.5t-84 -29.5q-47 0 -79.5 24.5t-32.5 72.5v7 q3 53 35.5 80.5t81.5 27.5zM344 529q95 0 145 -32.5t50 -109.5q0 -25 -6 -55l-36 -198q-1 -4 -1 -11q0 -23 26 -23q11 0 32 3l-12 -90q-44 -17 -93 -17q-84 0 -86 60q-65 -65 -188 -65q-74 0 -119 38t-44 111q0 174 273 174q40 0 112 -6l6 29q2 8 2 22q0 69 -104 69 q-92 0 -197 -28l-1 99q115 30 241 30z" horiz-adv-x="606"/>
<glyph glyph-name="atilde.alt" d="M496 698l40 -20q-46 -96 -121 -96q-28 0 -64 21q-41 24 -61 24q-31 0 -54 -38l-40 20q45 95 120 95q27 0 66 -22q40 -23 59 -23q15 0 26.5 7.5t15 12t13.5 19.5zM229 84q55 0 96 26.5t50 74.5l7 40q-45 5 -94 5q-142 0 -142 -78q0 -68 83 -68zM344 529q95 0 145 -32.5 t50 -109.5q0 -25 -6 -55l-36 -198q-1 -4 -1 -11q0 -23 26 -23q11 0 32 3l-12 -90q-44 -17 -93 -17q-84 0 -86 60q-65 -65 -188 -65q-74 0 -119 38t-44 111q0 174 273 174q40 0 112 -6l6 29q2 8 2 22q0 69 -104 69q-92 0 -197 -28l-1 99q115 30 241 30z" horiz-adv-x="606"/>
<glyph glyph-name="e.alt" d="M326 429q-54 0 -92.5 -35t-54.5 -91h255q2 8 2 24q0 45 -28 73.5t-82 28.5zM330 529q103 0 164.5 -59.5t61.5 -162.5q0 -39 -14 -89h-371q11 -124 153 -127q88 0 173 41l14 -93q-38 -21 -97 -34.5t-109 -13.5q-120 0 -194.5 63t-74.5 189q0 130 87.5 208t206.5 78z" horiz-adv-x="594"/>
<glyph glyph-name="eacute.alt" d="M492 731l-126 -148h-98l100 148h124zM326 429q-54 0 -92.5 -35t-54.5 -91h255q2 8 2 24q0 45 -28 73.5t-82 28.5zM330 529q103 0 164.5 -59.5t61.5 -162.5q0 -39 -14 -89h-371q11 -124 153 -127q88 0 173 41l14 -93q-38 -21 -97 -34.5t-109 -13.5q-120 0 -194.5 63 t-74.5 189q0 130 87.5 208t206.5 78z" horiz-adv-x="594"/>
<glyph glyph-name="ebreve.alt" d="M427 713l80 -7q-16 -65 -55 -96t-108 -31q-129 0 -132 127l79 7q0 -35 13 -52.5t47 -17.5q57 0 76 70zM326 429q-54 0 -92.5 -35t-54.5 -91h255q2 8 2 24q0 45 -28 73.5t-82 28.5zM330 529q103 0 164.5 -59.5t61.5 -162.5q0 -39 -14 -89h-371q11 -124 153 -127 q88 0 173 41l14 -93q-38 -21 -97 -34.5t-109 -13.5q-120 0 -194.5 63t-74.5 189q0 130 87.5 208t206.5 78z" horiz-adv-x="594"/>
<glyph glyph-name="ecaron.alt" d="M326 429q-54 0 -92.5 -35t-54.5 -91h255q2 8 2 24q0 45 -28 73.5t-82 28.5zM538 724l-139 -149h-119l-88 149h97l54 -101l91 101h104zM330 529q103 0 164.5 -59.5t61.5 -162.5q0 -39 -14 -89h-371q11 -124 153 -127q88 0 173 41l14 -93q-38 -21 -97 -34.5t-109 -13.5 q-120 0 -194.5 63t-74.5 189q0 130 87.5 208t206.5 78z" horiz-adv-x="594"/>
<glyph glyph-name="ecircumflex.alt" d="M326 429q-54 0 -92.5 -35t-54.5 -91h255q2 8 2 24q0 45 -28 73.5t-82 28.5zM419 724l87 -149h-97l-54 102l-91 -102h-104l140 149h119zM330 529q103 0 164.5 -59.5t61.5 -162.5q0 -39 -14 -89h-371q11 -124 153 -127q88 0 173 41l14 -93q-38 -21 -97 -34.5t-109 -13.5 q-120 0 -194.5 63t-74.5 189q0 130 87.5 208t206.5 78z" horiz-adv-x="594"/>
<glyph glyph-name="edieresis.alt" d="M443 705q33 0 50.5 -16t17.5 -43q0 -30 -18 -47t-50 -17q-30 0 -47.5 15.5t-17.5 42.5q0 30 17.5 47.5t47.5 17.5zM211 705q33 0 50.5 -16t17.5 -43q0 -31 -18 -47.5t-50 -16.5q-30 0 -47.5 15.5t-17.5 42.5q0 30 17.5 47.5t47.5 17.5zM326 429q-54 0 -92.5 -35 t-54.5 -91h255q2 8 2 24q0 45 -28 73.5t-82 28.5zM330 529q103 0 164.5 -59.5t61.5 -162.5q0 -39 -14 -89h-371q11 -124 153 -127q88 0 173 41l14 -93q-38 -21 -97 -34.5t-109 -13.5q-120 0 -194.5 63t-74.5 189q0 130 87.5 208t206.5 78z" horiz-adv-x="594"/>
<glyph glyph-name="edotaccent.alt" d="M341 705q72 0 72 -57q0 -66 -72 -66q-70 0 -70 58q0 31 18.5 48t51.5 17zM326 429q-54 0 -92.5 -35t-54.5 -91h255q2 8 2 24q0 45 -28 73.5t-82 28.5zM330 529q103 0 164.5 -59.5t61.5 -162.5q0 -39 -14 -89h-371q11 -124 153 -127q88 0 173 41l14 -93q-38 -21 -97 -34.5 t-109 -13.5q-120 0 -194.5 63t-74.5 189q0 130 87.5 208t206.5 78z" horiz-adv-x="594"/>
<glyph glyph-name="egrave.alt" d="M228 723h120l49 -148h-92zM326 429q-54 0 -92.5 -35t-54.5 -91h255q2 8 2 24q0 45 -28 73.5t-82 28.5zM330 529q103 0 164.5 -59.5t61.5 -162.5q0 -39 -14 -89h-371q11 -124 153 -127q88 0 173 41l14 -93q-38 -21 -97 -34.5t-109 -13.5q-120 0 -194.5 63t-74.5 189 q0 130 87.5 208t206.5 78z" horiz-adv-x="594"/>
<glyph glyph-name="emacron.alt" d="M508 677l-13 -75h-312l13 75h312zM326 429q-54 0 -92.5 -35t-54.5 -91h255q2 8 2 24q0 45 -28 73.5t-82 28.5zM330 529q103 0 164.5 -59.5t61.5 -162.5q0 -39 -14 -89h-371q11 -124 153 -127q88 0 173 41l14 -93q-38 -21 -97 -34.5t-109 -13.5q-120 0 -194.5 63 t-74.5 189q0 130 87.5 208t206.5 78z" horiz-adv-x="594"/>
<glyph glyph-name="eogonek.alt" d="M326 429q-54 0 -92.5 -35t-54.5 -91h255q2 8 2 24q0 45 -28 73.5t-82 28.5zM330 529q103 0 164.5 -59.5t61.5 -162.5q0 -39 -14 -89h-371q11 -124 153 -127q88 0 173 41l14 -93q-32 -18 -72 -28q-58 -34 -58 -88q0 -33 33 -33q17 0 39 6l-3 -67q-32 -12 -68 -12 q-81 0 -81 76q0 56 49 101q-3 0 -20 -1.5t-25 -1.5q-120 0 -194.5 63t-74.5 189q0 130 87.5 208t206.5 78z" horiz-adv-x="594"/>
<glyph glyph-name="j.alt" d="M224 716q73 0 73 -58q0 -66 -73 -66q-33 0 -51.5 15t-18.5 43q0 32 19 49t51 17zM283 520l-83 -470q-7 -42 -26.5 -77t-42.5 -57t-50.5 -40t-48 -26t-37.5 -14l-17 -6l-31 87q106 35 121 124l67 386h-73l17 93h204z" horiz-adv-x="305"/>
<glyph glyph-name="jcircumflex.alt" d="M285 719l87 -149h-97l-54 102l-91 -102h-104l140 149h119zM283 520l-83 -470q-7 -42 -26.5 -77t-42.5 -57t-50.5 -40t-48 -26t-37.5 -14l-17 -6l-31 87q106 35 121 124l67 386h-73l17 93h204z" horiz-adv-x="302"/>
<glyph glyph-name="f_b" d="M654 92q55 0 92.5 34.5t50.5 76.5t13 85q0 65 -33.5 102.5t-93.5 37.5q-42 0 -74 -20t-48.5 -52t-24 -63.5t-7.5 -61.5q0 -64 33 -101.5t92 -37.5zM726 529q107 0 162.5 -64.5t55.5 -173.5q0 -80 -28.5 -146t-90.5 -109.5t-149 -44.5h-3q-126 0 -174 97l-20 -88h-123 l94 533q3 21 3 30q0 79 -82 79q-86 0 -103 -95l-5 -27h106l-16 -93h-106l-94 -537h-131l94 537h-79l17 93h79l3 19q16 94 77 148t165 54q91 0 148 -44.5t57 -137.5q0 -25 -6 -56l-8 -41q58 67 157 67z" horiz-adv-x="984"/>
<glyph glyph-name="f_f_b" d="M967 92q55 0 92.5 34.5t50.5 76.5t13 85q0 65 -33.5 102.5t-93.5 37.5q-42 0 -74 -20t-48.5 -52t-24 -63.5t-7.5 -61.5q0 -64 33 -101.5t92 -37.5zM1039 529q107 0 162.5 -64.5t55.5 -173.5q0 -80 -28.5 -146t-90.5 -109.5t-149 -44.5h-3q-126 0 -174 97l-20 -88h-123 l95 540q4 21 4 31q0 41 -22.5 59.5t-58.5 18.5q-40 0 -69 -23t-37 -72l-6 -34h106l-17 -93h-105l-94 -537h-133l95 537h-173l-95 -537h-131l94 537h-85l17 93h84l11 59q14 77 53 119.5t126 42.5q48 0 109 -13l-25 -94q-30 8 -56 8q-65 0 -76 -65l-10 -57h172l7 37 q17 89 77.5 140t161.5 51q92 0 152 -42t60 -129q0 -23 -5 -49l-13 -65q58 66 157 66z" horiz-adv-x="1295"/>
<glyph glyph-name="f_f_h" d="M1046 529q89 0 129 -47.5t40 -123.5q0 -24 -5 -54l-53 -304h-131l52 303q4 21 4 34q0 91 -90 91q-56 0 -93.5 -39.5t-50.5 -115.5l-48 -273h-131l95 540q4 21 4 31q0 41 -22.5 59.5t-58.5 18.5q-40 0 -69 -23t-37 -72l-6 -34h106l-17 -93h-106l-94 -537h-132l95 537h-174 l-95 -537h-131l95 537h-85l17 93h85l10 59q14 76 53 119t126 43q48 0 109 -13l-25 -94q-30 8 -61 8q-61 0 -71 -65l-11 -57h173l7 37q16 89 77 140t162 51q92 0 152 -42t60 -129q0 -23 -5 -49l-13 -65q61 66 164 66z" horiz-adv-x="1262"/>
<glyph glyph-name="f_f_k" d="M1028 322l134 -322h-138l-95 234l-104 -93l-25 -141h-131l95 539q3 16 3 32q0 77 -81 77q-90 0 -106 -92l-6 -36h107l-17 -93h-107l-95 -537h-131l94 537h-172l-95 -537h-132l95 537h-84l16 93h84l11 59q15 82 54.5 122t130.5 40q43 0 104 -13l-25 -94q-30 8 -61 8 q-60 0 -71 -65l-10 -57h173l6 37q15 89 76 139.5t164 50.5q91 0 151 -41.5t60 -128.5q0 -23 -5 -49l-44 -233l247 225h151z" horiz-adv-x="1215"/>
<glyph glyph-name="f_h" d="M730 529q89 0 129.5 -47.5t40.5 -121.5q0 -26 -5 -56l-53 -304h-131l52 303q4 21 4 38q0 87 -89 87q-57 0 -94.5 -39.5t-50.5 -115.5l-67 -383h-131l114 643q3 24 3 32q0 77 -81 77q-86 0 -103 -95l-5 -27h108l-16 -93h-109l-94 -537h-132l95 537h-78l17 93h78l3 17 q16 94 78 149t165 55q91 0 147 -45t56 -140q0 -28 -6 -62l-7 -30q62 65 162 65z" horiz-adv-x="947"/>
<glyph glyph-name="f_k" d="M720 322l134 -322h-138l-95 234l-102 -91l-25 -143h-134l94 533q4 24 4 36q0 38 -23 55.5t-59 17.5q-87 0 -104 -95l-5 -27h108l-16 -93h-108l-95 -537h-132l95 537h-78l16 93h79l3 17q17 94 77.5 149t163.5 55q91 0 149 -45t58 -140q0 -28 -6 -62l-37 -199l246 225h151z " horiz-adv-x="902"/>
<glyph glyph-name="zero.tnum" d="M404 600q-49 0 -85.5 -26t-57 -71t-31 -93.5t-13.5 -103.5q0 -4 -0.5 -12t-0.5 -12q0 -79 32 -130.5t100 -51.5q48 0 84.5 25.5t57.5 69.5t32 93t14 106q0 4 0.5 11t0.5 10q0 46 -10.5 85t-42 69.5t-80.5 30.5zM410 712q126 0 198 -76t72 -219v-16q-2 -80 -23.5 -152 t-61.5 -131.5t-105.5 -94.5t-147.5 -35q-125 0 -198 75.5t-73 222.5v14q2 80 23.5 152t61.5 131t105.5 94t148.5 35z"/>
<glyph glyph-name="one.tnum" d="M516 701l-105 -600h178l-18 -101h-506l18 101h191l82 464l-171 -62l-36 96l260 102h107z"/>
<glyph glyph-name="two.tnum" d="M413 713q105 0 166.5 -52t61.5 -149q0 -81 -46.5 -143.5t-140.5 -125.5l-194 -129h312l-20 -114h-511l19 105l318 223q64 49 91 86t27 81q0 52 -33.5 79t-85.5 27q-47 0 -108.5 -19.5t-100.5 -40.5l-28 106q54 31 130 48.5t143 17.5z"/>
<glyph glyph-name="three.tnum" d="M398 713q97 0 162.5 -46t65.5 -131q0 -65 -41.5 -111.5t-119.5 -58.5q66 -20 98.5 -65t32.5 -105q0 -102 -82 -155.5t-207 -53.5q-154 0 -253 64l38 99q34 -20 90.5 -35.5t111.5 -15.5q73 0 115 30.5t42 87.5q0 105 -152 105h-78l17 95h79q72 0 119 24t47 73q0 43 -35 64 t-89 21q-78 0 -170 -35l-24 101q40 20 109 34t124 14z"/>
<glyph glyph-name="four.tnum" d="M469 526l-275 -270h228zM633 701l-79 -445h87l-17 -103h-87l-28 -153h-133l27 153h-375l15 97l459 451h131z"/>
<glyph glyph-name="five.tnum" d="M647 700l-19 -110h-323l-40 -166q63 29 136 29q103 0 161 -57t58 -156q0 -121 -83 -187t-221 -66q-155 0 -265 75l56 92q93 -58 196 -58q77 0 124.5 34.5t47.5 104.5q0 59 -34.5 89.5t-94.5 30.5q-67 0 -127 -40l-77 54l83 331h422z"/>
<glyph glyph-name="six.tnum" d="M364 354q-73 -1 -111.5 -42.5t-38.5 -94.5q1 -59 36 -92.5t97 -33.5q58 0 102.5 35t44.5 105q0 59 -34 91t-93 32h-3zM459 712q120 0 220 -61l-53 -97q-73 48 -176 48q-89 0 -151 -62q-63 -61 -87 -168q71 81 203 81q98 0 161.5 -54t63.5 -152v-10q-5 -108 -81 -178.5 t-211 -70.5q-129 0 -200.5 68t-74.5 195v21q0 105 40 199.5t111 154.5q99 86 235 86z"/>
<glyph glyph-name="seven.tnum" d="M707 700l-18 -101l-397 -599h-165l400 582h-397l21 118h556z"/>
<glyph glyph-name="eight.tnum" d="M399 609q-55 0 -91 -28t-36 -74q0 -42 32 -66.5t85 -24.5q56 0 90.5 26t34.5 72q0 43 -31 69t-84 26zM358 315q-66 0 -108.5 -32t-42.5 -87q0 -51 37 -81t102 -30t106 32t41 91q0 49 -36.5 78t-98.5 29zM405 713q113 0 180 -52t66 -135q-1 -62 -41.5 -104t-110.5 -57 q67 -18 103 -61t36 -103q0 -101 -81 -157.5t-214 -56.5q-129 0 -205 53.5t-75 146.5q2 69 47 121.5t130 68.5q-52 17 -77.5 54.5t-25.5 85.5q0 90 74.5 143t193.5 53z"/>
<glyph glyph-name="nine.tnum" d="M374 346q74 1 112 42t38 95q0 59 -35 92.5t-98 33.5q-56 0 -100 -33.5t-46 -101.5v-7q0 -58 34 -89.5t92 -31.5h3zM279 -12q-120 0 -220 61l53 97q73 -48 175 -48q97 0 156 61q58 55 83 167q-70 -79 -203 -79q-98 0 -161.5 54t-63.5 152v10q4 108 80.5 178.5t211.5 70.5 q129 0 200.5 -68t74.5 -195v-23q0 -107 -38 -200.5t-108 -153.5q-96 -84 -240 -84z"/>
<glyph glyph-name="exclamdown.case" d="M197 713q32 0 52 -15.5t20 -46.5v-6q-2 -30 -22 -48t-52 -18q-31 0 -50.5 15t-19.5 44v7q2 31 21.5 49.5t50.5 18.5zM230 480l-65 -483h-150l107 483h108z" horiz-adv-x="277"/>
<glyph glyph-name="questiondown.case" d="M313 566q-30 0 -49.5 15.5t-19.5 45.5v6q2 32 21.5 49.5t52.5 17.5q30 0 50 -15t20 -46v-6q-2 -32 -22 -49.5t-53 -17.5zM218 -26q-89 0 -146.5 41.5t-57.5 122.5q0 50 20.5 87.5t51 60t62 41t58.5 43t35 54.5q5 19 9 55h102q-2 -39 -10 -73q-9 -39 -34.5 -69.5 t-54 -49.5t-56 -37t-45.5 -42t-18 -54q0 -39 27.5 -58t74.5 -19q62 0 159 45l34 -91q-114 -57 -211 -57z" horiz-adv-x="494"/>
<glyph glyph-name="braceleft.case" d="M377 734l-17 -96h-50q-52 0 -63 -62l-38 -216q-10 -60 -75 -69q52 -4 52 -54q0 -6 -2 -18l-38 -213q-2 -14 -2 -21q0 -40 42 -40h52l-17 -96h-58q-71 0 -99.5 27t-28.5 76q0 22 5 52l36 206q1 4 1 12q0 30 -32 30h-17l13 80h15q40 0 48 39l39 220q13 72 44 107.5 t108 35.5h82z" horiz-adv-x="341"/>
<glyph glyph-name="braceright.case" d="M119 734h58q71 0 99.5 -27t28.5 -76q0 -22 -5 -52l-36 -206q-1 -4 -1 -11q0 -32 33 -32h17l-14 -79h-15q-42 0 -48 -39l-39 -221q-13 -72 -44 -107t-108 -35h-82l17 96h51q51 0 62 61l38 217q10 59 75 68q-52 6 -52 55q0 6 2 18l38 213q2 14 2 20q0 41 -42 41h-52z" horiz-adv-x="341"/>
<glyph glyph-name="bracketleft.case" d="M355 734l-18 -100h-92l-123 -692h93l-17 -101h-200l157 893h200z" horiz-adv-x="321"/>
<glyph glyph-name="bracketright.case" d="M323 734l-157 -893h-200l18 101h92l123 691h-93l17 101h200z" horiz-adv-x="321"/>
<glyph glyph-name="parenleft.case" d="M325 833h136q-90 -93 -128 -145q-136 -190 -136 -460q0 -194 97 -345h-136q-38 51 -67.5 143t-29.5 211q0 91 19.5 177t47 147t66.5 118.5t68.5 90.5t62.5 63z" horiz-adv-x="367"/>
<glyph glyph-name="parenright.case" d="M106 833h135q38 -50 67.5 -142t29.5 -213q0 -91 -19.5 -176.5t-47 -146.5t-66.5 -118.5t-68.5 -90.5t-62.5 -63h-136q90 93 128 145q136 190 136 460q0 191 -96 345z" horiz-adv-x="367"/>
<glyph glyph-name="emdash.case" d="M868 398l-17 -98h-787l18 98h786z" horiz-adv-x="918"/>
<glyph glyph-name="endash.case" d="M662 398l-17 -98h-578l18 98h577z" horiz-adv-x="712"/>
<glyph glyph-name="hyphen.case" d="M451 398l-18 -98h-368l18 98h368z" horiz-adv-x="500"/>
<glyph glyph-name="hyphen.tnum" d="M581 398l-18 -98h-406l18 98h406z"/>
<glyph glyph-name="guillemotleft.case" d="M293 534l64 -69l-184 -194l110 -185l-79 -57l-171 240l5 27zM569 534l64 -69l-184 -194l110 -185l-79 -57l-171 240l5 27z" horiz-adv-x="648"/>
<glyph glyph-name="guillemotright.case" d="M19 97l184 195l-110 186l79 56l171 -239l-5 -27l-256 -239zM294 97l184 195l-110 186l79 56l171 -239l-5 -27l-256 -239z" horiz-adv-x="662"/>
<glyph glyph-name="guilsinglleft.case" d="M358 465l-185 -194l111 -185l-79 -57l-171 240l5 27l255 238z" horiz-adv-x="371"/>
<glyph glyph-name="guilsinglright.case" d="M4 97l184 195l-110 186l79 56l171 -239l-5 -27l-256 -239z" horiz-adv-x="365"/>
<glyph glyph-name="cent.tnum" d="M505 715l-19 -108q78 -9 137 -45l-44 -86q-52 33 -125 33q-88 0 -138.5 -54t-50.5 -131q0 -70 40.5 -111t112.5 -41q66 0 129 34l31 -85q-75 -49 -174 -49h-13l-19 -106h-74l21 117q-84 22 -136.5 80.5t-52.5 156.5q0 122 79 199t204 88l18 108h74z"/>
<glyph glyph-name="dollar.tnum" d="M489 805l-17 -95q98 -9 192 -64l-49 -108q-100 63 -200 63q-65 0 -91 -25t-26 -59q0 -37 28.5 -59.5t98.5 -51.5q87 -36 129 -78t42 -118q0 -88 -58 -152t-191 -72l-16 -90h-74l16 91q-113 12 -201 69l45 107q112 -66 206 -66h14q56 2 83.5 26t27.5 63q0 14 -3 25 t-11.5 20.5t-14.5 15.5t-23 15t-25.5 12.5t-32.5 13.5t-34 14q-25 11 -43 20t-41 25.5t-36.5 35.5t-23.5 48t-10 64q0 89 60 150.5t188 66.5l17 93h74z"/>
<glyph glyph-name="Euro.tnum" d="M534 311l-25 -62h-237q19 -67 70.5 -107t136.5 -40q88 0 166 39l-8 -114q-83 -39 -187 -39q-143 0 -227.5 73.5t-106.5 187.5h-93l25 62h61v13q0 32 4 59h-84l30 62h68q37 118 138 192.5t254 74.5q123 0 212 -58l-50 -96q-73 42 -154 42q-93 0 -154.5 -42.5t-90.5 -112.5 h306l-30 -62h-293q-4 -23 -4 -51v-21h273z"/>
<glyph glyph-name="sterling.tnum" d="M561 369l-13 -71h-208q2 -22 2 -34q0 -61 -24.5 -101t-54.5 -61h328l-17 -102h-507l16 95q5 0 13 1.5t28.5 11.5t36.5 25.5t29 47.5t13 74q0 13 -4 43h-76l13 71h52q-7 45 -7 88q0 129 75.5 192t193.5 63q123 0 219 -64l-56 -92l-15 8q-14 8 -20 11t-22.5 10t-29.5 10 t-32.5 6t-39.5 3q-137 0 -137 -146q0 -46 10 -89h234z"/>
<glyph glyph-name="yen.tnum" d="M751 700l-325 -419l-5 -28h111l-11 -58h-110l-7 -46h109l-10 -58h-110l-16 -91h-141l16 91h-110l10 58h111l7 46h-110l11 58h109l6 28l-177 419h140l122 -299l223 299h157z"/>
<glyph glyph-name="divide.tnum" d="M387 572q26 0 44 -14t18 -42v-6q-2 -26 -19.5 -44t-47.5 -18q-26 0 -43.5 13.5t-17.5 41.5v6q2 26 19 44.5t47 18.5zM324 213q26 0 44 -14t18 -42v-6q-2 -26 -19.5 -43.5t-47.5 -17.5q-25 0 -43 13.5t-18 41.5v5q2 27 19 45t47 18zM593 372l-15 -85h-465l15 85h465z"/>
<glyph glyph-name="equal.tnum" d="M548 285l-15 -89h-389l16 89h388zM580 470l-16 -88h-388l16 88h388z" horiz-adv-x="711"/>
<glyph glyph-name="multiply.tnum" d="M247 565l133 -161l190 162l56 -69l-190 -161l132 -159l-80 -69l-132 160l-189 -160l-55 69l188 159l-132 161z"/>
<glyph glyph-name="percent.tnum" d="M214 628q-36 0 -56 -27t-20 -76q0 -67 59 -67q35 0 55 27t20 76q0 34 -16 50.5t-42 16.5zM229 713q59 0 97 -38.5t38 -100.5q0 -94 -48.5 -146t-134.5 -52q-59 0 -97 38t-38 100q0 95 49 147t134 52zM550 241q-36 0 -56 -27t-20 -76q0 -67 59 -67q35 0 55 26.5t20 75.5 q0 35 -16 51.5t-42 16.5zM565 325q59 0 97 -38t38 -100q0 -95 -48.5 -147t-134.5 -52q-59 0 -97 38t-38 100q0 95 49 147t134 52zM673 700l-499 -700h-104l501 700h102z"/>
<glyph glyph-name="plus.tnum" d="M445 574l-33 -190h190l-17 -97h-191l-32 -182h-101l33 182h-183l17 97h183l33 190h101z"/>
<glyph glyph-name="acute.case" d="M360 686l-111 -116h-97l86 116h122z" horiz-adv-x="330"/>
<glyph glyph-name="breve.case" d="M321 693l72 -4q-16 -62 -54 -88.5t-103 -26.5q-124 0 -124 115l74 4q0 -55 56 -55q59 0 79 55z" horiz-adv-x="346"/>
<glyph glyph-name="caron.case" d="M445 686l-138 -116h-118l-90 116h97l56 -73l87 73h106z" horiz-adv-x="391"/>
<glyph glyph-name="circumflex.case" d="M87 570l138 116h118l90 -116h-97l-56 73l-87 -73h-106z" horiz-adv-x="413"/>
<glyph glyph-name="dieresis.case" d="M403 694q32 0 49 -16t15 -43q-2 -59 -64 -59q-29 0 -45.5 15t-16.5 40q0 29 16 46t46 17zM171 694q31 0 48 -15.5t17 -41.5q0 -29 -17 -45t-48 -16q-29 0 -45.5 15t-16.5 40q0 29 16 46t46 17z" horiz-adv-x="444"/>
<glyph glyph-name="dotaccent.case" d="M197 694q32 0 49 -16t15 -43q-2 -59 -64 -59q-29 0 -45.5 15t-16.5 40q0 29 16 46t46 17z" horiz-adv-x="268"/>
<glyph glyph-name="grave.case" d="M262 686l46 -116h-91l-73 116h118z" horiz-adv-x="313"/>
<glyph glyph-name="hungarumlaut.case" d="M303 686l-124 -116h-99l98 116h125zM482 686l-124 -116h-99l98 116h125z" horiz-adv-x="440"/>
</font>
</defs>
</svg>
