<?xml version="1.0" encoding="UTF-8" standalone="no"?>
<!DOCTYPE svg  PUBLIC '-//W3C//DTD SVG 1.1//EN'  'http://www.w3.org/Graphics/SVG/1.1/DTD/svg11.dtd'>
<svg xmlns="http://www.w3.org/2000/svg">
<defs>
<font id="CentraleSansXLight-Regular" horiz-adv-x="697">
<font-face underline-position="-50" font-weight="325" descent="-200" panose-1="2 0 0 0 0 0 0 0 0 0" units-per-em="1000" unicode-range="U+000D-FB04" bbox="-147 -193 1363 912" x-height="520" underline-thickness="50" font-family="CentraleSansXLight" ascent="800" cap-height="700"/>
<missing-glyph d="M114 658v-705l184 352zM520 658l-185 -353l185 -352v705zM505 -89l-188 359l-188 -359h376zM505 700h-376l188 -359zM551 732v-852h-468v852h468z" horiz-adv-x="633"/>
<glyph glyph-name="f_f" horiz-adv-x="594" unicode="ff" d="M501 738q34 0 79 -9l-4 -35q-32 7 -66 7q-53 0 -74.5 -29t-21.5 -85v-67h155v-35h-155v-485h-48v485h-219v-485h-48v485h-68v35h68v66q0 76 30 114t104 38q36 0 68 -8l-6 -35q-34 6 -55 6q-51 0 -72 -28t-21 -83v-70h219v65q0 77 30.5 115t104.5 38z"/>
<glyph glyph-name="f_i" horiz-adv-x="536" unicode="fi" d="M276 738q71 0 151 -44l-14 -29q-69 38 -135 38q-64 0 -96 -41.5t-32 -97.5v-44h299v-520h-48v485h-251v-485h-48v485h-68v35h68v48q2 75 48 122.5t126 47.5z"/>
<glyph glyph-name="f_l" horiz-adv-x="570" unicode="fl" d="M529 33l1 -35q-16 -4 -58 -4q-38 0 -56 17t-18 60v489q0 68 -35.5 104.5t-91.5 36.5t-89 -37t-33 -103v-41h135v-35h-135v-485h-48v485h-68v35h68v39q0 86 46.5 132.5t123.5 46.5t126 -45.5t49 -132.5v-483q0 -28 10 -37t30 -9q9 0 19 0.5t16.5 1t7.5 0.5z"/>
<glyph glyph-name="f_f_i" horiz-adv-x="777" unicode="ffi" d="M528 744q83 0 154 -39l-13 -31q-66 33 -136 33q-46 0 -73.5 -22.5t-36 -50.5t-8.5 -62v-52h278v-520h-48v485h-230v-485h-48v485h-220v-485h-48v485h-68v35h68v66q0 76 30 114t105 38q37 0 67 -8l-5 -35q-34 6 -56 6q-51 0 -72 -28.5t-21 -83.5v-69h220v52q0 78 41 125 t120 47z"/>
<glyph glyph-name="f_f_l" horiz-adv-x="838" unicode="ffl" d="M714 565v-488q0 -28 10 -37t30 -9q9 0 19 0.5t16.5 1t7.5 0.5l1 -35q-16 -4 -58 -4q-38 0 -56 17t-18 60v494q0 69 -35 105.5t-92 36.5q-56 0 -88.5 -37.5t-32.5 -104.5v-45h134v-35h-134v-485h-48v485h-220v-485h-48v485h-67v35h67v66q0 76 30 114t104 38q36 0 68 -8 l-6 -35q-34 6 -55 6q-51 0 -72 -28.5t-21 -83.5v-69h220v45q0 85 46 132t123 47t126 -45.5t49 -133.5z"/>
<glyph glyph-name=".notdef" d="M114 658v-705l184 352zM520 658l-185 -353l185 -352v705zM505 -89l-188 359l-188 -359h376zM505 700h-376l188 -359zM551 732v-852h-468v852h468z" horiz-adv-x="633"/>
<glyph glyph-name=".null" horiz-adv-x="462"/>
<glyph glyph-name=".null" horiz-adv-x="462"/>
<glyph glyph-name="nonmarkingreturn" horiz-adv-x="333"/>
<glyph glyph-name="CR" horiz-adv-x="286" unicode=""/>
<glyph glyph-name="space" horiz-adv-x="265" unicode=" "/>
<glyph glyph-name="exclam" horiz-adv-x="240" unicode="!" d="M120 55q33 0 33 -31t-33 -31t-33 31t33 31zM147 704l-5 -532h-40l-5 532h50z"/>
<glyph glyph-name="quotedbl" horiz-adv-x="365" unicode='&quot;' d="M153 700l-40 -239h-29l19 239h50zM289 700l-40 -239h-29l19 239h50z"/>
<glyph glyph-name="numbersign" horiz-adv-x="772" unicode="#" d="M296 481l-47 -269h232l48 269h-233zM665 212l-7 -41h-142l-30 -171h-42l30 171h-232l-30 -171h-44l30 171h-142l8 41h142l48 269h-143l7 42h143l32 179h42l-32 -179h233l32 179h42l-32 -179h140l-8 -42h-139l-48 -269h142z"/>
<glyph glyph-name="dollar" horiz-adv-x="581" unicode="$" d="M310 785v-77q89 -3 187 -43l-14 -40q-9 5 -31 13.5t-67.5 18.5t-87.5 10q-80 0 -127.5 -35t-47.5 -101q0 -30 12 -54t26.5 -38.5t46.5 -28.5t50.5 -20t61.5 -19q38 -11 64 -20t56 -25.5t47.5 -35t29.5 -47t12 -64.5q0 -87 -58.5 -134.5t-159.5 -51.5v-79h-30v79 q-117 6 -212 52l13 38q32 -16 92 -32.5t123 -16.5q87 0 133 36.5t46 102.5q0 18 -3.5 34t-13.5 29t-17.5 22.5t-26 19.5t-28 15t-34.5 13.5t-34.5 11.5t-38.5 12q-40 12 -63 20.5t-55 25t-49 35t-29.5 48t-12.5 66.5q0 82 55.5 130t154.5 52v78h30z"/>
<glyph glyph-name="percent" horiz-adv-x="796" unicode="%" d="M595 330q68 0 110.5 -47.5t42.5 -122.5q0 -74 -42 -120.5t-112 -46.5q-69 0 -112 47t-43 120q0 75 43.5 122.5t112.5 47.5zM594 298q-51 0 -84 -39.5t-33 -98.5q0 -58 33.5 -96.5t84.5 -38.5t83 38t32 97q0 60 -32.5 99t-83.5 39zM203 709q69 0 111.5 -47t42.5 -122 q0 -74 -42.5 -121t-112.5 -47q-69 0 -111.5 47t-42.5 120q0 75 43 122.5t112 47.5zM202 677q-51 0 -84 -39t-33 -98t33.5 -97t84.5 -38t83 38t32 97q0 60 -32 98.5t-84 38.5zM618 702l-403 -702h-42l404 702h41z"/>
<glyph glyph-name="ampersand" horiz-adv-x="653" unicode="&amp;" d="M162 560q0 -32 18.5 -62.5t65.5 -84.5q45 28 68.5 45.5t44.5 47.5t21 64q0 45 -30 72t-74 27q-48 0 -81 -30.5t-33 -78.5zM267 33q102 0 184 91l-216 242q-61 -37 -99 -80.5t-38 -103.5q0 -67 48.5 -108t120.5 -41zM275 707q63 0 105 -37t42 -100q0 -33 -11.5 -60 t-36 -49.5t-46 -37.5t-58.5 -36l206 -233q36 46 75 126l34 -18q-36 -78 -83 -138l110 -124h-51l-84 94q-93 -101 -215 -101q-88 0 -148.5 49t-60.5 133q0 71 42 120t117 97q-49 56 -70.5 92.5t-21.5 79.5q0 64 45 103.5t110 39.5z"/>
<glyph glyph-name="quotesingle" horiz-adv-x="234" unicode="&apos;" d="M153 700l-40 -239h-29l19 239h50z"/>
<glyph glyph-name="parenleft" horiz-adv-x="320" unicode="(" d="M253 732h52q-82 -72 -139.5 -185t-57.5 -266t57.5 -266t139.5 -185h-52q-77 64 -136 183.5t-59 267.5t59 267.5t136 183.5z"/>
<glyph glyph-name="parenright" horiz-adv-x="320" unicode=")" d="M17 732h52q77 -64 136 -183.5t59 -267.5t-59 -267.5t-136 -183.5h-52q82 72 139.5 185t57.5 266t-57.5 266t-139.5 185z"/>
<glyph glyph-name="asterisk" horiz-adv-x="439" unicode="*" d="M238 751l-6 -133l113 73l18 -31l-119 -62l120 -61l-19 -33l-113 74l6 -134h-35l7 134l-114 -74l-19 33l120 61l-119 62l18 31l114 -73l-7 133h35z"/>
<glyph glyph-name="plus" horiz-adv-x="558" unicode="+" d="M296 541v-191h191v-36h-191v-189h-36v189h-189v36h189v191h36z"/>
<glyph glyph-name="comma" horiz-adv-x="237" unicode="," d="M115 56q19 0 33.5 -19.5t14.5 -50.5q0 -36 -22.5 -65.5t-56.5 -46.5l-10 17q61 35 61 91q0 15 -7 29q-4 -15 -19 -15q-27 0 -27 28q0 15 9 23.5t24 8.5z"/>
<glyph glyph-name="hyphen" horiz-adv-x="513" unicode="-" d="M433 290v-38h-354v38h354z"/>
<glyph glyph-name="period" horiz-adv-x="220" unicode="." d="M110 58q32 0 32 -32q0 -31 -32 -31t-32 31q0 32 32 32z"/>
<glyph glyph-name="slash" horiz-adv-x="466" unicode="/" d="M435 735l-419 -905h-40l418 905h41z"/>
<glyph glyph-name="zero" horiz-adv-x="680" unicode="0" d="M340 34q108 0 165 86.5t57 229.5q0 144 -57 230t-165 86t-165 -86t-57 -229t57 -230t165 -87zM340 -7q-131 0 -202.5 98t-71.5 259t71 259t204 98q132 0 202.5 -97.5t70.5 -257.5q0 -162 -71.5 -260.5t-202.5 -98.5z"/>
<glyph glyph-name="one" horiz-adv-x="359" unicode="1" d="M251 702v-702h-51v654l-128 -64l-17 35l154 77h42z"/>
<glyph glyph-name="two" horiz-adv-x="557" unicode="2" d="M278 707q99 0 161.5 -52.5t62.5 -150.5q0 -73 -39.5 -135t-130.5 -140l-212 -187h382v-42h-449v37l250 222q74 66 110.5 120t36.5 124q0 79 -49 121t-130 42q-94 0 -183 -50l-15 36q96 55 205 55z"/>
<glyph glyph-name="three" horiz-adv-x="562" unicode="3" d="M265 707q95 0 156.5 -43t61.5 -124q0 -62 -37 -105.5t-102 -59.5q75 -15 122 -64t47 -120q0 -97 -71.5 -147.5t-186.5 -50.5q-110 0 -200 46l15 38q31 -17 81.5 -30t99.5 -13q92 0 151.5 40.5t59.5 122.5q0 73 -62 117t-139 44h-73v37h73q68 0 119.5 34.5t51.5 105.5 q0 67 -50 99t-128 32q-85 0 -170 -40l-12 35q37 18 92 32t101 14z"/>
<glyph glyph-name="four" horiz-adv-x="592" unicode="4" d="M97 216h322v414zM470 702v-486h90v-40h-90v-176h-50v176h-376v37l382 489h44z"/>
<glyph glyph-name="five" horiz-adv-x="570" unicode="5" d="M483 700v-42h-334l-17 -283q70 50 161 50q104 0 166.5 -56.5t62.5 -153.5q0 -104 -70 -163t-186 -59q-111 0 -207 50l16 39q89 -48 185 -48q97 0 153.5 45t56.5 132q0 82 -48 128t-140 46q-80 0 -161 -56l-33 24l23 347h372z"/>
<glyph glyph-name="six" horiz-adv-x="630" unicode="6" d="M332 391q-87 0 -143.5 -55t-56.5 -127q0 -78 56.5 -126.5t142.5 -48.5q88 0 141.5 49t53.5 131q0 87 -53 132t-141 45zM354 707q103 0 195 -43l-16 -36q-89 38 -174 38q-131 0 -193 -104q-50 -80 -53 -220q0 -35 1 -51q25 62 86 101t147 39q103 0 167 -56t64 -160 q0 -102 -67.5 -162t-176.5 -60q-176 0 -236 143q-37 84 -37 197q0 157 70 259q77 115 223 115z"/>
<glyph glyph-name="seven" horiz-adv-x="504" unicode="7" d="M474 700v-40l-292 -660h-57l296 658h-398v42h451z"/>
<glyph glyph-name="eight" horiz-adv-x="605" unicode="8" d="M303 666q-78 0 -125.5 -34.5t-47.5 -99.5q0 -60 46 -99t127 -39q80 0 126 39t46 99q0 65 -47.5 99.5t-124.5 34.5zM302 347q-94 0 -149.5 -44t-55.5 -118q0 -70 55.5 -110.5t149.5 -40.5t149.5 40.5t55.5 110.5q0 74 -55.5 118t-149.5 44zM302 707q100 0 161.5 -46.5 t61.5 -125.5q0 -60 -38 -104t-112 -59q86 -14 135 -62.5t49 -124.5q0 -93 -70.5 -142.5t-185.5 -49.5q-114 0 -186 49.5t-72 142.5q0 74 48 123.5t136 63.5q-72 15 -110.5 58t-38.5 105q0 79 61 125.5t161 46.5z"/>
<glyph glyph-name="nine" horiz-adv-x="639" unicode="9" d="M298 666q-88 0 -141 -48.5t-53 -131.5q0 -85 53.5 -131t139.5 -46q89 0 145 55t56 127q0 78 -56 126.5t-144 48.5zM297 707q180 0 240 -150q32 -80 32 -190q0 -168 -64 -260q-77 -114 -231 -114q-103 0 -195 43l16 36q93 -38 174 -38q137 0 201 102q44 71 46 222 q0 34 -1 49q-25 -62 -85 -100t-147 -38q-103 0 -167 56t-64 160q0 102 67.5 162t177.5 60z"/>
<glyph glyph-name="colon" horiz-adv-x="223" unicode=":" d="M113 58q15 0 23.5 -9t8.5 -23q0 -30 -32 -30q-33 0 -33 30q0 32 33 32zM113 440q15 0 23.5 -9t8.5 -23q0 -30 -32 -30q-33 0 -33 30q0 32 33 32z"/>
<glyph glyph-name="semicolon" horiz-adv-x="268" unicode=";" d="M130 440q15 0 23.5 -9t8.5 -23t-8.5 -22.5t-23.5 -8.5q-33 0 -33 31q0 32 33 32zM133 56q20 0 34 -19.5t14 -50.5q0 -74 -78 -116l-10 18q24 13 41.5 39t18.5 57q0 11 -6 27q-4 -15 -20 -15q-27 0 -27 28q0 15 9 23.5t24 8.5z"/>
<glyph glyph-name="less" horiz-adv-x="575" unicode="&lt;" d="M22 353l507 177v-41l-454 -155l454 -154v-41l-507 176v38z"/>
<glyph glyph-name="equal" horiz-adv-x="521" unicode="=" d="M437 259v-34h-354v34h354zM437 423v-34h-354v34h354z"/>
<glyph glyph-name="greater" horiz-adv-x="575" unicode="&gt;" d="M553 353v-38l-507 -176v41l453 154l-453 155v41z"/>
<glyph glyph-name="question" horiz-adv-x="474" unicode="?" d="M207 56q34 0 34 -32q0 -31 -34 -31q-33 0 -33 31q0 32 33 32zM224 707q83 0 141 -40.5t58 -120.5q0 -38 -14.5 -68.5t-36.5 -49t-47 -39t-47 -37.5t-36.5 -44t-14.5 -60v-76h-41v77q0 42 19.5 75.5t47.5 55.5t56 43.5t47.5 51.5t19.5 68q0 61 -45 92t-110 31 q-79 0 -151 -45l-16 36q72 50 170 50z"/>
<glyph glyph-name="at" horiz-adv-x="962" unicode="@" d="M468 462q-83 0 -122 -54.5t-40 -128.5v-5q0 -71 37.5 -112t103.5 -41q80 0 117.5 55.5t37.5 133.5q0 73 -34 112.5t-100 39.5zM517 691q64 0 120 -11.5t106 -37.5t86 -64.5t56.5 -95t20.5 -126.5q0 -117 -54.5 -192t-151.5 -75q-105 0 -105 86q-47 -85 -155 -85 q-80 0 -126.5 50t-46.5 134v5q2 90 51.5 152t144.5 62q62 0 102 -30t54 -81l22 106h34l-49 -278q-2 -9 -2 -25q0 -68 80 -68q85 0 127 70t42 169q0 66 -19.5 118.5t-52.5 87.5t-79.5 58t-97.5 33t-108 10q-193 0 -310 -110.5t-117 -294.5q0 -115 48.5 -194t127 -114 t182.5 -35q130 0 248 50l6 -27q-127 -50 -255 -50q-177 0 -284 94.5t-107 273.5q0 197 126.5 316t335.5 119z"/>
<glyph glyph-name="A" horiz-adv-x="674" unicode="A" d="M336 660l-173 -426h347l-173 426h-1zM369 704l289 -704h-53l-79 194h-379l-79 -194h-52l289 704h64z"/>
<glyph glyph-name="B" horiz-adv-x="672" unicode="B" d="M396 660h-240v-286h242q67 0 105.5 38.5t38.5 100.5q0 68 -42.5 107.5t-103.5 39.5zM406 336h-250v-296h261q64 0 107 41t43 107q0 61 -40.5 104.5t-120.5 43.5zM105 700h292q84 0 138.5 -47.5t54.5 -132.5q0 -64 -34.5 -107.5t-89.5 -56.5q62 -6 106 -52t44 -121 q0 -84 -54.5 -133.5t-138.5 -49.5h-318v700z"/>
<glyph glyph-name="C" horiz-adv-x="676" unicode="C" d="M426 707q114 0 198 -37l-13 -38q-78 34 -174 34q-149 0 -237.5 -87.5t-88.5 -228.5t88.5 -228.5t235.5 -87.5q99 0 180 33l10 -39q-91 -35 -198 -35q-163 0 -266 97.5t-103 259.5t103.5 259.5t264.5 97.5z"/>
<glyph glyph-name="D" horiz-adv-x="751" unicode="D" d="M372 659h-216v-618h215q44 0 93.5 19t82.5 50q43 40 66.5 104t23.5 137q0 87 -32 156t-91 108q-71 44 -142 44zM105 700h275q81 0 156 -44q76 -46 115 -126t39 -179q0 -102 -38.5 -183t-116.5 -124q-74 -44 -155 -44h-275v700z"/>
<glyph glyph-name="E" horiz-adv-x="651" unicode="E" d="M582 700v-40h-426v-299h367v-40h-367v-281h443v-40h-494v700h477z"/>
<glyph glyph-name="F" horiz-adv-x="611" unicode="F" d="M579 700v-40h-423v-306h363v-40h-363v-314h-51v700h474z"/>
<glyph glyph-name="G" horiz-adv-x="751" unicode="G" d="M423 707q122 0 219 -50l-14 -38q-94 47 -197 47q-145 0 -232.5 -87t-87.5 -229q0 -139 87.5 -227.5t222.5 -88.5t224 84v180h-197v38h239v-236q-106 -107 -272 -107q-151 0 -254 98.5t-103 258.5q0 161 102.5 259t262.5 98z"/>
<glyph glyph-name="H" horiz-adv-x="754" unicode="H" d="M649 700v-700h-51v330h-442v-330h-51v700h51v-330h442v330h51z"/>
<glyph glyph-name="I" horiz-adv-x="261" unicode="I" d="M156 700v-700h-51v700h51z"/>
<glyph glyph-name="J" horiz-adv-x="527" unicode="J" d="M430 700v-482q0 -108 -59.5 -166.5t-155.5 -58.5q-74 0 -125.5 37.5t-71.5 83.5l31 26q20 -45 63.5 -75.5t100.5 -30.5q71 0 118.5 47.5t47.5 135.5v483h51z"/>
<glyph glyph-name="K" horiz-adv-x="667" unicode="K" d="M615 700l-250 -264l274 -436h-60l-249 399l-174 -183v-216h-51v700h51v-420l398 420h61z"/>
<glyph glyph-name="L" horiz-adv-x="560" unicode="L" d="M156 700v-660h384v-40h-435v700h51z"/>
<glyph glyph-name="M" horiz-adv-x="912" unicode="M" d="M807 700v-700h-51v541l4 96h-2l-278 -549h-48l-279 549h-1l4 -96v-541h-51v700h71l281 -562l280 562h70z"/>
<glyph glyph-name="N" horiz-adv-x="739" unicode="N" d="M634 700v-700h-54l-424 622v-622h-51v700h54l424 -619v619h51z"/>
<glyph glyph-name="O" horiz-adv-x="794" unicode="O" d="M397 666q-132 0 -213 -85.5t-81 -232.5q0 -145 81 -229.5t213 -84.5q133 0 213.5 84t80.5 230q0 147 -80.5 232.5t-213.5 85.5zM397 707q156 0 251.5 -97.5t95.5 -261.5q0 -163 -95 -259t-252 -96q-156 0 -251.5 96.5t-95.5 258.5q0 164 96 261.5t251 97.5z"/>
<glyph glyph-name="P" horiz-adv-x="675" unicode="P" d="M407 660h-251v-351h251q82 0 129.5 50.5t47.5 124.5q0 73 -48 124.5t-129 51.5zM105 700h313q97 0 158 -63.5t61 -152.5q0 -90 -60.5 -152.5t-157.5 -62.5h-264v-269h-50v700z"/>
<glyph glyph-name="Q" horiz-adv-x="794" unicode="Q" d="M397 666q-132 0 -213 -85.5t-81 -232.5q0 -145 81 -229.5t213 -84.5q133 0 213.5 84t80.5 230q0 147 -80.5 232.5t-213.5 85.5zM397 707q156 0 251.5 -97.5t95.5 -261.5q0 -136 -67.5 -226.5t-184.5 -117.5q100 -52 225 -87l-14 -41q-39 8 -119.5 44t-148.5 75 q-14 -2 -41 -2q-154 1 -249 97.5t-95 257.5q0 164 96 261.5t251 97.5z"/>
<glyph glyph-name="R" horiz-adv-x="686" unicode="R" d="M425 660h-269v-311h269q71 0 113.5 45t42.5 111t-42.5 110.5t-113.5 44.5zM105 700h328q89 0 145 -56t56 -139q0 -72 -43.5 -125t-114.5 -68l150 -312h-54l-146 309h-270v-309h-51v700z"/>
<glyph glyph-name="S" horiz-adv-x="603" unicode="S" d="M302 707q107 0 221 -48l-14 -39q-7 4 -30 13.5t-74 21t-101 11.5q-86 0 -138 -35t-52 -101q0 -24 7 -44t24.5 -35.5t31 -25.5t44 -21t45.5 -15t52 -15q45 -12 72.5 -20.5t62.5 -25t54.5 -35t33.5 -47.5t14 -66q0 -91 -66.5 -139t-181.5 -48q-134 0 -252 59l13 39 q126 -56 238 -56q96 0 146 36.5t50 102.5q0 29 -12.5 52t-27 36.5t-48 27.5t-52.5 20t-63 18q-45 12 -71 20t-62 25t-56 35.5t-34.5 49t-14.5 68.5q0 86 65 133.5t176 47.5z"/>
<glyph glyph-name="T" horiz-adv-x="579" unicode="T" d="M565 700v-40h-250v-660h-51v660h-250v40h551z"/>
<glyph glyph-name="U" horiz-adv-x="712" unicode="U" d="M620 700v-466q0 -112 -75 -176.5t-189 -64.5q-116 0 -190 65t-74 176v466h51v-469q0 -89 61.5 -143t151.5 -54q91 0 152 54t61 143v469h51z"/>
<glyph glyph-name="V" horiz-adv-x="653" unicode="V" d="M627 700l-271 -700h-59l-271 700h55l246 -644l245 644h55z"/>
<glyph glyph-name="W" horiz-adv-x="964" unicode="W" d="M924 700l-203 -700h-62l-177 613l-176 -613h-62l-204 700h56l112 -392q12 -43 35.5 -129t32.5 -118h1l178 627h54l179 -627h1q10 33 33 120.5t36 131.5l111 387h55z"/>
<glyph glyph-name="X" horiz-adv-x="642" unicode="X" d="M617 700l-262 -351l263 -349h-65l-231 312l-234 -312h-61l263 342l-266 358h62l236 -321l236 321h59z"/>
<glyph glyph-name="Y" horiz-adv-x="608" unicode="Y" d="M330 0h-51v282l-251 418h53l223 -374l223 374h53l-250 -416v-284z"/>
<glyph glyph-name="Z" horiz-adv-x="608" unicode="Z" d="M563 700v-36l-466 -626l230 2h236v-40h-526v36l466 625l-225 -1h-227v40h512z"/>
<glyph glyph-name="bracketleft" horiz-adv-x="291" unicode="[" d="M241 707v-38h-104v-814h104v-39h-144v891h144z"/>
<glyph glyph-name="backslash" horiz-adv-x="475" unicode="\" d="M41 734h41l353 -768h-41z"/>
<glyph glyph-name="bracketright" horiz-adv-x="291" unicode="]" d="M194 707v-891h-144v39h103v814h-103v38h144z"/>
<glyph glyph-name="underscore" horiz-adv-x="555" unicode="_" d="M476 -95v-35h-397v35h397z"/>
<glyph glyph-name="grave" horiz-adv-x="272" unicode="`" d="M100 711h46l49 -147h-37z"/>
<glyph glyph-name="a" horiz-adv-x="576" unicode="a" d="M243 31q79 0 136 46t57 114v69q-83 11 -170 11q-176 0 -176 -121q0 -63 42.5 -91t110.5 -28zM286 526q103 0 150.5 -36t47.5 -126v-295q0 -32 35 -32q8 0 28 2l3 -35q-36 -6 -49 -6q-32 0 -48.5 16.5t-16.5 44.5v38q-25 -46 -76 -74.5t-129 -28.5q-87 0 -138 38t-51 115 q0 159 220 159q53 0 174 -11v71q0 71 -39 97t-118 26q-95 0 -183 -25l-7 36q92 26 197 26z"/>
<glyph glyph-name="b" horiz-adv-x="638" unicode="b" d="M334 489q-81 0 -140.5 -60.5t-59.5 -168.5t59 -168.5t140 -60.5q95 0 149.5 62t54.5 167t-54 167t-149 62zM135 732v-328q24 50 77 86t133 36q112 0 176 -74.5t64 -191.5q0 -120 -62.5 -193t-178.5 -73q-78 0 -130.5 35.5t-80.5 90.5l-5 -120h-41v732h48z"/>
<glyph glyph-name="c" horiz-adv-x="523" unicode="c" d="M328 526q84 0 149 -28l-11 -33q-69 24 -133 24q-107 0 -169.5 -62t-62.5 -167q0 -106 63 -167.5t173 -61.5q57 0 131 29l9 -35q-75 -31 -147 -31q-124 0 -200.5 71t-76.5 195t76.5 195t198.5 71z"/>
<glyph glyph-name="d" horiz-adv-x="638" unicode="d" d="M304 489q-95 0 -149 -62t-54 -167t54.5 -167t149.5 -62q81 0 140 60.5t59 168.5t-59.5 168.5t-140.5 60.5zM503 732h48v-732h-41l-6 120q-27 -55 -80 -90.5t-130 -35.5q-116 0 -178.5 73t-62.5 193q0 117 64 191.5t176 74.5q80 0 132.5 -36t77.5 -86v328z"/>
<glyph glyph-name="e" horiz-adv-x="593" unicode="e" d="M314 489q-93 0 -149 -55.5t-63 -155.5h396q0 93 -47 152t-137 59zM542 243h-441q1 -100 64 -156t168 -56q87 0 173 42l9 -36q-97 -43 -186 -43q-131 0 -203.5 71.5t-72.5 193.5q0 119 70.5 193t189.5 74q110 0 170.5 -71.5t60.5 -181.5q0 -22 -2 -30z"/>
<glyph glyph-name="f" horiz-adv-x="327" unicode="f" d="M234 738q36 0 79 -9l-4 -35q-31 7 -65 7q-53 0 -75 -29t-22 -85v-67h156v-35h-156v-485h-48v485h-68v35h68v65q0 77 30.5 115t104.5 38z"/>
<glyph glyph-name="g" horiz-adv-x="568" unicode="g" d="M289 52q-73 0 -121 9q-68 -40 -68 -96q0 -32 15 -53.5t43.5 -31.5t58.5 -13.5t71 -3.5q188 0 188 103q0 50 -33.5 68t-109.5 18h-44zM289 489q-164 0 -164 -127q0 -126 163 -126q165 0 165 126q0 127 -164 127zM289 526q49 0 79 -6h157v-33l-100 -1q76 -35 76 -128 q0 -76 -53 -117.5t-159 -41.5q-78 0 -126 21q-46 -24 -46 -66q0 -21 13 -34.5t39 -20t52 -8.5t64 -2h57q91 0 136.5 -26.5t45.5 -93.5q0 -143 -237 -143q-234 0 -234 135q0 61 77 111q-55 23 -55 75q0 61 58 90q-56 40 -56 125q0 82 55.5 123t156.5 41z"/>
<glyph glyph-name="h" horiz-adv-x="612" unicode="h" d="M335 526q95 0 145 -52t50 -151v-323h-48v322q0 80 -40.5 123.5t-116.5 43.5q-94 0 -142 -61t-48 -143v-285h-48v732h48v-322q55 116 200 116z"/>
<glyph glyph-name="i" horiz-adv-x="230" unicode="i" d="M140 520v-520h-48v485h-63v35h111zM114 680q32 0 32 -30q0 -29 -32 -29q-33 0 -33 29q0 30 33 30z"/>
<glyph glyph-name="j" horiz-adv-x="232" unicode="j" d="M115 680q32 0 32 -30q0 -29 -32 -29q-33 0 -33 29q0 30 33 30zM144 520v-598q0 -49 -19.5 -72t-71.5 -23h-32v37h22q34 0 43.5 13.5t9.5 50.5v557h-65v35h113z"/>
<glyph glyph-name="k" horiz-adv-x="505" unicode="k" d="M135 732v-506l299 294h54l-200 -198l207 -322h-54l-185 290l-121 -120v-170h-48v732h48z"/>
<glyph glyph-name="l" horiz-adv-x="257" unicode="l" d="M136 732v-655q0 -28 10 -37t30 -9q9 0 19 0.5t16.5 1t7.5 0.5l1 -35q-16 -4 -58 -4q-38 0 -56 17t-18 60v661h48z"/>
<glyph glyph-name="m" horiz-adv-x="908" unicode="m" d="M655 526q83 0 127.5 -50.5t44.5 -149.5v-326h-48v327q0 82 -37.5 122t-103.5 40q-75 0 -115.5 -53t-40.5 -130v-306h-48v335q0 74 -42 114t-104 40q-69 0 -111 -47t-42 -124v-318h-48v520h41l2 -93q22 48 67.5 73.5t103.5 25.5q59 0 103.5 -31.5t60.5 -94.5 q46 126 190 126z"/>
<glyph glyph-name="n" horiz-adv-x="610" unicode="n" d="M333 526q95 0 145 -52t50 -151v-323h-48v322q0 80 -40.5 123.5t-116.5 43.5q-94 0 -142 -61t-48 -143v-285h-48v520h41l4 -112q56 118 203 118z"/>
<glyph glyph-name="o" horiz-adv-x="632" unicode="o" d="M316 489q-95 0 -155 -62t-60 -168t60 -168t155 -62t155 62t60 168t-60 168t-155 62zM316 526q116 0 189.5 -72.5t73.5 -194.5t-74 -194.5t-189 -72.5t-189 72.5t-74 194.5t73.5 194.5t189.5 72.5z"/>
<glyph glyph-name="p" horiz-adv-x="636" unicode="p" d="M332 31q95 0 149 62t54 167t-54.5 167t-149.5 62q-81 0 -140 -60.5t-59 -168.5t59.5 -168.5t140.5 -60.5zM133 -170h-48v690h41l5 -120q28 55 80.5 90.5t130.5 35.5q116 0 178.5 -74t62.5 -192q0 -117 -64 -191.5t-176 -74.5q-80 0 -133 36t-77 86v-286z"/>
<glyph glyph-name="q" horiz-adv-x="636" unicode="q" d="M304 31q81 0 140.5 60.5t59.5 168.5t-59 168.5t-140 60.5q-95 0 -149.5 -62t-54.5 -167t54 -167t149 -62zM503 -170v286q-25 -50 -77.5 -86t-132.5 -36q-112 0 -176 74.5t-64 191.5q0 120 62.5 193t178.5 73q77 0 130 -36t80 -90l6 120h41v-690h-48z"/>
<glyph glyph-name="r" horiz-adv-x="328" unicode="r" d="M298 520l-2 -40q-6 1 -17 1q-66 0 -105 -53t-39 -134v-294h-48v520h39l5 -104q16 45 54.5 75t90.5 30q15 0 22 -1z"/>
<glyph glyph-name="s" horiz-adv-x="474" unicode="s" d="M237 526q93 0 172 -31l-8 -33q-66 27 -157 27q-70 0 -108 -25.5t-38 -71.5q0 -25 10.5 -43.5t29.5 -29t43.5 -18.5t53.5 -16q14 -3 21 -5q38 -10 56 -16t46.5 -18.5t41.5 -25.5t23.5 -35.5t10.5 -50.5q0 -68 -51.5 -104t-139.5 -36q-103 0 -195 41l10 33q87 -37 180 -37 q72 0 110 26.5t38 73.5q0 33 -22.5 55t-45 30t-78.5 23q-9 3 -14 4q-94 26 -124 46q-52 34 -52 98q0 67 50 103t137 36z"/>
<glyph glyph-name="t" horiz-adv-x="328" unicode="t" d="M152 670v-150h151v-35h-151v-344q0 -62 18.5 -86t68.5 -24q29 0 64 10l2 -35q-33 -12 -79 -12q-68 0 -95 33.5t-27 112.5v345h-79v35h79l7 150h41z"/>
<glyph glyph-name="u" horiz-adv-x="607" unicode="u" d="M274 -6q-95 0 -145 52t-50 151v323h48v-322q0 -80 40.5 -123.5t116.5 -43.5q94 0 142 61t48 143v285h48v-520h-41l-5 112q-56 -118 -202 -118z"/>
<glyph glyph-name="v" horiz-adv-x="520" unicode="v" d="M494 520l-206 -520h-57l-205 520h49l185 -479l185 479h49z"/>
<glyph glyph-name="w" horiz-adv-x="809" unicode="w" d="M773 520l-168 -520h-55l-146 440l-146 -440h-55l-167 520h49l148 -468l150 453h43l149 -454l149 469h49z"/>
<glyph glyph-name="x" horiz-adv-x="522" unicode="x" d="M487 520l-197 -257l200 -263h-53l-176 233l-180 -233h-49l198 258l-197 262h53l175 -230l177 230h49z"/>
<glyph glyph-name="y" horiz-adv-x="564" unicode="y" d="M523 520l-222 -557q-34 -84 -70.5 -110t-84.5 -26q-36 0 -76 8l2 37q45 -8 66 -8q41 0 66.5 26.5t48.5 82.5l10 25l-222 522h53l194 -470l186 470h49z"/>
<glyph glyph-name="z" horiz-adv-x="500" unicode="z" d="M459 520v-39l-367 -448l155 2h212v-35h-419v38l368 448l-154 -1h-207v35h412z"/>
<glyph glyph-name="braceleft" horiz-adv-x="326" unicode="{" d="M277 707v-36h-23q-53 0 -75.5 -21.5t-22.5 -68.5v-228q0 -79 -67 -90q67 -11 67 -90v-228q0 -48 22.5 -69t75.5 -21h23v-37h-26q-74 0 -104.5 32t-30.5 97v224q0 72 -73 76v32q73 4 73 76v223q0 65 30.5 97t104.5 32h26z"/>
<glyph glyph-name="bar" horiz-adv-x="231" unicode="|" d="M136 800v-949h-40v949h40z"/>
<glyph glyph-name="braceright" horiz-adv-x="326" unicode="}" d="M49 707h27q73 0 103.5 -32t30.5 -97v-223q0 -72 73 -76v-32q-73 -4 -73 -76v-224q0 -65 -30.5 -97t-103.5 -32h-27v37h24q52 0 74.5 21t22.5 69v228q0 79 67 90q-67 11 -67 90v228q0 47 -22.5 68.5t-74.5 21.5h-24v36z"/>
<glyph glyph-name="exclamdown" horiz-adv-x="241" unicode="¡" d="M120 526q16 0 25 -8t9 -22q0 -32 -34 -32q-33 0 -33 32q0 30 33 30zM141 347l5 -532h-51l5 532h41z"/>
<glyph glyph-name="cent" horiz-adv-x="575" unicode="¢" d="M328 687v-81q76 -2 144 -28l-9 -33q-69 24 -132 24q-108 0 -170 -62t-62 -167q0 -106 62.5 -167.5t171.5 -61.5q62 0 131 28l9 -34q-75 -31 -145 -31v-80h-30v81q-113 8 -180 78t-67 187q0 116 67.5 186.5t179.5 78.5v82h30z"/>
<glyph glyph-name="sterling" horiz-adv-x="601" unicode="£" d="M449 347v-29h-264q13 -58 13 -116q0 -18 -2 -34.5t-6 -29.5t-8 -24.5t-10 -21t-11 -16.5t-12 -14t-10 -10.5t-9 -8t-7 -5.5h407v-38h-474v35q4 1 10 4t22 15t28 28.5t22 47t10 68.5q0 61 -13 120h-71v29h63q-18 78 -18 154q0 90 63.5 148t165.5 58q93 0 163 -48l-19 -34 q-64 42 -142 42q-82 0 -131.5 -47.5t-49.5 -117.5q0 -73 19 -155h271z"/>
<glyph glyph-name="yen" horiz-adv-x="620" unicode="¥" d="M584 702l-248 -415v-37h137v-25h-137v-62h137v-25h-137v-138h-51v138h-137v25h137v62h-137v25h137v37l-249 415h54l220 -370l220 370h54z"/>
<glyph glyph-name="section" horiz-adv-x="601" unicode="§" d="M492 242q0 34 -18.5 60t-54 43t-70.5 28t-84 25.5t-78 25.5q-81 -65 -81 -136q0 -34 18.5 -60t54 -43t70 -28t83.5 -25.5t78 -25.5q82 65 82 136zM305 702q101 0 208 -45l-15 -37q-94 40 -191 40q-181 0 -181 -111q0 -17 6 -31.5t19.5 -26t27 -19.5t37 -16.5t39.5 -13.5 t46 -13t45 -13q89 -25 139 -61.5t50 -106.5q0 -46 -30 -89t-61 -67q81 -42 81 -112q0 -151 -233 -151q-103 0 -207 44l15 37q91 -40 191 -40q84 0 132.5 27t48.5 84q0 21 -10.5 37.5t-23.5 27.5t-40 22t-45 16.5t-54.5 15.5t-52.5 15q-41 12 -69 24t-56.5 31t-43 47 t-14.5 65q0 46 30 90t61 66q-81 40 -81 112q0 152 232 152z"/>
<glyph glyph-name="dieresis" horiz-adv-x="406" unicode="¨" d="M298 649q28 0 28 -28q0 -27 -28 -27q-13 0 -21 7.5t-8 19.5t8 20t21 8zM107 649q14 0 22 -8t8 -20t-8 -19.5t-22 -7.5q-13 0 -20.5 7.5t-7.5 19.5q0 28 28 28z"/>
<glyph glyph-name="copyright" horiz-adv-x="831" unicode="©" d="M417 682q-138 0 -233.5 -94.5t-95.5 -234.5q0 -141 95 -234.5t234 -93.5t234 93.5t95 234.5q0 140 -95.5 234.5t-233.5 94.5zM436 528q54 0 97 -19l-7 -26q-39 16 -85 16q-68 0 -107 -39t-39 -105t38.5 -105t108.5 -39q41 0 85 18l7 -27q-45 -20 -97 -20 q-80 0 -129.5 46.5t-49.5 126.5q0 81 49.5 127t128.5 46zM416 706q150 0 251.5 -100.5t101.5 -252.5q0 -151 -102 -252t-251 -101q-148 0 -250 101t-102 252q0 152 101.5 252.5t250.5 100.5z"/>
<glyph glyph-name="ordfeminine" horiz-adv-x="491" unicode="ª" d="M405 265v-31h-320v31h320zM244 554q-126 0 -126 -81q0 -39 27.5 -59.5t69.5 -20.5q51 0 85.5 30t34.5 74v48q-50 9 -91 9zM243 730q67 0 97.5 -28t30.5 -87v-197q0 -20 18 -20q13 0 19 2v-28q-20 -5 -34 -5q-35 0 -36 38v25q-17 -30 -51.5 -47.5t-77.5 -17.5 q-54 0 -90 26.5t-36 80.5q0 107 156 107q49 0 97 -8v33q0 49 -21.5 72t-79.5 23q-62 0 -117 -19l-7 29q65 21 132 21z"/>
<glyph glyph-name="guillemotleft" horiz-adv-x="550" unicode="«" d="M254 489l27 -26l-168 -203l168 -203l-27 -26l-198 224v10zM459 489l27 -26l-168 -203l168 -203l-27 -26l-198 224v10z"/>
<glyph glyph-name="registered" horiz-adv-x="610" unicode="®" d="M329 608h-81v-98h82q20 0 33.5 14.5t13.5 34.5q0 23 -13.5 36t-34.5 13zM226 627h105q28 0 47.5 -19.5t19.5 -48.5q0 -51 -46 -65l43 -97h-25l-39 94h-83v-94h-22v230zM305 715q-89 0 -147 -59.5t-58 -147.5q0 -87 58.5 -146.5t146.5 -59.5t146.5 59.5t58.5 146.5 q0 88 -58 147.5t-147 59.5zM305 733q97 0 161 -64t64 -161q0 -96 -64 -160t-161 -64t-161 64t-64 160q0 97 64 161t161 64z"/>
<glyph glyph-name="macron" horiz-adv-x="458" unicode="¯" d="M374 648v-32h-290v32h290z"/>
<glyph glyph-name="degree" horiz-adv-x="303" unicode="°" d="M152 683q-40 0 -68 -27t-28 -72t28 -72t67 -27q40 0 68 27.5t28 72.5t-28 71.5t-67 26.5zM152 711q57 0 94 -34t37 -93q0 -58 -37 -92.5t-94 -34.5t-94.5 34.5t-37.5 93.5q0 58 37.5 92t94.5 34z"/>
<glyph glyph-name="plusminus" horiz-adv-x="497" unicode="±" d="M265 540v-161h191v-36h-191v-159h-36v159h-189v36h189v161h36zM456 126v-33h-416v33h416z"/>
<glyph glyph-name="acute" horiz-adv-x="256" unicode="´" d="M186 712l-71 -148h-36l61 148h46z"/>
<glyph glyph-name="mu" horiz-adv-x="614" unicode="µ" d="M539 520v-520h-35l-7 115q-21 -53 -71.5 -87.5t-108.5 -34.5q-63 0 -108.5 25.5t-65.5 73.5v-264h-48v692h48v-305q0 -85 43.5 -134.5t131.5 -49.5q72 0 122.5 54.5t50.5 124.5v310h48z"/>
<glyph glyph-name="paragraph" horiz-adv-x="530" unicode="¶" d="M385 -87v753h-97v-753h-38v396h-34q-81 3 -126 60t-45 140q0 86 52 139.5t129 53.5h197v-789h-38z"/>
<glyph glyph-name="periodcentered" horiz-adv-x="239" unicode="·" d="M119 341q18 0 30 -12t12 -30t-12 -30.5t-30 -12.5t-30 12.5t-12 30.5t12 30t30 12z"/>
<glyph glyph-name="cedilla" horiz-adv-x="313" unicode="¸" d="M175 2l-22 -69h12q72 0 72 -60q0 -66 -90 -66q-37 0 -71 14l5 27q30 -12 62 -12q56 0 56 36q0 35 -45 35q-10 0 -26 -2l-11 17l26 80h32z"/>
<glyph glyph-name="ordmasculine" horiz-adv-x="545" unicode="º" d="M273 698q-69 0 -109 -41.5t-40 -108.5q0 -68 39.5 -109.5t109.5 -41.5t109 41.5t39 109.5q0 67 -39.5 108.5t-108.5 41.5zM457 265v-31h-369v31h369zM273 730q84 0 135 -50.5t51 -133.5q0 -81 -51 -131t-135 -50t-135.5 50t-51.5 131q0 83 51 133.5t136 50.5z"/>
<glyph glyph-name="guillemotright" horiz-adv-x="550" unicode="»" d="M90 489l199 -224v-10l-198 -224l-27 26l168 203l-168 203zM295 489l199 -224v-10l-198 -224l-27 26l168 203l-168 203z"/>
<glyph glyph-name="questiondown" horiz-adv-x="474" unicode="¿" d="M267 526q34 0 34 -31q0 -32 -34 -32q-33 0 -33 32q0 31 33 31zM288 347v-77q0 -42 -19.5 -75.5t-47.5 -55.5t-56 -43.5t-47.5 -51.5t-19.5 -68q0 -61 45 -92t110 -31q78 0 152 45l15 -36q-72 -50 -169 -50q-84 0 -142 40.5t-58 121.5q0 32 11 59t28 45.5t38 35t42 32 t38 32.5t28 40.5t11 52.5v76h41z"/>
<glyph glyph-name="Agrave" horiz-adv-x="674" unicode="À" d="M320 852l49 -108h-37l-58 108h46zM336 660l-173 -426h347l-173 426h-1zM369 704l289 -704h-53l-79 194h-379l-79 -194h-52l289 704h64z"/>
<glyph glyph-name="Aacute" horiz-adv-x="674" unicode="Á" d="M429 854l-71 -110h-36l61 110h46zM336 660l-173 -426h347l-173 426h-1zM369 704l289 -704h-53l-79 194h-379l-79 -194h-52l289 704h64z"/>
<glyph glyph-name="Acircumflex" horiz-adv-x="674" unicode="Â" d="M466 744h-49l-79 86l-80 -86h-49l106 110h45zM336 660l-173 -426h347l-173 426h-1zM369 704l289 -704h-53l-79 194h-379l-79 -194h-52l289 704h64z"/>
<glyph glyph-name="Atilde" horiz-adv-x="674" unicode="Ã" d="M453 846l21 -9q-22 -61 -77 -61q-19 0 -66 20q-44 20 -62 20q-33 0 -50 -33l-21 8q21 61 76 61q25 0 67 -20q38 -20 62 -20q32 0 50 34zM336 660l-173 -426h347l-173 426h-1zM369 704l289 -704h-53l-79 194h-379l-79 -194h-52l289 704h64z"/>
<glyph glyph-name="Adieresis" horiz-adv-x="674" unicode="Ä" d="M431 829q28 0 28 -28q0 -27 -28 -27q-13 0 -21 7.5t-8 19.5t8 20t21 8zM240 829q14 0 22 -8t8 -20t-8 -19.5t-22 -7.5q-13 0 -20.5 7.5t-7.5 19.5q0 28 28 28zM336 660l-173 -426h347l-173 426h-1zM369 704l289 -704h-53l-79 194h-379l-79 -194h-52l289 704h64z"/>
<glyph glyph-name="Aring" horiz-adv-x="674" unicode="Å" d="M336 886q-22 0 -38 -14.5t-16 -41.5t16 -42t38 -15t38 15t16 42t-16 41.5t-38 14.5zM336 912q38 0 63 -22t25 -60q0 -39 -25 -61t-63 -22q-39 0 -63.5 22t-24.5 61t24.5 60.5t63.5 21.5zM336 660l-173 -426h347l-173 426h-1zM369 704l289 -704h-53l-79 194h-379l-79 -194 h-52l289 704h64z"/>
<glyph glyph-name="AE" horiz-adv-x="1015" unicode="Æ" d="M467 660l-256 -414h261v414h-5zM60 0h-52l428 700h513v-40h-426v-299h367v-40h-367v-281h442v-40h-493v206h-285z"/>
<glyph glyph-name="Ccedilla" horiz-adv-x="676" unicode="Ç" d="M426 707q114 0 198 -37l-13 -38q-78 34 -174 34q-149 0 -237.5 -87.5t-88.5 -228.5t88.5 -228.5t235.5 -87.5q99 0 180 33l10 -39q-91 -35 -198 -35q-3 0 -7 0.5t-7 0.5l-19 -61h12q72 0 72 -60q0 -66 -90 -66q-37 0 -71 14l5 27q30 -12 62 -12q56 0 56 36q0 35 -45 35 q-10 0 -26 -2l-11 17l24 74q-146 13 -235 108.5t-89 245.5q0 162 103.5 259.5t264.5 97.5z"/>
<glyph glyph-name="Egrave" horiz-adv-x="651" unicode="È" d="M334 852l49 -108h-37l-58 108h46zM582 700v-40h-426v-299h367v-40h-367v-281h443v-40h-494v700h477z"/>
<glyph glyph-name="Eacute" horiz-adv-x="651" unicode="É" d="M423 854l-71 -110h-36l61 110h46zM582 700v-40h-426v-299h367v-40h-367v-281h443v-40h-494v700h477z"/>
<glyph glyph-name="Ecircumflex" horiz-adv-x="651" unicode="Ê" d="M480 744h-49l-79 86l-80 -86h-49l106 110h45zM582 700v-40h-426v-299h367v-40h-367v-281h443v-40h-494v700h477z"/>
<glyph glyph-name="Edieresis" horiz-adv-x="651" unicode="Ë" d="M445 829q28 0 28 -28q0 -27 -28 -27q-13 0 -21 7.5t-8 19.5t8 20t21 8zM254 829q14 0 22 -8t8 -20t-8 -19.5t-22 -7.5q-13 0 -20.5 7.5t-7.5 19.5q0 28 28 28zM582 700v-40h-426v-299h367v-40h-367v-281h443v-40h-494v700h477z"/>
<glyph glyph-name="Igrave" horiz-adv-x="261" unicode="Ì" d="M115 852l49 -108h-37l-58 108h46zM156 700v-700h-51v700h51z"/>
<glyph glyph-name="Iacute" horiz-adv-x="261" unicode="Í" d="M224 854l-71 -110h-36l61 110h46zM156 700v-700h-51v700h51z"/>
<glyph glyph-name="Icircumflex" horiz-adv-x="261" unicode="Î" d="M261 744h-49l-79 86l-80 -86h-49l106 110h45zM156 700v-700h-51v700h51z"/>
<glyph glyph-name="Idieresis" horiz-adv-x="261" unicode="Ï" d="M226 829q28 0 28 -28q0 -27 -28 -27q-13 0 -21 7.5t-8 19.5t8 20t21 8zM35 829q14 0 22 -8t8 -20t-8 -19.5t-22 -7.5q-13 0 -20.5 7.5t-7.5 19.5q0 28 28 28zM156 700v-700h-51v700h51z"/>
<glyph glyph-name="Eth" horiz-adv-x="751" unicode="Ð" d="M372 659h-216v-301h176v-32h-176v-285h215q44 0 93.5 19t82.5 50q43 40 66.5 104t23.5 137q0 87 -32 156t-91 108q-71 44 -142 44zM105 700h275q81 0 156 -44q76 -46 115 -126t39 -179q0 -102 -38.5 -183t-116.5 -124q-74 -44 -155 -44h-275v326h-92v32h92v342z"/>
<glyph glyph-name="Ntilde" horiz-adv-x="739" unicode="Ñ" d="M498 846l21 -9q-22 -61 -77 -61q-19 0 -66 20q-44 20 -62 20q-33 0 -50 -33l-21 8q21 61 76 61q25 0 67 -20q38 -20 62 -20q32 0 50 34zM634 700v-700h-54l-424 622v-622h-51v700h54l424 -619v619h51z"/>
<glyph glyph-name="Ograve" horiz-adv-x="794" unicode="Ò" d="M397 852l49 -108h-37l-58 108h46zM397 666q-132 0 -213 -85.5t-81 -232.5q0 -145 81 -229.5t213 -84.5q133 0 213.5 84t80.5 230q0 147 -80.5 232.5t-213.5 85.5zM397 707q156 0 251.5 -97.5t95.5 -261.5q0 -163 -95 -259t-252 -96q-156 0 -251.5 96.5t-95.5 258.5 q0 164 96 261.5t251 97.5z"/>
<glyph glyph-name="Oacute" horiz-adv-x="794" unicode="Ó" d="M468 854l-71 -110h-36l61 110h46zM397 666q-132 0 -213 -85.5t-81 -232.5q0 -145 81 -229.5t213 -84.5q133 0 213.5 84t80.5 230q0 147 -80.5 232.5t-213.5 85.5zM397 707q156 0 251.5 -97.5t95.5 -261.5q0 -163 -95 -259t-252 -96q-156 0 -251.5 96.5t-95.5 258.5 q0 164 96 261.5t251 97.5z"/>
<glyph glyph-name="Ocircumflex" horiz-adv-x="794" unicode="Ô" d="M527 744h-49l-79 86l-80 -86h-49l106 110h45zM397 666q-132 0 -213 -85.5t-81 -232.5q0 -145 81 -229.5t213 -84.5q133 0 213.5 84t80.5 230q0 147 -80.5 232.5t-213.5 85.5zM397 707q156 0 251.5 -97.5t95.5 -261.5q0 -163 -95 -259t-252 -96q-156 0 -251.5 96.5 t-95.5 258.5q0 164 96 261.5t251 97.5z"/>
<glyph glyph-name="Otilde" horiz-adv-x="794" unicode="Õ" d="M516 846l21 -9q-22 -61 -77 -61q-19 0 -66 20q-44 20 -62 20q-33 0 -50 -33l-21 8q21 61 76 61q25 0 67 -20q38 -20 62 -20q32 0 50 34zM397 666q-132 0 -213 -85.5t-81 -232.5q0 -145 81 -229.5t213 -84.5q133 0 213.5 84t80.5 230q0 147 -80.5 232.5t-213.5 85.5z M397 707q156 0 251.5 -97.5t95.5 -261.5q0 -163 -95 -259t-252 -96q-156 0 -251.5 96.5t-95.5 258.5q0 164 96 261.5t251 97.5z"/>
<glyph glyph-name="Odieresis" horiz-adv-x="794" unicode="Ö" d="M492 829q28 0 28 -28q0 -27 -28 -27q-13 0 -21 7.5t-8 19.5t8 20t21 8zM301 829q14 0 22 -8t8 -20t-8 -19.5t-22 -7.5q-13 0 -20.5 7.5t-7.5 19.5q0 28 28 28zM397 666q-132 0 -213 -85.5t-81 -232.5q0 -145 81 -229.5t213 -84.5q133 0 213.5 84t80.5 230 q0 147 -80.5 232.5t-213.5 85.5zM397 707q156 0 251.5 -97.5t95.5 -261.5q0 -163 -95 -259t-252 -96q-156 0 -251.5 96.5t-95.5 258.5q0 164 96 261.5t251 97.5z"/>
<glyph glyph-name="multiply" horiz-adv-x="484" unicode="×" d="M54 496l25 26l162 -164l163 164l26 -26l-163 -164l163 -163l-26 -26l-163 163l-162 -163l-25 26l162 163z"/>
<glyph glyph-name="Oslash" horiz-adv-x="794" unicode="Ø" d="M397 666q-132 0 -213 -85.5t-81 -232.5q0 -170 109 -255l343 532q-69 41 -158 41zM691 348q0 174 -111 260l-344 -532q68 -42 161 -42q133 0 213.5 84t80.5 230zM397 707q103 0 182 -45l44 67h35l-53 -83q66 -47 102.5 -123t36.5 -175q0 -163 -95 -259t-252 -96 q-104 0 -185 45l-43 -67h-35l53 83q-137 96 -137 294q0 164 96 261.5t251 97.5z"/>
<glyph glyph-name="Ugrave" horiz-adv-x="712" unicode="Ù" d="M340 852l49 -108h-37l-58 108h46zM620 700v-466q0 -112 -75 -176.5t-189 -64.5q-116 0 -190 65t-74 176v466h51v-469q0 -89 61.5 -143t151.5 -54q91 0 152 54t61 143v469h51z"/>
<glyph glyph-name="Uacute" horiz-adv-x="712" unicode="Ú" d="M449 854l-71 -110h-36l61 110h46zM620 700v-466q0 -112 -75 -176.5t-189 -64.5q-116 0 -190 65t-74 176v466h51v-469q0 -89 61.5 -143t151.5 -54q91 0 152 54t61 143v469h51z"/>
<glyph glyph-name="Ucircumflex" horiz-adv-x="712" unicode="Û" d="M486 744h-49l-79 86l-80 -86h-49l106 110h45zM620 700v-466q0 -112 -75 -176.5t-189 -64.5q-116 0 -190 65t-74 176v466h51v-469q0 -89 61.5 -143t151.5 -54q91 0 152 54t61 143v469h51z"/>
<glyph glyph-name="Udieresis" horiz-adv-x="712" unicode="Ü" d="M451 829q28 0 28 -28q0 -27 -28 -27q-13 0 -21 7.5t-8 19.5t8 20t21 8zM260 829q14 0 22 -8t8 -20t-8 -19.5t-22 -7.5q-13 0 -20.5 7.5t-7.5 19.5q0 28 28 28zM620 700v-466q0 -112 -75 -176.5t-189 -64.5q-116 0 -190 65t-74 176v466h51v-469q0 -89 61.5 -143t151.5 -54 q91 0 152 54t61 143v469h51z"/>
<glyph glyph-name="Yacute" horiz-adv-x="608" unicode="Ý" d="M398 854l-71 -110h-36l61 110h46zM330 0h-51v282l-251 418h53l223 -374l223 374h53l-250 -416v-284z"/>
<glyph glyph-name="Thorn" horiz-adv-x="668" unicode="Þ" d="M156 189h271q68 0 109 47.5t41 118.5t-41 118.5t-109 47.5h-271v-332zM156 561h278q89 0 142.5 -59.5t53.5 -146.5q0 -86 -53.5 -146t-141.5 -60h-279v-149h-51v700h51v-139z"/>
<glyph glyph-name="germandbls" horiz-adv-x="582" unicode="ß" d="M287 707q77 0 125.5 -39.5t48.5 -106.5q0 -32 -12 -58.5t-27 -41.5t-27 -36.5t-12 -44.5q0 -34 17 -59t41.5 -43t49 -36.5t41.5 -50t17 -73.5q0 -68 -43.5 -106.5t-128.5 -38.5q-81 0 -148 25l6 38q14 -7 54 -16.5t80 -9.5q65 0 98.5 29t33.5 82q0 37 -17 64.5 t-40.5 45.5t-47.5 35t-41 44t-17 63q0 32 19 60t38 58t19 66q0 55 -35 84t-91 29q-24 0 -46.5 -6t-48.5 -22t-42 -51t-16 -85v-506h-48v506q0 59 19.5 101.5t51.5 62.5t63.5 28.5t65.5 8.5z"/>
<glyph glyph-name="agrave" horiz-adv-x="576" unicode="à" d="M237 730h46l49 -147h-37zM243 31q79 0 136 46t57 114v69q-83 11 -170 11q-176 0 -176 -121q0 -63 42.5 -91t110.5 -28zM286 526q103 0 150.5 -36t47.5 -126v-295q0 -32 35 -32q8 0 28 2l3 -35q-36 -6 -49 -6q-32 0 -48.5 16.5t-16.5 44.5v38q-25 -46 -76 -74.5 t-129 -28.5q-87 0 -138 38t-51 115q0 159 220 159q53 0 174 -11v71q0 71 -39 97t-118 26q-95 0 -183 -25l-7 36q92 26 197 26z"/>
<glyph glyph-name="aacute" horiz-adv-x="576" unicode="á" d="M383 731l-71 -148h-36l61 148h46zM243 31q79 0 136 46t57 114v69q-83 11 -170 11q-176 0 -176 -121q0 -63 42.5 -91t110.5 -28zM286 526q103 0 150.5 -36t47.5 -126v-295q0 -32 35 -32q8 0 28 2l3 -35q-36 -6 -49 -6q-32 0 -48.5 16.5t-16.5 44.5v38q-25 -46 -76 -74.5 t-129 -28.5q-87 0 -138 38t-51 115q0 159 220 159q53 0 174 -11v71q0 71 -39 97t-118 26q-95 0 -183 -25l-7 36q92 26 197 26z"/>
<glyph glyph-name="acircumflex" horiz-adv-x="576" unicode="â" d="M320 732l106 -149h-47l-81 123l-82 -123h-47l106 149h45zM243 31q79 0 136 46t57 114v69q-83 11 -170 11q-176 0 -176 -121q0 -63 42.5 -91t110.5 -28zM286 526q103 0 150.5 -36t47.5 -126v-295q0 -32 35 -32q8 0 28 2l3 -35q-36 -6 -49 -6q-32 0 -48.5 16.5t-16.5 44.5 v38q-25 -46 -76 -74.5t-129 -28.5q-87 0 -138 38t-51 115q0 159 220 159q53 0 174 -11v71q0 71 -39 97t-118 26q-95 0 -183 -25l-7 36q92 26 197 26z"/>
<glyph glyph-name="atilde" horiz-adv-x="576" unicode="ã" d="M411 685l21 -9q-22 -61 -77 -61q-19 0 -66 20q-44 20 -62 20q-33 0 -50 -33l-21 8q21 61 76 61q25 0 67 -20q38 -20 62 -20q32 0 50 34zM243 31q79 0 136 46t57 114v69q-83 11 -170 11q-176 0 -176 -121q0 -63 42.5 -91t110.5 -28zM286 526q103 0 150.5 -36t47.5 -126 v-295q0 -32 35 -32q8 0 28 2l3 -35q-36 -6 -49 -6q-32 0 -48.5 16.5t-16.5 44.5v38q-25 -46 -76 -74.5t-129 -28.5q-87 0 -138 38t-51 115q0 159 220 159q53 0 174 -11v71q0 71 -39 97t-118 26q-95 0 -183 -25l-7 36q92 26 197 26z"/>
<glyph glyph-name="adieresis" horiz-adv-x="576" unicode="ä" d="M390 668q28 0 28 -28q0 -27 -28 -27q-13 0 -21 7.5t-8 19.5t8 20t21 8zM199 668q14 0 22 -8t8 -20t-8 -19.5t-22 -7.5q-13 0 -20.5 7.5t-7.5 19.5q0 28 28 28zM243 31q79 0 136 46t57 114v69q-83 11 -170 11q-176 0 -176 -121q0 -63 42.5 -91t110.5 -28zM286 526 q103 0 150.5 -36t47.5 -126v-295q0 -32 35 -32q8 0 28 2l3 -35q-36 -6 -49 -6q-32 0 -48.5 16.5t-16.5 44.5v38q-25 -46 -76 -74.5t-129 -28.5q-87 0 -138 38t-51 115q0 159 220 159q53 0 174 -11v71q0 71 -39 97t-118 26q-95 0 -183 -25l-7 36q92 26 197 26z"/>
<glyph glyph-name="aring" horiz-adv-x="576" unicode="å" d="M301 725q-22 0 -38 -14.5t-16 -41.5t16 -42t38 -15t38 15t16 42t-16 41.5t-38 14.5zM301 751q38 0 63 -22t25 -60q0 -39 -25 -61t-63 -22q-39 0 -63.5 22t-24.5 61t24.5 60.5t63.5 21.5zM243 31q79 0 136 46t57 114v69q-83 11 -170 11q-176 0 -176 -121q0 -63 42.5 -91 t110.5 -28zM286 526q103 0 150.5 -36t47.5 -126v-295q0 -32 35 -32q8 0 28 2l3 -35q-36 -6 -49 -6q-32 0 -48.5 16.5t-16.5 44.5v38q-25 -46 -76 -74.5t-129 -28.5q-87 0 -138 38t-51 115q0 159 220 159q53 0 174 -11v71q0 71 -39 97t-118 26q-95 0 -183 -25l-7 36 q92 26 197 26z"/>
<glyph glyph-name="ae" horiz-adv-x="942" unicode="æ" d="M243 31q61 0 111.5 29.5t70.5 77.5q-23 56 -23 121v5q-77 7 -136 7q-176 0 -176 -121q0 -63 42.5 -91t110.5 -28zM451 278h396q0 93 -47 152t-137 59q-93 0 -149 -55.5t-63 -155.5zM893 273q0 -22 -2 -30h-441q1 -100 64 -156t168 -56q87 0 173 42l9 -36 q-97 -43 -186 -43q-163 0 -235 109q-26 -48 -79 -78.5t-133 -30.5q-87 0 -138 38t-51 115q0 159 220 159q63 0 142 -7q6 54 30 99q-8 52 -46.5 71.5t-108.5 19.5q-95 0 -183 -25l-7 36q92 26 197 26q147 0 183 -78q72 78 193 78q110 0 170.5 -71.5t60.5 -181.5z"/>
<glyph glyph-name="ccedilla" horiz-adv-x="523" unicode="ç" d="M328 526q84 0 149 -28l-11 -33q-69 24 -133 24q-107 0 -169.5 -62t-62.5 -167q0 -106 63 -167.5t173 -61.5q57 0 131 29l9 -35q-75 -31 -147 -31h-9l-19 -61h12q72 0 72 -60q0 -66 -90 -66q-37 0 -71 14l5 27q30 -12 62 -12q56 0 56 36q0 35 -45 35q-10 0 -26 -2l-11 17 l24 74q-108 11 -172.5 81t-64.5 183q0 124 76.5 195t198.5 71z"/>
<glyph glyph-name="egrave" horiz-adv-x="593" unicode="è" d="M259 730h46l49 -147h-37zM314 489q-93 0 -149 -55.5t-63 -155.5h396q0 93 -47 152t-137 59zM542 243h-441q1 -100 64 -156t168 -56q87 0 173 42l9 -36q-97 -43 -186 -43q-131 0 -203.5 71.5t-72.5 193.5q0 119 70.5 193t189.5 74q110 0 170.5 -71.5t60.5 -181.5 q0 -22 -2 -30z"/>
<glyph glyph-name="eacute" horiz-adv-x="593" unicode="é" d="M365 731l-71 -148h-36l61 148h46zM314 489q-93 0 -149 -55.5t-63 -155.5h396q0 93 -47 152t-137 59zM542 243h-441q1 -100 64 -156t168 -56q87 0 173 42l9 -36q-97 -43 -186 -43q-131 0 -203.5 71.5t-72.5 193.5q0 119 70.5 193t189.5 74q110 0 170.5 -71.5t60.5 -181.5 q0 -22 -2 -30z"/>
<glyph glyph-name="ecircumflex" horiz-adv-x="593" unicode="ê" d="M328 732l106 -149h-47l-81 123l-82 -123h-47l106 149h45zM314 489q-93 0 -149 -55.5t-63 -155.5h396q0 93 -47 152t-137 59zM542 243h-441q1 -100 64 -156t168 -56q87 0 173 42l9 -36q-97 -43 -186 -43q-131 0 -203.5 71.5t-72.5 193.5q0 119 70.5 193t189.5 74 q110 0 170.5 -71.5t60.5 -181.5q0 -22 -2 -30z"/>
<glyph glyph-name="edieresis" horiz-adv-x="593" unicode="ë" d="M405 668q28 0 28 -28q0 -27 -28 -27q-13 0 -21 7.5t-8 19.5t8 20t21 8zM214 668q14 0 22 -8t8 -20t-8 -19.5t-22 -7.5q-13 0 -20.5 7.5t-7.5 19.5q0 28 28 28zM314 489q-93 0 -149 -55.5t-63 -155.5h396q0 93 -47 152t-137 59zM542 243h-441q1 -100 64 -156t168 -56 q87 0 173 42l9 -36q-97 -43 -186 -43q-131 0 -203.5 71.5t-72.5 193.5q0 119 70.5 193t189.5 74q110 0 170.5 -71.5t60.5 -181.5q0 -22 -2 -30z"/>
<glyph glyph-name="igrave" horiz-adv-x="226" unicode="ì" d="M46 730h46l49 -147h-37zM142 520v-520h-48v485h-63v35h111z"/>
<glyph glyph-name="iacute" horiz-adv-x="226" unicode="í" d="M201 731l-71 -148h-36l61 148h46zM142 520v-520h-48v485h-63v35h111z"/>
<glyph glyph-name="icircumflex" horiz-adv-x="226" unicode="î" d="M131 732l106 -149h-47l-81 123l-82 -123h-47l106 149h45zM142 520v-520h-48v485h-63v35h111z"/>
<glyph glyph-name="idieresis" horiz-adv-x="226" unicode="ï" d="M203 668q28 0 28 -28q0 -27 -28 -27q-13 0 -21 7.5t-8 19.5t8 20t21 8zM12 668q14 0 22 -8t8 -20t-8 -19.5t-22 -7.5q-13 0 -20.5 7.5t-7.5 19.5q0 28 28 28zM142 520v-520h-48v485h-63v35h111z"/>
<glyph glyph-name="eth" horiz-adv-x="601" unicode="ð" d="M298 441q-87 0 -138.5 -55.5t-51.5 -147.5q0 -91 50 -149t140 -58t141 56.5t51 151.5q0 94 -51.5 148t-140.5 54zM451 749l12 -18l-86 -58q167 -157 167 -388q0 -148 -65 -219.5t-181 -71.5q-113 0 -176 67t-63 177q0 112 65.5 176t165.5 64q75 0 127 -31.5t77 -78.5 q-13 102 -65 185q-32 52 -82 100l-103 -69l-12 17l98 66q-58 51 -131 89l32 19q71 -36 130 -87z"/>
<glyph glyph-name="ntilde" horiz-adv-x="610" unicode="ñ" d="M426 685l21 -9q-22 -61 -77 -61q-19 0 -66 20q-44 20 -62 20q-33 0 -50 -33l-21 8q21 61 76 61q25 0 67 -20q38 -20 62 -20q32 0 50 34zM333 526q95 0 145 -52t50 -151v-323h-48v322q0 80 -40.5 123.5t-116.5 43.5q-94 0 -142 -61t-48 -143v-285h-48v520h41l4 -112 q56 118 203 118z"/>
<glyph glyph-name="ograve" horiz-adv-x="632" unicode="ò" d="M257 730h46l49 -147h-37zM316 489q-95 0 -155 -62t-60 -168t60 -168t155 -62t155 62t60 168t-60 168t-155 62zM316 526q116 0 189.5 -72.5t73.5 -194.5t-74 -194.5t-189 -72.5t-189 72.5t-74 194.5t73.5 194.5t189.5 72.5z"/>
<glyph glyph-name="oacute" horiz-adv-x="632" unicode="ó" d="M368 731l-71 -148h-36l61 148h46zM316 489q-95 0 -155 -62t-60 -168t60 -168t155 -62t155 62t60 168t-60 168t-155 62zM316 526q116 0 189.5 -72.5t73.5 -194.5t-74 -194.5t-189 -72.5t-189 72.5t-74 194.5t73.5 194.5t189.5 72.5z"/>
<glyph glyph-name="ocircumflex" horiz-adv-x="632" unicode="ô" d="M340 732l106 -149h-47l-81 123l-82 -123h-47l106 149h45zM316 489q-95 0 -155 -62t-60 -168t60 -168t155 -62t155 62t60 168t-60 168t-155 62zM316 526q116 0 189.5 -72.5t73.5 -194.5t-74 -194.5t-189 -72.5t-189 72.5t-74 194.5t73.5 194.5t189.5 72.5z"/>
<glyph glyph-name="otilde" horiz-adv-x="632" unicode="õ" d="M432 685l21 -9q-22 -61 -77 -61q-19 0 -66 20q-44 20 -62 20q-33 0 -50 -33l-21 8q21 61 76 61q25 0 67 -20q38 -20 62 -20q32 0 50 34zM316 489q-95 0 -155 -62t-60 -168t60 -168t155 -62t155 62t60 168t-60 168t-155 62zM316 526q116 0 189.5 -72.5t73.5 -194.5 t-74 -194.5t-189 -72.5t-189 72.5t-74 194.5t73.5 194.5t189.5 72.5z"/>
<glyph glyph-name="odieresis" horiz-adv-x="632" unicode="ö" d="M411 668q28 0 28 -28q0 -27 -28 -27q-13 0 -21 7.5t-8 19.5t8 20t21 8zM220 668q14 0 22 -8t8 -20t-8 -19.5t-22 -7.5q-13 0 -20.5 7.5t-7.5 19.5q0 28 28 28zM316 489q-95 0 -155 -62t-60 -168t60 -168t155 -62t155 62t60 168t-60 168t-155 62zM316 526 q116 0 189.5 -72.5t73.5 -194.5t-74 -194.5t-189 -72.5t-189 72.5t-74 194.5t73.5 194.5t189.5 72.5z"/>
<glyph glyph-name="divide" horiz-adv-x="586" unicode="÷" d="M294 521q30 0 30 -30q0 -31 -30 -31q-31 0 -31 31q0 13 8.5 21.5t22.5 8.5zM294 185q30 0 30 -29q0 -31 -30 -31q-31 0 -31 31q0 13 8.5 21t22.5 8zM507 337v-34h-427v34h427z"/>
<glyph glyph-name="oslash" horiz-adv-x="632" unicode="ø" d="M316 489q-95 0 -155 -62t-60 -168q0 -121 76 -184l249 386q-50 28 -110 28zM531 259q0 126 -85 190l-249 -388q50 -32 119 -32q95 0 155 62t60 168zM316 526q73 0 132 -31l37 57h28l-45 -69q111 -72 111 -224q0 -122 -74 -194.5t-189 -72.5q-81 0 -141 36l-40 -62h-28 l48 74q-102 74 -102 219q0 122 73.5 194.5t189.5 72.5z"/>
<glyph glyph-name="ugrave" horiz-adv-x="607" unicode="ù" d="M248 730h46l49 -147h-37zM274 -6q-95 0 -145 52t-50 151v323h48v-322q0 -80 40.5 -123.5t116.5 -43.5q94 0 142 61t48 143v285h48v-520h-41l-5 112q-56 -118 -202 -118z"/>
<glyph glyph-name="uacute" horiz-adv-x="607" unicode="ú" d="M373 731l-71 -148h-36l61 148h46zM274 -6q-95 0 -145 52t-50 151v323h48v-322q0 -80 40.5 -123.5t116.5 -43.5q94 0 142 61t48 143v285h48v-520h-41l-5 112q-56 -118 -202 -118z"/>
<glyph glyph-name="ucircumflex" horiz-adv-x="607" unicode="û" d="M327 732l106 -149h-47l-81 123l-82 -123h-47l106 149h45zM274 -6q-95 0 -145 52t-50 151v323h48v-322q0 -80 40.5 -123.5t116.5 -43.5q94 0 142 61t48 143v285h48v-520h-41l-5 112q-56 -118 -202 -118z"/>
<glyph glyph-name="udieresis" horiz-adv-x="607" unicode="ü" d="M400 668q28 0 28 -28q0 -27 -28 -27q-13 0 -21 7.5t-8 19.5t8 20t21 8zM209 668q14 0 22 -8t8 -20t-8 -19.5t-22 -7.5q-13 0 -20.5 7.5t-7.5 19.5q0 28 28 28zM274 -6q-95 0 -145 52t-50 151v323h48v-322q0 -80 40.5 -123.5t116.5 -43.5q94 0 142 61t48 143v285h48v-520 h-41l-5 112q-56 -118 -202 -118z"/>
<glyph glyph-name="yacute" horiz-adv-x="564" unicode="ý" d="M384 731l-71 -148h-36l61 148h46zM523 520l-222 -557q-34 -84 -70.5 -110t-84.5 -26q-36 0 -76 8l2 37q45 -8 66 -8q41 0 66.5 26.5t48.5 82.5l10 25l-222 522h53l194 -470l186 470h49z"/>
<glyph glyph-name="thorn" horiz-adv-x="638" unicode="þ" d="M334 31q95 0 149 62t54 167t-54.5 167t-149.5 62q-81 0 -140 -60.5t-59 -168.5t59.5 -168.5t140.5 -60.5zM344 526q116 0 178.5 -74t62.5 -192q0 -117 -64 -191.5t-176 -74.5q-80 0 -133 36.5t-77 85.5v-286h-48v870h48v-297q28 54 80 88.5t129 34.5z"/>
<glyph glyph-name="ydieresis" horiz-adv-x="564" unicode="ÿ" d="M372 668q28 0 28 -28q0 -27 -28 -27q-13 0 -21 7.5t-8 19.5t8 20t21 8zM181 668q14 0 22 -8t8 -20t-8 -19.5t-22 -7.5q-13 0 -20.5 7.5t-7.5 19.5q0 28 28 28zM523 520l-222 -557q-34 -84 -70.5 -110t-84.5 -26q-36 0 -76 8l2 37q45 -8 66 -8q41 0 66.5 26.5t48.5 82.5 l10 25l-222 522h53l194 -470l186 470h49z"/>
<glyph glyph-name="Amacron" horiz-adv-x="674" unicode="Ā" d="M481 828v-32h-290v32h290zM336 660l-173 -426h347l-173 426h-1zM369 704l289 -704h-53l-79 194h-379l-79 -194h-52l289 704h64z"/>
<glyph glyph-name="amacron" horiz-adv-x="576" unicode="ā" d="M433 667v-32h-290v32h290zM243 31q79 0 136 46t57 114v69q-83 11 -170 11q-176 0 -176 -121q0 -63 42.5 -91t110.5 -28zM286 526q103 0 150.5 -36t47.5 -126v-295q0 -32 35 -32q8 0 28 2l3 -35q-36 -6 -49 -6q-32 0 -48.5 16.5t-16.5 44.5v38q-25 -46 -76 -74.5 t-129 -28.5q-87 0 -138 38t-51 115q0 159 220 159q53 0 174 -11v71q0 71 -39 97t-118 26q-95 0 -183 -25l-7 36q92 26 197 26z"/>
<glyph glyph-name="Abreve" horiz-adv-x="674" unicode="Ă" d="M420 858l37 -2q-17 -96 -121 -96q-105 0 -122 96l37 2q10 -34 28.5 -51t56.5 -17q37 0 55.5 17t28.5 51zM336 660l-173 -426h347l-173 426h-1zM369 704l289 -704h-53l-79 194h-379l-79 -194h-52l289 704h64z"/>
<glyph glyph-name="abreve" horiz-adv-x="576" unicode="ă" d="M372 702l37 -4q-17 -99 -121 -99q-106 0 -122 99l37 4q10 -37 28.5 -55t56.5 -18t56 18t28 55zM243 31q79 0 136 46t57 114v69q-83 11 -170 11q-176 0 -176 -121q0 -63 42.5 -91t110.5 -28zM286 526q103 0 150.5 -36t47.5 -126v-295q0 -32 35 -32q8 0 28 2l3 -35 q-36 -6 -49 -6q-32 0 -48.5 16.5t-16.5 44.5v38q-25 -46 -76 -74.5t-129 -28.5q-87 0 -138 38t-51 115q0 159 220 159q53 0 174 -11v71q0 71 -39 97t-118 26q-95 0 -183 -25l-7 36q92 26 197 26z"/>
<glyph glyph-name="Aogonek" horiz-adv-x="674" unicode="Ą" d="M336 660l-173 -426h347l-173 426h-1zM369 704l289 -704h-3q-59 -39 -59 -93q0 -22 11 -34.5t28 -12.5q18 0 34 5l3 -27q-20 -9 -45 -9q-31 0 -50 18t-19 52q0 57 58 101h-11l-79 194h-379l-79 -194h-52l289 704h64z"/>
<glyph glyph-name="aogonek" horiz-adv-x="576" unicode="ą" d="M243 31q79 0 136 46t57 114v69q-83 11 -170 11q-176 0 -176 -121q0 -63 42.5 -91t110.5 -28zM286 526q103 0 150.5 -36t47.5 -126v-295q0 -32 35 -32q8 0 28 2l3 -35q-29 -5 -46 -6q-56 -37 -56 -91q0 -22 11 -34.5t28 -12.5q18 0 34 5l3 -27q-20 -9 -45 -9q-31 0 -50 18 t-19 52q0 61 62 103q-36 13 -36 57v38q-25 -46 -76 -74.5t-129 -28.5q-87 0 -138 38t-51 115q0 159 220 159q53 0 174 -11v71q0 71 -39 97t-118 26q-95 0 -183 -25l-7 36q92 26 197 26z"/>
<glyph glyph-name="Cacute" horiz-adv-x="676" unicode="Ć" d="M496 854l-71 -110h-36l61 110h46zM426 707q114 0 198 -37l-13 -38q-78 34 -174 34q-149 0 -237.5 -87.5t-88.5 -228.5t88.5 -228.5t235.5 -87.5q99 0 180 33l10 -39q-91 -35 -198 -35q-163 0 -266 97.5t-103 259.5t103.5 259.5t264.5 97.5z"/>
<glyph glyph-name="cacute" horiz-adv-x="523" unicode="ć" d="M385 731l-71 -148h-36l61 148h46zM328 526q84 0 149 -28l-11 -33q-69 24 -133 24q-107 0 -169.5 -62t-62.5 -167q0 -106 63 -167.5t173 -61.5q57 0 131 29l9 -35q-75 -31 -147 -31q-124 0 -200.5 71t-76.5 195t76.5 195t198.5 71z"/>
<glyph glyph-name="Ccircumflex" horiz-adv-x="676" unicode="Ĉ" d="M533 744h-49l-79 86l-80 -86h-49l106 110h45zM426 707q114 0 198 -37l-13 -38q-78 34 -174 34q-149 0 -237.5 -87.5t-88.5 -228.5t88.5 -228.5t235.5 -87.5q99 0 180 33l10 -39q-91 -35 -198 -35q-163 0 -266 97.5t-103 259.5t103.5 259.5t264.5 97.5z"/>
<glyph glyph-name="ccircumflex" horiz-adv-x="523" unicode="ĉ" d="M333 732l106 -149h-47l-81 123l-82 -123h-47l106 149h45zM328 526q84 0 149 -28l-11 -33q-69 24 -133 24q-107 0 -169.5 -62t-62.5 -167q0 -106 63 -167.5t173 -61.5q57 0 131 29l9 -35q-75 -31 -147 -31q-124 0 -200.5 71t-76.5 195t76.5 195t198.5 71z"/>
<glyph glyph-name="Cdotaccent" horiz-adv-x="676" unicode="Ċ" d="M429 831q14 0 22 -7.5t8 -20.5t-8 -20.5t-22 -7.5q-13 0 -21 7.5t-8 20.5t8 20.5t21 7.5zM426 707q114 0 198 -37l-13 -38q-78 34 -174 34q-149 0 -237.5 -87.5t-88.5 -228.5t88.5 -228.5t235.5 -87.5q99 0 180 33l10 -39q-91 -35 -198 -35q-163 0 -266 97.5t-103 259.5 t103.5 259.5t264.5 97.5z"/>
<glyph glyph-name="cdotaccent" horiz-adv-x="523" unicode="ċ" d="M314 670q14 0 22 -7.5t8 -20.5t-8 -20.5t-22 -7.5q-13 0 -21 7.5t-8 20.5t8 20.5t21 7.5zM328 526q84 0 149 -28l-11 -33q-69 24 -133 24q-107 0 -169.5 -62t-62.5 -167q0 -106 63 -167.5t173 -61.5q57 0 131 29l9 -35q-75 -31 -147 -31q-124 0 -200.5 71t-76.5 195 t76.5 195t198.5 71z"/>
<glyph glyph-name="Ccaron" horiz-adv-x="676" unicode="Č" d="M531 854l-106 -110h-45l-106 110h49l80 -86l79 86h49zM426 707q114 0 198 -37l-13 -38q-78 34 -174 34q-149 0 -237.5 -87.5t-88.5 -228.5t88.5 -228.5t235.5 -87.5q99 0 180 33l10 -39q-91 -35 -198 -35q-163 0 -266 97.5t-103 259.5t103.5 259.5t264.5 97.5z"/>
<glyph glyph-name="ccaron" horiz-adv-x="523" unicode="č" d="M331 583h-45l-106 149h47l82 -123l81 123h47zM328 526q84 0 149 -28l-11 -33q-69 24 -133 24q-107 0 -169.5 -62t-62.5 -167q0 -106 63 -167.5t173 -61.5q57 0 131 29l9 -35q-75 -31 -147 -31q-124 0 -200.5 71t-76.5 195t76.5 195t198.5 71z"/>
<glyph glyph-name="Dcaron" horiz-adv-x="751" unicode="Ď" d="M489 854l-106 -110h-45l-106 110h49l80 -86l79 86h49zM372 659h-216v-618h215q44 0 93.5 19t82.5 50q43 40 66.5 104t23.5 137q0 87 -32 156t-91 108q-71 44 -142 44zM105 700h275q81 0 156 -44q76 -46 115 -126t39 -179q0 -102 -38.5 -183t-116.5 -124q-74 -44 -155 -44 h-275v700z"/>
<glyph glyph-name="dcaron" horiz-adv-x="631" unicode="ď" d="M304 489q-95 0 -149 -62t-54 -167t54.5 -167t149.5 -62q81 0 140 60.5t59 168.5t-59.5 168.5t-140.5 60.5zM503 732h48v-732h-41l-6 120q-27 -55 -80 -90.5t-130 -35.5q-116 0 -178.5 73t-62.5 193q0 117 64 191.5t176 74.5q80 0 132.5 -36t77.5 -86v328zM600 732h37 q0 -61 -11 -141h-26v141z"/>
<glyph glyph-name="Dcroat" horiz-adv-x="751" unicode="Đ" d="M372 659h-216v-301h176v-32h-176v-285h215q44 0 93.5 19t82.5 50q43 40 66.5 104t23.5 137q0 87 -32 156t-91 108q-71 44 -142 44zM105 700h275q81 0 156 -44q76 -46 115 -126t39 -179q0 -102 -38.5 -183t-116.5 -124q-74 -44 -155 -44h-275v326h-92v32h92v342z"/>
<glyph glyph-name="dcroat" horiz-adv-x="630" unicode="đ" d="M304 489q-95 0 -149 -62t-54 -167t54.5 -167t149.5 -62q81 0 140 60.5t59 168.5t-59.5 168.5t-140.5 60.5zM503 732h48v-100h80v-19h-80v-613h-41l-6 120q-27 -55 -80 -90.5t-130 -35.5q-116 0 -178.5 73t-62.5 193q0 117 64 191.5t176 74.5q80 0 132.5 -36t77.5 -86v209 h-174v19h174v100z"/>
<glyph glyph-name="Emacron" horiz-adv-x="651" unicode="Ē" d="M495 828v-32h-290v32h290zM582 700v-40h-426v-299h367v-40h-367v-281h443v-40h-494v700h477z"/>
<glyph glyph-name="emacron" horiz-adv-x="593" unicode="ē" d="M454 667v-32h-290v32h290zM314 489q-93 0 -149 -55.5t-63 -155.5h396q0 93 -47 152t-137 59zM542 243h-441q1 -100 64 -156t168 -56q87 0 173 42l9 -36q-97 -43 -186 -43q-131 0 -203.5 71.5t-72.5 193.5q0 119 70.5 193t189.5 74q110 0 170.5 -71.5t60.5 -181.5 q0 -22 -2 -30z"/>
<glyph glyph-name="Ebreve" horiz-adv-x="651" unicode="Ĕ" d="M434 858l37 -2q-17 -96 -121 -96q-105 0 -122 96l37 2q10 -34 28.5 -51t56.5 -17q37 0 55.5 17t28.5 51zM582 700v-40h-426v-299h367v-40h-367v-281h443v-40h-494v700h477z"/>
<glyph glyph-name="ebreve" horiz-adv-x="593" unicode="ĕ" d="M393 702l37 -4q-16 -99 -121 -99t-122 99l37 4q10 -37 28.5 -55t56.5 -18t56 18t28 55zM314 489q-93 0 -149 -55.5t-63 -155.5h396q0 93 -47 152t-137 59zM542 243h-441q1 -100 64 -156t168 -56q87 0 173 42l9 -36q-97 -43 -186 -43q-131 0 -203.5 71.5t-72.5 193.5 q0 119 70.5 193t189.5 74q110 0 170.5 -71.5t60.5 -181.5q0 -22 -2 -30z"/>
<glyph glyph-name="Edotaccent" horiz-adv-x="651" unicode="Ė" d="M348 831q14 0 22 -7.5t8 -20.5t-8 -20.5t-22 -7.5q-13 0 -21 7.5t-8 20.5t8 20.5t21 7.5zM582 700v-40h-426v-299h367v-40h-367v-281h443v-40h-494v700h477z"/>
<glyph glyph-name="edotaccent" horiz-adv-x="593" unicode="ė" d="M309 670q14 0 22 -7.5t8 -20.5t-8 -20.5t-22 -7.5q-13 0 -21 7.5t-8 20.5t8 20.5t21 7.5zM314 489q-93 0 -149 -55.5t-63 -155.5h396q0 93 -47 152t-137 59zM542 243h-441q1 -100 64 -156t168 -56q87 0 173 42l9 -36q-97 -43 -186 -43q-131 0 -203.5 71.5t-72.5 193.5 q0 119 70.5 193t189.5 74q110 0 170.5 -71.5t60.5 -181.5q0 -22 -2 -30z"/>
<glyph glyph-name="Eogonek" horiz-adv-x="651" unicode="Ę" d="M582 700v-40h-426v-299h367v-40h-367v-281h443v-40h-15q-59 -39 -59 -93q0 -22 11 -34.5t28 -12.5q18 0 34 5l3 -27q-20 -9 -45 -9q-31 0 -50 18t-19 52q0 57 58 101h-440v700h477z"/>
<glyph glyph-name="eogonek" horiz-adv-x="593" unicode="ę" d="M314 489q-93 0 -149 -55.5t-63 -155.5h396q0 93 -47 152t-137 59zM542 243h-441q1 -100 64 -156t168 -56q87 0 173 42l9 -36q-39 -17 -71 -27q-57 -37 -57 -103q0 -22 11 -34.5t28 -12.5q18 0 34 5l3 -27q-20 -9 -45 -9q-31 0 -50 18t-19 52q0 58 45 101q-32 -6 -65 -6 q-131 0 -203.5 71.5t-72.5 193.5q0 119 70.5 193t189.5 74q110 0 170.5 -71.5t60.5 -181.5q0 -22 -2 -30z"/>
<glyph glyph-name="Ecaron" horiz-adv-x="651" unicode="Ě" d="M478 854l-106 -110h-45l-106 110h49l80 -86l79 86h49zM582 700v-40h-426v-299h367v-40h-367v-281h443v-40h-494v700h477z"/>
<glyph glyph-name="ecaron" horiz-adv-x="593" unicode="ě" d="M331 583h-45l-106 149h47l82 -123l81 123h47zM314 489q-93 0 -149 -55.5t-63 -155.5h396q0 93 -47 152t-137 59zM542 243h-441q1 -100 64 -156t168 -56q87 0 173 42l9 -36q-97 -43 -186 -43q-131 0 -203.5 71.5t-72.5 193.5q0 119 70.5 193t189.5 74q110 0 170.5 -71.5 t60.5 -181.5q0 -22 -2 -30z"/>
<glyph glyph-name="Gcircumflex" horiz-adv-x="751" unicode="Ĝ" d="M541 744h-49l-79 86l-80 -86h-49l106 110h45zM423 707q122 0 219 -50l-14 -38q-94 47 -197 47q-145 0 -232.5 -87t-87.5 -229q0 -139 87.5 -227.5t222.5 -88.5t224 84v180h-197v38h239v-236q-106 -107 -272 -107q-151 0 -254 98.5t-103 258.5q0 161 102.5 259t262.5 98z "/>
<glyph glyph-name="gcircumflex" horiz-adv-x="568" unicode="ĝ" d="M310 732l106 -149h-47l-81 123l-82 -123h-47l106 149h45zM289 52q-73 0 -121 9q-68 -40 -68 -96q0 -32 15 -53.5t43.5 -31.5t58.5 -13.5t71 -3.5q188 0 188 103q0 50 -33.5 68t-109.5 18h-44zM289 489q-164 0 -164 -127q0 -126 163 -126q165 0 165 126q0 127 -164 127z M289 526q49 0 79 -6h157v-33l-100 -1q76 -35 76 -128q0 -76 -53 -117.5t-159 -41.5q-78 0 -126 21q-46 -24 -46 -66q0 -21 13 -34.5t39 -20t52 -8.5t64 -2h57q91 0 136.5 -26.5t45.5 -93.5q0 -143 -237 -143q-234 0 -234 135q0 61 77 111q-55 23 -55 75q0 61 58 90 q-56 40 -56 125q0 82 55.5 123t156.5 41z"/>
<glyph glyph-name="Gbreve" horiz-adv-x="751" unicode="Ğ" d="M495 858l37 -2q-17 -96 -121 -96q-105 0 -122 96l37 2q10 -34 28.5 -51t56.5 -17q37 0 55.5 17t28.5 51zM423 707q122 0 219 -50l-14 -38q-94 47 -197 47q-145 0 -232.5 -87t-87.5 -229q0 -139 87.5 -227.5t222.5 -88.5t224 84v180h-197v38h239v-236q-106 -107 -272 -107 q-151 0 -254 98.5t-103 258.5q0 161 102.5 259t262.5 98z"/>
<glyph glyph-name="gbreve" horiz-adv-x="568" unicode="ğ" d="M289 52q-73 0 -121 9q-68 -40 -68 -96q0 -32 15 -53.5t43.5 -31.5t58.5 -13.5t71 -3.5q188 0 188 103q0 50 -33.5 68t-109.5 18h-44zM289 489q-164 0 -164 -127q0 -126 163 -126q165 0 165 126q0 127 -164 127zM289 526q49 0 79 -6h157v-33l-100 -1q76 -35 76 -128 q0 -76 -53 -117.5t-159 -41.5q-78 0 -126 21q-46 -24 -46 -66q0 -21 13 -34.5t39 -20t52 -8.5t64 -2h57q91 0 136.5 -26.5t45.5 -93.5q0 -143 -237 -143q-234 0 -234 135q0 61 77 111q-55 23 -55 75q0 61 58 90q-56 40 -56 125q0 82 55.5 123t156.5 41zM369 702l37 -4 q-16 -99 -121 -99t-122 99l37 4q10 -37 28.5 -55t56.5 -18t56 18t28 55z"/>
<glyph glyph-name="Gdotaccent" horiz-adv-x="751" unicode="Ġ" d="M414 831q14 0 22 -7.5t8 -20.5t-8 -20.5t-22 -7.5q-13 0 -21 7.5t-8 20.5t8 20.5t21 7.5zM423 707q122 0 219 -50l-14 -38q-94 47 -197 47q-145 0 -232.5 -87t-87.5 -229q0 -139 87.5 -227.5t222.5 -88.5t224 84v180h-197v38h239v-236q-106 -107 -272 -107 q-151 0 -254 98.5t-103 258.5q0 161 102.5 259t262.5 98z"/>
<glyph glyph-name="gdotaccent" horiz-adv-x="568" unicode="ġ" d="M281 670q14 0 22 -7.5t8 -20.5t-8 -20.5t-22 -7.5q-13 0 -21 7.5t-8 20.5t8 20.5t21 7.5zM289 52q-73 0 -121 9q-68 -40 -68 -96q0 -32 15 -53.5t43.5 -31.5t58.5 -13.5t71 -3.5q188 0 188 103q0 50 -33.5 68t-109.5 18h-44zM289 489q-164 0 -164 -127q0 -126 163 -126 q165 0 165 126q0 127 -164 127zM289 526q49 0 79 -6h157v-33l-100 -1q76 -35 76 -128q0 -76 -53 -117.5t-159 -41.5q-78 0 -126 21q-46 -24 -46 -66q0 -21 13 -34.5t39 -20t52 -8.5t64 -2h57q91 0 136.5 -26.5t45.5 -93.5q0 -143 -237 -143q-234 0 -234 135q0 61 77 111 q-55 23 -55 75q0 61 58 90q-56 40 -56 125q0 82 55.5 123t156.5 41z"/>
<glyph glyph-name="Gcommaaccent" horiz-adv-x="751" unicode="Ģ" d="M398 -49h38q0 -25 -1.5 -39.5t-6 -38.5l-7.5 -40h-32q9 70 9 105v13zM423 707q122 0 219 -50l-14 -38q-94 47 -197 47q-145 0 -232.5 -87t-87.5 -229q0 -139 87.5 -227.5t222.5 -88.5t224 84v180h-197v38h239v-236q-106 -107 -272 -107q-151 0 -254 98.5t-103 258.5 q0 161 102.5 259t262.5 98z"/>
<glyph glyph-name="gcommaaccent" horiz-adv-x="568" unicode="ģ" d="M289 52q-73 0 -121 9q-68 -40 -68 -96q0 -32 15 -53.5t43.5 -31.5t58.5 -13.5t71 -3.5q188 0 188 103q0 50 -33.5 68t-109.5 18h-44zM289 489q-164 0 -164 -127q0 -126 163 -126q165 0 165 126q0 127 -164 127zM289 526q49 0 79 -6h157v-33l-100 -1q76 -35 76 -128 q0 -76 -53 -117.5t-159 -41.5q-78 0 -126 21q-46 -24 -46 -66q0 -21 13 -34.5t39 -20t52 -8.5t64 -2h57q91 0 136.5 -26.5t45.5 -93.5q0 -143 -237 -143q-234 0 -234 135q0 61 77 111q-55 23 -55 75q0 61 58 90q-56 40 -56 125q0 82 55.5 123t156.5 41zM295 586h-38 q0 25 1.5 39.5t6 38.5l7.5 40h32q-9 -70 -9 -105v-13z"/>
<glyph glyph-name="Hcircumflex" horiz-adv-x="754" unicode="Ĥ" d="M505 744h-49l-79 86l-80 -86h-49l106 110h45zM649 700v-700h-51v330h-442v-330h-51v700h51v-330h442v330h51z"/>
<glyph glyph-name="hcircumflex" horiz-adv-x="612" unicode="ĥ" d="M237 769h-49l-79 86l-80 -86h-49l106 110h45zM335 526q95 0 145 -52t50 -151v-323h-48v322q0 80 -40.5 123.5t-116.5 43.5q-94 0 -142 -61t-48 -143v-285h-48v732h48v-322q55 116 200 116z"/>
<glyph glyph-name="Hbar" horiz-adv-x="755" unicode="Ħ" d="M158 370h442v172h-442v-172zM651 700v-132h59v-26h-59v-542h-51v330h-442v-330h-51v542h-62v26h62v132h51v-132h442v132h51z"/>
<glyph glyph-name="hbar" horiz-adv-x="609" unicode="ħ" d="M332 526q95 0 145 -52t50 -151v-323h-48v322q0 80 -40.5 123.5t-116.5 43.5q-94 0 -142 -61t-48 -143v-285h-48v613h-85v19h85v100h48v-100h169v-19h-169v-203q55 116 200 116z"/>
<glyph glyph-name="Itilde" horiz-adv-x="261" unicode="Ĩ" d="M248 846l21 -9q-22 -61 -77 -61q-19 0 -66 20q-44 20 -62 20q-33 0 -50 -33l-21 8q21 61 76 61q25 0 67 -20q38 -20 62 -20q32 0 50 34zM156 700v-700h-51v700h51z"/>
<glyph glyph-name="itilde" horiz-adv-x="226" unicode="ĩ" d="M225 685l21 -9q-22 -61 -77 -61q-19 0 -66 20q-44 20 -62 20q-33 0 -50 -33l-21 8q21 61 76 61q25 0 67 -20q38 -20 62 -20q32 0 50 34zM142 520v-520h-48v485h-63v35h111z"/>
<glyph glyph-name="Imacron" horiz-adv-x="261" unicode="Ī" d="M276 828v-32h-290v32h290zM156 700v-700h-51v700h51z"/>
<glyph glyph-name="imacron" horiz-adv-x="226" unicode="ī" d="M253 667v-32h-290v32h290zM142 520v-520h-48v485h-63v35h111z"/>
<glyph glyph-name="Ibreve" horiz-adv-x="261" unicode="Ĭ" d="M215 858l37 -2q-17 -96 -121 -96q-105 0 -122 96l37 2q10 -34 28.5 -51t56.5 -17q37 0 55.5 17t28.5 51zM156 700v-700h-51v700h51z"/>
<glyph glyph-name="ibreve" horiz-adv-x="226" unicode="ĭ" d="M192 702l37 -4q-17 -99 -121 -99q-106 0 -122 99l37 4q10 -37 28.5 -55t56.5 -18t56 18t28 55zM142 520v-520h-48v485h-63v35h111z"/>
<glyph glyph-name="Iogonek" horiz-adv-x="261" unicode="Į" d="M156 700v-700h-3q-59 -39 -59 -93q0 -22 11 -34.5t28 -12.5q18 0 34 5l3 -27q-20 -9 -45 -9q-31 0 -50 18t-19 52q0 57 58 101h-9v700h51z"/>
<glyph glyph-name="iogonek" horiz-adv-x="226" unicode="į" d="M113 683q32 0 32 -31q0 -30 -32 -30q-33 0 -33 30q0 31 33 31zM142 520v-520h-1q-59 -39 -59 -93q0 -22 11 -34.5t28 -12.5q18 0 34 5l3 -27q-20 -9 -45 -9q-31 0 -50 18t-19 52q0 57 58 101h-8v485h-63v35h111z"/>
<glyph glyph-name="Idotaccent" horiz-adv-x="261" unicode="İ" d="M129 831q14 0 22 -7.5t8 -20.5t-8 -20.5t-22 -7.5q-13 0 -21 7.5t-8 20.5t8 20.5t21 7.5zM156 700v-700h-51v700h51z"/>
<glyph glyph-name="dotlessi" horiz-adv-x="226" unicode="ı" d="M142 520v-520h-48v485h-63v35h111z"/>
<glyph glyph-name="Jcircumflex" horiz-adv-x="527" unicode="Ĵ" d="M533 744h-49l-79 86l-80 -86h-49l106 110h45zM430 700v-482q0 -108 -59.5 -166.5t-155.5 -58.5q-74 0 -125.5 37.5t-71.5 83.5l31 26q20 -45 63.5 -75.5t100.5 -30.5q71 0 118.5 47.5t47.5 135.5v483h51z"/>
<glyph glyph-name="jcircumflex" horiz-adv-x="232" unicode="ĵ" d="M132 732l106 -149h-47l-81 123l-82 -123h-47l106 149h45zM144 520v-598q0 -49 -19.5 -72t-71.5 -23h-32v37h22q34 0 43.5 13.5t9.5 50.5v557h-65v35h113z"/>
<glyph glyph-name="Kcommaaccent" horiz-adv-x="667" unicode="Ķ" d="M338 -45h38q0 -25 -1.5 -39.5t-6 -38.5l-7.5 -40h-32q9 70 9 105v13zM615 700l-250 -264l274 -436h-60l-249 399l-174 -183v-216h-51v700h51v-420l398 420h61z"/>
<glyph glyph-name="kcommaaccent" horiz-adv-x="505" unicode="ķ" d="M258 -45h38q0 -25 -1.5 -39.5t-6 -38.5l-7.5 -40h-32q9 70 9 105v13zM135 732v-506l299 294h54l-200 -198l207 -322h-54l-185 290l-121 -120v-170h-48v732h48z"/>
<glyph glyph-name="kgreenlandic" horiz-adv-x="504" unicode="ĸ" d="M489 520l-198 -196l206 -324h-54l-184 292l-123 -122v-170h-48v520h48v-294l300 294h53z"/>
<glyph glyph-name="Lacute" horiz-adv-x="560" unicode="Ĺ" d="M224 854l-71 -110h-36l61 110h46zM156 700v-660h384v-40h-435v700h51z"/>
<glyph glyph-name="lacute" horiz-adv-x="257" unicode="ĺ" d="M204 866l-71 -110h-36l61 110h46zM136 732v-655q0 -28 10 -37t30 -9q9 0 19 0.5t16.5 1t7.5 0.5l1 -35q-16 -4 -58 -4q-38 0 -56 17t-18 60v661h48z"/>
<glyph glyph-name="Lcommaaccent" horiz-adv-x="560" unicode="Ļ" d="M306 -45h38q0 -25 -1.5 -39.5t-6 -38.5l-7.5 -40h-32q9 70 9 105v13zM156 700v-660h384v-40h-435v700h51z"/>
<glyph glyph-name="lcommaaccent" horiz-adv-x="257" unicode="ļ" d="M135 -45h38q0 -25 -1.5 -39.5t-6 -38.5l-7.5 -40h-32q9 70 9 105v13zM136 732v-655q0 -28 10 -37t30 -9q9 0 19 0.5t16.5 1t7.5 0.5l1 -35q-16 -4 -58 -4q-38 0 -56 17t-18 60v661h48z"/>
<glyph glyph-name="Lcaron" horiz-adv-x="560" unicode="Ľ" d="M156 700v-660h384v-40h-435v700h51zM344 700h37q0 -61 -11 -141h-26v141z"/>
<glyph glyph-name="lcaron" horiz-adv-x="263" unicode="ľ" d="M136 732v-655q0 -28 10 -37t30 -9q9 0 19 0.5t16.5 1t7.5 0.5l1 -35q-16 -4 -58 -4q-38 0 -56 17t-18 60v661h48zM195 732h37q0 -61 -11 -141h-26v141z"/>
<glyph glyph-name="Lslash" horiz-adv-x="560" unicode="Ł" d="M156 700v-363l169 101v-30l-169 -101v-267h384v-40h-435v276l-79 -47v30l79 47v394h51z"/>
<glyph glyph-name="lslash" horiz-adv-x="256" unicode="ł" d="M134 732v-392l105 63v-26l-105 -63v-237q0 -28 10 -37t30 -9q9 0 19 0.5t16.5 1t7.5 0.5l1 -35q-16 -4 -58 -4q-38 0 -56 17t-18 60v215l-66 -39v26l66 39v420h48z"/>
<glyph glyph-name="Nacute" horiz-adv-x="739" unicode="Ń" d="M471 854l-71 -110h-36l61 110h46zM634 700v-700h-54l-424 622v-622h-51v700h54l424 -619v619h51z"/>
<glyph glyph-name="nacute" horiz-adv-x="610" unicode="ń" d="M333 526q95 0 145 -52t50 -151v-323h-48v322q0 80 -40.5 123.5t-116.5 43.5q-94 0 -142 -61t-48 -143v-285h-48v520h41l4 -112q56 118 203 118zM387 731l-71 -148h-36l61 148h46z"/>
<glyph glyph-name="Ncommaaccent" horiz-adv-x="739" unicode="Ņ" d="M352 -45h38q0 -25 -1.5 -39.5t-6 -38.5l-7.5 -40h-32q9 70 9 105v13zM634 700v-700h-54l-424 622v-622h-51v700h54l424 -619v619h51z"/>
<glyph glyph-name="ncommaaccent" horiz-adv-x="610" unicode="ņ" d="M286 -45h38q0 -25 -1.5 -39.5t-6 -38.5l-7.5 -40h-32q9 70 9 105v13zM333 526q95 0 145 -52t50 -151v-323h-48v322q0 80 -40.5 123.5t-116.5 43.5q-94 0 -142 -61t-48 -143v-285h-48v520h41l4 -112q56 118 203 118z"/>
<glyph glyph-name="Ncaron" horiz-adv-x="739" unicode="Ň" d="M506 854l-106 -110h-45l-106 110h49l80 -86l79 86h49zM634 700v-700h-54l-424 622v-622h-51v700h54l424 -619v619h51z"/>
<glyph glyph-name="ncaron" horiz-adv-x="611" unicode="ň" d="M324 583h-45l-106 149h47l82 -123l81 123h47zM333 526q95 0 145 -52t50 -151v-323h-48v322q0 80 -40.5 123.5t-116.5 43.5q-94 0 -142 -61t-48 -143v-285h-48v520h41l4 -112q56 118 203 118z"/>
<glyph glyph-name="Eng" horiz-adv-x="739" unicode="Ŋ" d="M634 700v-705q0 -61 -34 -93.5t-98 -53.5l-11 35q51 21 68 41q23 26 23 64v12l-426 622v-622h-51v700h54l424 -617v617h51z"/>
<glyph glyph-name="eng" horiz-adv-x="610" unicode="ŋ" d="M333 526q95 0 145 -52t50 -151v-335q0 -57 -32.5 -89t-92.5 -55l-10 32q1 1 8.5 4.5t11 5t11 6t11.5 7.5t11 8.5t11 11t9 13t7.5 15t4.5 17.5t2 21v337q0 80 -40.5 123.5t-116.5 43.5q-94 0 -142 -61t-48 -143v-285h-48v520h41l5 -111q56 117 202 117z"/>
<glyph glyph-name="Omacron" horiz-adv-x="794" unicode="Ō" d="M542 828v-32h-290v32h290zM397 666q-132 0 -213 -85.5t-81 -232.5q0 -145 81 -229.5t213 -84.5q133 0 213.5 84t80.5 230q0 147 -80.5 232.5t-213.5 85.5zM397 707q156 0 251.5 -97.5t95.5 -261.5q0 -163 -95 -259t-252 -96q-156 0 -251.5 96.5t-95.5 258.5 q0 164 96 261.5t251 97.5z"/>
<glyph glyph-name="omacron" horiz-adv-x="632" unicode="ō" d="M461 667v-32h-290v32h290zM316 489q-95 0 -155 -62t-60 -168t60 -168t155 -62t155 62t60 168t-60 168t-155 62zM316 526q116 0 189.5 -72.5t73.5 -194.5t-74 -194.5t-189 -72.5t-189 72.5t-74 194.5t73.5 194.5t189.5 72.5z"/>
<glyph glyph-name="Obreve" horiz-adv-x="794" unicode="Ŏ" d="M481 858l37 -2q-17 -96 -121 -96q-105 0 -122 96l37 2q10 -34 28.5 -51t56.5 -17q37 0 55.5 17t28.5 51zM397 666q-132 0 -213 -85.5t-81 -232.5q0 -145 81 -229.5t213 -84.5q133 0 213.5 84t80.5 230q0 147 -80.5 232.5t-213.5 85.5zM397 707q156 0 251.5 -97.5 t95.5 -261.5q0 -163 -95 -259t-252 -96q-156 0 -251.5 96.5t-95.5 258.5q0 164 96 261.5t251 97.5z"/>
<glyph glyph-name="obreve" horiz-adv-x="632" unicode="ŏ" d="M400 702l37 -4q-17 -99 -121 -99q-106 0 -122 99l37 4q10 -37 28.5 -55t56.5 -18t56 18t28 55zM316 489q-95 0 -155 -62t-60 -168t60 -168t155 -62t155 62t60 168t-60 168t-155 62zM316 526q116 0 189.5 -72.5t73.5 -194.5t-74 -194.5t-189 -72.5t-189 72.5t-74 194.5 t73.5 194.5t189.5 72.5z"/>
<glyph glyph-name="Ohungarumlaut" horiz-adv-x="794" unicode="Ő" d="M403 854l-59 -110h-36l49 110h46zM525 854l-59 -110h-36l49 110h46zM397 666q-132 0 -213 -85.5t-81 -232.5q0 -145 81 -229.5t213 -84.5q133 0 213.5 84t80.5 230q0 147 -80.5 232.5t-213.5 85.5zM397 707q156 0 251.5 -97.5t95.5 -261.5q0 -163 -95 -259t-252 -96 q-156 0 -251.5 96.5t-95.5 258.5q0 164 96 261.5t251 97.5z"/>
<glyph glyph-name="ohungarumlaut" horiz-adv-x="632" unicode="ő" d="M444 732l-59 -149h-36l49 149h46zM322 732l-59 -149h-36l49 149h46zM316 489q-95 0 -155 -62t-60 -168t60 -168t155 -62t155 62t60 168t-60 168t-155 62zM316 526q116 0 189.5 -72.5t73.5 -194.5t-74 -194.5t-189 -72.5t-189 72.5t-74 194.5t73.5 194.5t189.5 72.5z"/>
<glyph glyph-name="OE" horiz-adv-x="1240" unicode="Œ" d="M397 666q-131 0 -212 -85.5t-81 -232.5q0 -145 81 -229.5t212 -84.5q132 0 212 84.5t80 229.5q0 146 -80 232t-212 86zM1171 700v-40h-426v-299h367v-40h-367v-281h443v-40h-494v158q-43 -78 -120 -121.5t-177 -43.5q-156 0 -251.5 96.5t-95.5 258.5q0 164 96 261.5 t251 97.5q100 0 177 -44t120 -122v159h477z"/>
<glyph glyph-name="oe" horiz-adv-x="1075" unicode="œ" d="M796 489q-93 0 -149 -55.5t-63 -155.5h396q0 93 -47 152t-137 59zM316 489q-95 0 -155 -62t-60 -168t60 -168t155 -62t155 62t60 168t-60 168t-155 62zM1024 243h-441q1 -100 64 -156t168 -56q87 0 173 42l9 -36q-97 -43 -186 -43q-95 0 -160.5 38.5t-94.5 108.5 q-30 -70 -93.5 -109.5t-146.5 -39.5q-115 0 -189 72.5t-74 194.5t73.5 194.5t189.5 72.5q84 0 147.5 -39.5t93.5 -110.5q28 70 90 110t148 40q110 0 170.5 -71.5t60.5 -181.5q0 -22 -2 -30z"/>
<glyph glyph-name="Racute" horiz-adv-x="686" unicode="Ŕ" d="M404 854l-71 -110h-36l61 110h46zM425 660h-269v-311h269q71 0 113.5 45t42.5 111t-42.5 110.5t-113.5 44.5zM105 700h328q89 0 145 -56t56 -139q0 -72 -43.5 -125t-114.5 -68l150 -312h-54l-146 309h-270v-309h-51v700z"/>
<glyph glyph-name="racute" horiz-adv-x="328" unicode="ŕ" d="M242 731l-71 -148h-36l61 148h46zM298 520l-2 -40q-6 1 -17 1q-66 0 -105 -53t-39 -134v-294h-48v520h39l5 -104q16 45 54.5 75t90.5 30q15 0 22 -1z"/>
<glyph glyph-name="Rcommaaccent" horiz-adv-x="686" unicode="Ŗ" d="M340 -45h38q0 -25 -1.5 -39.5t-6 -38.5l-7.5 -40h-32q9 70 9 105v13zM425 660h-269v-311h269q71 0 113.5 45t42.5 111t-42.5 110.5t-113.5 44.5zM105 700h328q89 0 145 -56t56 -139q0 -72 -43.5 -125t-114.5 -68l150 -312h-54l-146 309h-270v-309h-51v700z"/>
<glyph glyph-name="rcommaaccent" horiz-adv-x="328" unicode="ŗ" d="M92 -45h38q0 -25 -1.5 -39.5t-6 -38.5l-7.5 -40h-32q9 70 9 105v13zM298 520l-2 -40q-6 1 -17 1q-66 0 -105 -53t-39 -134v-294h-48v520h39l5 -104q16 45 54.5 75t90.5 30q15 0 22 -1z"/>
<glyph glyph-name="Rcaron" horiz-adv-x="686" unicode="Ř" d="M466 854l-106 -110h-45l-106 110h49l80 -86l79 86h49zM425 660h-269v-311h269q71 0 113.5 45t42.5 111t-42.5 110.5t-113.5 44.5zM105 700h328q89 0 145 -56t56 -139q0 -72 -43.5 -125t-114.5 -68l150 -312h-54l-146 309h-270v-309h-51v700z"/>
<glyph glyph-name="rcaron" horiz-adv-x="328" unicode="ř" d="M194 583h-45l-106 149h47l82 -123l81 123h47zM298 520l-2 -40q-6 1 -17 1q-66 0 -105 -53t-39 -134v-294h-48v520h39l5 -104q16 45 54.5 75t90.5 30q15 0 22 -1z"/>
<glyph glyph-name="Sacute" horiz-adv-x="603" unicode="Ś" d="M389 854l-71 -110h-36l61 110h46zM302 707q107 0 221 -48l-14 -39q-7 4 -30 13.5t-74 21t-101 11.5q-86 0 -138 -35t-52 -101q0 -24 7 -44t24.5 -35.5t31 -25.5t44 -21t45.5 -15t52 -15q45 -12 72.5 -20.5t62.5 -25t54.5 -35t33.5 -47.5t14 -66q0 -91 -66.5 -139 t-181.5 -48q-134 0 -252 59l13 39q126 -56 238 -56q96 0 146 36.5t50 102.5q0 29 -12.5 52t-27 36.5t-48 27.5t-52.5 20t-63 18q-45 12 -71 20t-62 25t-56 35.5t-34.5 49t-14.5 68.5q0 86 65 133.5t176 47.5z"/>
<glyph glyph-name="sacute" horiz-adv-x="474" unicode="ś" d="M305 731l-71 -148h-36l61 148h46zM237 526q93 0 172 -31l-8 -33q-66 27 -157 27q-70 0 -108 -25.5t-38 -71.5q0 -25 10.5 -43.5t29.5 -29t43.5 -18.5t53.5 -16q14 -3 21 -5q38 -10 56 -16t46.5 -18.5t41.5 -25.5t23.5 -35.5t10.5 -50.5q0 -68 -51.5 -104t-139.5 -36 q-103 0 -195 41l10 33q87 -37 180 -37q72 0 110 26.5t38 73.5q0 33 -22.5 55t-45 30t-78.5 23q-9 3 -14 4q-94 26 -124 46q-52 34 -52 98q0 67 50 103t137 36z"/>
<glyph glyph-name="Scircumflex" horiz-adv-x="603" unicode="Ŝ" d="M437 744h-49l-79 86l-80 -86h-49l106 110h45zM302 707q107 0 221 -48l-14 -39q-7 4 -30 13.5t-74 21t-101 11.5q-86 0 -138 -35t-52 -101q0 -24 7 -44t24.5 -35.5t31 -25.5t44 -21t45.5 -15t52 -15q45 -12 72.5 -20.5t62.5 -25t54.5 -35t33.5 -47.5t14 -66 q0 -91 -66.5 -139t-181.5 -48q-134 0 -252 59l13 39q126 -56 238 -56q96 0 146 36.5t50 102.5q0 29 -12.5 52t-27 36.5t-48 27.5t-52.5 20t-63 18q-45 12 -71 20t-62 25t-56 35.5t-34.5 49t-14.5 68.5q0 86 65 133.5t176 47.5z"/>
<glyph glyph-name="scircumflex" horiz-adv-x="474" unicode="ŝ" d="M267 732l106 -149h-47l-81 123l-82 -123h-47l106 149h45zM237 526q93 0 172 -31l-8 -33q-66 27 -157 27q-70 0 -108 -25.5t-38 -71.5q0 -25 10.5 -43.5t29.5 -29t43.5 -18.5t53.5 -16q14 -3 21 -5q38 -10 56 -16t46.5 -18.5t41.5 -25.5t23.5 -35.5t10.5 -50.5 q0 -68 -51.5 -104t-139.5 -36q-103 0 -195 41l10 33q87 -37 180 -37q72 0 110 26.5t38 73.5q0 33 -22.5 55t-45 30t-78.5 23q-9 3 -14 4q-94 26 -124 46q-52 34 -52 98q0 67 50 103t137 36z"/>
<glyph glyph-name="Scedilla" horiz-adv-x="603" unicode="Ş" d="M302 707q107 0 221 -48l-14 -39q-7 4 -30 13.5t-74 21t-101 11.5q-86 0 -138 -35t-52 -101q0 -24 7 -44t24.5 -35.5t31 -25.5t44 -21t45.5 -15t52 -15q45 -12 72.5 -20.5t62.5 -25t54.5 -35t33.5 -47.5t14 -66q0 -87 -61.5 -134.5t-168.5 -51.5l-19 -61h12q72 0 72 -60 q0 -66 -90 -66q-37 0 -71 14l5 27q30 -12 62 -12q56 0 56 36q0 35 -45 35q-10 0 -26 -2l-11 17l23 71q-127 4 -238 59l13 39q126 -56 238 -56q96 0 146 36.5t50 102.5q0 29 -12.5 52t-27 36.5t-48 27.5t-52.5 20t-63 18q-45 12 -71 20t-62 25t-56 35.5t-34.5 49t-14.5 68.5 q0 86 65 133.5t176 47.5z"/>
<glyph glyph-name="scedilla" horiz-adv-x="474" unicode="ş" d="M237 526q93 0 172 -31l-8 -33q-66 27 -157 27q-70 0 -108 -25.5t-38 -71.5q0 -25 10.5 -43.5t29.5 -29t43.5 -18.5t53.5 -16q14 -3 21 -5q38 -10 56 -16t46.5 -18.5t41.5 -25.5t23.5 -35.5t10.5 -50.5q0 -65 -47.5 -100.5t-129.5 -38.5l-19 -62h12q72 0 72 -60 q0 -66 -90 -66q-37 0 -71 14l5 27q30 -12 62 -12q56 0 56 36q0 35 -45 35q-10 0 -26 -2l-11 17l23 72q-95 4 -177 41l10 33q87 -37 180 -37q72 0 110 26.5t38 73.5q0 33 -22.5 55t-45 30t-78.5 23q-9 3 -14 4q-94 26 -124 46q-52 34 -52 98q0 67 50 103t137 36z"/>
<glyph glyph-name="Scaron" horiz-adv-x="603" unicode="Š" d="M438 854l-106 -110h-45l-106 110h49l80 -86l79 86h49zM302 707q107 0 221 -48l-14 -39q-7 4 -30 13.5t-74 21t-101 11.5q-86 0 -138 -35t-52 -101q0 -24 7 -44t24.5 -35.5t31 -25.5t44 -21t45.5 -15t52 -15q45 -12 72.5 -20.5t62.5 -25t54.5 -35t33.5 -47.5t14 -66 q0 -91 -66.5 -139t-181.5 -48q-134 0 -252 59l13 39q126 -56 238 -56q96 0 146 36.5t50 102.5q0 29 -12.5 52t-27 36.5t-48 27.5t-52.5 20t-63 18q-45 12 -71 20t-62 25t-56 35.5t-34.5 49t-14.5 68.5q0 86 65 133.5t176 47.5z"/>
<glyph glyph-name="scaron" horiz-adv-x="474" unicode="š" d="M261 583h-45l-106 149h47l82 -123l81 123h47zM237 526q93 0 172 -31l-8 -33q-66 27 -157 27q-70 0 -108 -25.5t-38 -71.5q0 -25 10.5 -43.5t29.5 -29t43.5 -18.5t53.5 -16q14 -3 21 -5q38 -10 56 -16t46.5 -18.5t41.5 -25.5t23.5 -35.5t10.5 -50.5q0 -68 -51.5 -104 t-139.5 -36q-103 0 -195 41l10 33q87 -37 180 -37q72 0 110 26.5t38 73.5q0 33 -22.5 55t-45 30t-78.5 23q-9 3 -14 4q-94 26 -124 46q-52 34 -52 98q0 67 50 103t137 36z"/>
<glyph glyph-name="Tcommaaccent" horiz-adv-x="579" unicode="Ţ" d="M272 -45h38q0 -25 -1.5 -39.5t-6 -38.5l-7.5 -40h-32q9 70 9 105v13zM565 700v-40h-250v-660h-51v660h-250v40h551z"/>
<glyph glyph-name="tcommaaccent" horiz-adv-x="328" unicode="ţ" d="M187 -45h38q0 -25 -1.5 -39.5t-6 -38.5l-7.5 -40h-32q9 70 9 105v13zM152 670v-150h151v-35h-151v-344q0 -62 18.5 -86t68.5 -24q29 0 64 10l2 -35q-33 -12 -79 -12q-68 0 -95 33.5t-27 112.5v345h-79v35h79l7 150h41z"/>
<glyph glyph-name="Tcaron" horiz-adv-x="579" unicode="Ť" d="M418 854l-106 -110h-45l-106 110h49l80 -86l79 86h49zM565 700v-40h-250v-660h-51v660h-250v40h551z"/>
<glyph glyph-name="tcaron" horiz-adv-x="328" unicode="ť" d="M152 670v-150h151v-35h-151v-344q0 -62 18.5 -86t68.5 -24q29 0 64 10l2 -35q-33 -12 -79 -12q-68 0 -95 33.5t-27 112.5v345h-79v35h79l7 150h41zM222 730h37q0 -61 -11 -141h-26v141z"/>
<glyph glyph-name="Tbar" horiz-adv-x="579" unicode="Ŧ" d="M565 700v-40h-250v-286h183v-26h-183v-348h-51v348h-183v26h183v286h-250v40h551z"/>
<glyph glyph-name="tbar" horiz-adv-x="328" unicode="ŧ" d="M152 670v-150h151v-35h-151v-90h151v-19h-151v-235q0 -62 18.5 -86t68.5 -24q29 0 64 10l2 -35q-33 -12 -79 -12q-68 0 -95 33.5t-27 112.5v236h-79v19h79v90h-79v35h79l7 150h41z"/>
<glyph glyph-name="Utilde" horiz-adv-x="712" unicode="Ũ" d="M480 846l21 -9q-22 -61 -77 -61q-19 0 -66 20q-44 20 -62 20q-33 0 -50 -33l-21 8q21 61 76 61q25 0 67 -20q38 -20 62 -20q32 0 50 34zM620 700v-466q0 -112 -75 -176.5t-189 -64.5q-116 0 -190 65t-74 176v466h51v-469q0 -89 61.5 -143t151.5 -54q91 0 152 54t61 143 v469h51z"/>
<glyph glyph-name="utilde" horiz-adv-x="607" unicode="ũ" d="M420 685l21 -9q-22 -61 -77 -61q-19 0 -66 20q-44 20 -62 20q-33 0 -50 -33l-21 8q21 61 76 61q25 0 67 -20q38 -20 62 -20q32 0 50 34zM274 -6q-95 0 -145 52t-50 151v323h48v-322q0 -80 40.5 -123.5t116.5 -43.5q94 0 142 61t48 143v285h48v-520h-41l-5 112 q-56 -118 -202 -118z"/>
<glyph glyph-name="Umacron" horiz-adv-x="712" unicode="Ū" d="M501 828v-32h-290v32h290zM620 700v-466q0 -112 -75 -176.5t-189 -64.5q-116 0 -190 65t-74 176v466h51v-469q0 -89 61.5 -143t151.5 -54q91 0 152 54t61 143v469h51z"/>
<glyph glyph-name="umacron" horiz-adv-x="607" unicode="ū" d="M448 667v-32h-290v32h290zM274 -6q-95 0 -145 52t-50 151v323h48v-322q0 -80 40.5 -123.5t116.5 -43.5q94 0 142 61t48 143v285h48v-520h-41l-5 112q-56 -118 -202 -118z"/>
<glyph glyph-name="Ubreve" horiz-adv-x="712" unicode="Ŭ" d="M440 858l37 -2q-17 -96 -121 -96q-105 0 -122 96l37 2q10 -34 28.5 -51t56.5 -17q37 0 55.5 17t28.5 51zM620 700v-466q0 -112 -75 -176.5t-189 -64.5q-116 0 -190 65t-74 176v466h51v-469q0 -89 61.5 -143t151.5 -54q91 0 152 54t61 143v469h51z"/>
<glyph glyph-name="ubreve" horiz-adv-x="607" unicode="ŭ" d="M387 702l37 -4q-16 -99 -121 -99t-122 99l37 4q10 -37 28.5 -55t56.5 -18t56 18t28 55zM274 -6q-95 0 -145 52t-50 151v323h48v-322q0 -80 40.5 -123.5t116.5 -43.5q94 0 142 61t48 143v285h48v-520h-41l-5 112q-56 -118 -202 -118z"/>
<glyph glyph-name="Uring" horiz-adv-x="712" unicode="Ů" d="M356 886q-22 0 -38 -14.5t-16 -41.5t16 -42t38 -15t38 15t16 42t-16 41.5t-38 14.5zM356 912q38 0 63 -22t25 -60q0 -39 -25 -61t-63 -22q-39 0 -63.5 22t-24.5 61t24.5 60.5t63.5 21.5zM620 700v-466q0 -112 -75 -176.5t-189 -64.5q-116 0 -190 65t-74 176v466h51v-469 q0 -89 61.5 -143t151.5 -54q91 0 152 54t61 143v469h51z"/>
<glyph glyph-name="uring" horiz-adv-x="607" unicode="ů" d="M303 725q-22 0 -38 -14.5t-16 -41.5t16 -42t38 -15t38 15t16 42t-16 41.5t-38 14.5zM303 751q38 0 63 -22t25 -60q0 -39 -25 -61t-63 -22q-39 0 -63.5 22t-24.5 61t24.5 60.5t63.5 21.5zM274 -6q-95 0 -145 52t-50 151v323h48v-322q0 -80 40.5 -123.5t116.5 -43.5 q94 0 142 61t48 143v285h48v-520h-41l-5 112q-56 -118 -202 -118z"/>
<glyph glyph-name="Uhungarumlaut" horiz-adv-x="712" unicode="Ű" d="M362 854l-59 -110h-36l49 110h46zM484 854l-59 -110h-36l49 110h46zM620 700v-466q0 -112 -75 -176.5t-189 -64.5q-116 0 -190 65t-74 176v466h51v-469q0 -89 61.5 -143t151.5 -54q91 0 152 54t61 143v469h51z"/>
<glyph glyph-name="uhungarumlaut" horiz-adv-x="607" unicode="ű" d="M423 732l-59 -149h-36l49 149h46zM301 732l-59 -149h-36l49 149h46zM274 -6q-95 0 -145 52t-50 151v323h48v-322q0 -80 40.5 -123.5t116.5 -43.5q94 0 142 61t48 143v285h48v-520h-41l-5 112q-56 -118 -202 -118z"/>
<glyph glyph-name="Uogonek" horiz-adv-x="712" unicode="Ų" d="M620 700v-466q0 -92 -51.5 -153t-137.5 -80q-58 -39 -58 -94q0 -22 11 -34.5t28 -12.5q18 0 34 5l3 -27q-20 -9 -45 -9q-31 0 -50 18t-19 52q0 54 48 95q-5 0 -14 -0.5t-13 -0.5q-116 0 -190 65t-74 176v466h51v-469q0 -89 61.5 -143t151.5 -54q91 0 152 54t61 143v469 h51z"/>
<glyph glyph-name="uogonek" horiz-adv-x="607" unicode="ų" d="M274 -6q-95 0 -145 52t-50 151v323h48v-322q0 -80 40.5 -123.5t116.5 -43.5q94 0 142 61t48 143v285h48v-520q-59 -39 -59 -93q0 -22 11 -34.5t28 -12.5q18 0 34 5l3 -27q-20 -9 -45 -9q-31 0 -50 18t-19 52q0 57 58 101h-2l-5 112q-56 -118 -202 -118z"/>
<glyph glyph-name="Wcircumflex" horiz-adv-x="964" unicode="Ŵ" d="M612 744h-49l-79 86l-80 -86h-49l106 110h45zM924 700l-203 -700h-62l-177 613l-176 -613h-62l-204 700h56l112 -392q12 -43 35.5 -129t32.5 -118h1l178 627h54l179 -627h1q10 33 33 120.5t36 131.5l111 387h55z"/>
<glyph glyph-name="wcircumflex" horiz-adv-x="809" unicode="ŵ" d="M428 732l106 -149h-47l-81 123l-82 -123h-47l106 149h45zM773 520l-168 -520h-55l-146 440l-146 -440h-55l-167 520h49l148 -468l150 453h43l149 -454l149 469h49z"/>
<glyph glyph-name="Ycircumflex" horiz-adv-x="608" unicode="Ŷ" d="M435 744h-49l-79 86l-80 -86h-49l106 110h45zM330 0h-51v282l-251 418h53l223 -374l223 374h53l-250 -416v-284z"/>
<glyph glyph-name="ycircumflex" horiz-adv-x="564" unicode="ŷ" d="M315 732l106 -149h-47l-81 123l-82 -123h-47l106 149h45zM523 520l-222 -557q-34 -84 -70.5 -110t-84.5 -26q-36 0 -76 8l2 37q45 -8 66 -8q41 0 66.5 26.5t48.5 82.5l10 25l-222 522h53l194 -470l186 470h49z"/>
<glyph glyph-name="Ydieresis" horiz-adv-x="608" unicode="Ÿ" d="M400 829q28 0 28 -28q0 -27 -28 -27q-13 0 -21 7.5t-8 19.5t8 20t21 8zM209 829q14 0 22 -8t8 -20t-8 -19.5t-22 -7.5q-13 0 -20.5 7.5t-7.5 19.5q0 28 28 28zM330 0h-51v282l-251 418h53l223 -374l223 374h53l-250 -416v-284z"/>
<glyph glyph-name="Zacute" horiz-adv-x="608" unicode="Ź" d="M396 854l-71 -110h-36l61 110h46zM563 700v-36l-466 -626l230 2h236v-40h-526v36l466 625l-225 -1h-227v40h512z"/>
<glyph glyph-name="zacute" horiz-adv-x="500" unicode="ź" d="M316 731l-71 -148h-36l61 148h46zM459 520v-39l-367 -448l155 2h212v-35h-419v38l368 448l-154 -1h-207v35h412z"/>
<glyph glyph-name="Zdotaccent" horiz-adv-x="608" unicode="Ż" d="M301 831q14 0 22 -7.5t8 -20.5t-8 -20.5t-22 -7.5q-13 0 -21 7.5t-8 20.5t8 20.5t21 7.5zM563 700v-36l-466 -626l230 2h236v-40h-526v36l466 625l-225 -1h-227v40h512z"/>
<glyph glyph-name="zdotaccent" horiz-adv-x="500" unicode="ż" d="M256 670q14 0 22 -7.5t8 -20.5t-8 -20.5t-22 -7.5q-13 0 -21 7.5t-8 20.5t8 20.5t21 7.5zM459 520v-39l-367 -448l155 2h212v-35h-419v38l368 448l-154 -1h-207v35h412z"/>
<glyph glyph-name="Zcaron" horiz-adv-x="608" unicode="Ž" d="M431 854l-106 -110h-45l-106 110h49l80 -86l79 86h49zM563 700v-36l-466 -626l230 2h236v-40h-526v36l466 625l-225 -1h-227v40h512z"/>
<glyph glyph-name="zcaron" horiz-adv-x="500" unicode="ž" d="M278 583h-45l-106 149h47l82 -123l81 123h47zM459 520v-39l-367 -448l155 2h212v-35h-419v38l368 448l-154 -1h-207v35h412z"/>
<glyph glyph-name="AEacute" horiz-adv-x="1015" unicode="Ǽ" d="M738 854l-71 -110h-36l61 110h46zM467 660l-256 -414h261v414h-5zM60 0h-52l428 700h513v-40h-426v-299h367v-40h-367v-281h442v-40h-493v206h-285z"/>
<glyph glyph-name="aeacute" horiz-adv-x="942" unicode="ǽ" d="M571 729l-71 -148h-36l61 148h46zM243 31q61 0 111.5 29.5t70.5 77.5q-23 56 -23 121v5q-77 7 -136 7q-176 0 -176 -121q0 -63 42.5 -91t110.5 -28zM451 278h396q0 93 -47 152t-137 59q-93 0 -149 -55.5t-63 -155.5zM893 273q0 -22 -2 -30h-441q1 -100 64 -156t168 -56 q87 0 173 42l9 -36q-97 -43 -186 -43q-163 0 -235 109q-26 -48 -79 -78.5t-133 -30.5q-87 0 -138 38t-51 115q0 159 220 159q63 0 142 -7q6 54 30 99q-8 52 -46.5 71.5t-108.5 19.5q-95 0 -183 -25l-7 36q92 26 197 26q147 0 183 -78q72 78 193 78q110 0 170.5 -71.5 t60.5 -181.5z"/>
<glyph glyph-name="Oslashacute" horiz-adv-x="794" unicode="Ǿ" d="M490 854l-71 -110h-36l61 110h46zM397 666q-132 0 -213 -85.5t-81 -232.5q0 -170 109 -255l343 532q-69 41 -158 41zM691 348q0 174 -111 260l-344 -532q68 -42 161 -42q133 0 213.5 84t80.5 230zM397 707q103 0 182 -45l44 67h35l-53 -83q66 -47 102.5 -123t36.5 -175 q0 -163 -95 -259t-252 -96q-104 0 -185 45l-43 -67h-35l53 83q-137 96 -137 294q0 164 96 261.5t251 97.5z"/>
<glyph glyph-name="oslashacute" horiz-adv-x="632" unicode="ǿ" d="M388 731l-71 -148h-36l61 148h46zM316 489q-95 0 -155 -62t-60 -168q0 -120 76 -183l249 386q-48 27 -110 27zM531 259q0 126 -85 190l-250 -387q51 -33 120 -33q95 0 155 62t60 168zM316 526q72 0 131 -31l38 58h28l-45 -70q111 -72 111 -224q0 -122 -74 -194.5 t-189 -72.5q-78 0 -142 36l-39 -61h-28l47 74q-101 72 -101 218q0 122 73.5 194.5t189.5 72.5z"/>
<glyph glyph-name="Scommaaccent" horiz-adv-x="603" unicode="Ș" d="M299 -45h38q0 -25 -1.5 -39.5t-6 -38.5l-7.5 -40h-32q9 70 9 105v13zM302 707q107 0 221 -48l-14 -39q-7 4 -30 13.5t-74 21t-101 11.5q-86 0 -138 -35t-52 -101q0 -24 7 -44t24.5 -35.5t31 -25.5t44 -21t45.5 -15t52 -15q45 -12 72.5 -20.5t62.5 -25t54.5 -35 t33.5 -47.5t14 -66q0 -91 -66.5 -139t-181.5 -48q-134 0 -252 59l13 39q126 -56 238 -56q96 0 146 36.5t50 102.5q0 29 -12.5 52t-27 36.5t-48 27.5t-52.5 20t-63 18q-45 12 -71 20t-62 25t-56 35.5t-34.5 49t-14.5 68.5q0 86 65 133.5t176 47.5z"/>
<glyph glyph-name="scommaaccent" horiz-adv-x="474" unicode="ș" d="M223 -45h38q0 -25 -1.5 -39.5t-6 -38.5l-7.5 -40h-32q9 70 9 105v13zM237 526q93 0 172 -31l-8 -33q-66 27 -157 27q-70 0 -108 -25.5t-38 -71.5q0 -25 10.5 -43.5t29.5 -29t43.5 -18.5t53.5 -16q14 -3 21 -5q38 -10 56 -16t46.5 -18.5t41.5 -25.5t23.5 -35.5t10.5 -50.5 q0 -68 -51.5 -104t-139.5 -36q-103 0 -195 41l10 33q87 -37 180 -37q72 0 110 26.5t38 73.5q0 33 -22.5 55t-45 30t-78.5 23q-9 3 -14 4q-94 26 -124 46q-52 34 -52 98q0 67 50 103t137 36z"/>
<glyph glyph-name="circumflex" horiz-adv-x="395" unicode="ˆ" d="M220 713l106 -149h-47l-81 123l-82 -123h-47l106 149h45z"/>
<glyph glyph-name="caron" horiz-adv-x="395" unicode="ˇ" d="M220 564h-45l-106 149h47l82 -123l81 123h47z"/>
<glyph glyph-name="breve" horiz-adv-x="401" unicode="˘" d="M285 683l37 -4q-16 -99 -121 -99t-122 99l37 4q10 -37 28.5 -55t56.5 -18t56 18t28 55z"/>
<glyph glyph-name="dotaccent" horiz-adv-x="213" unicode="˙" d="M106 651q14 0 22 -7.5t8 -20.5t-8 -20.5t-22 -7.5q-13 0 -21 7.5t-8 20.5t8 20.5t21 7.5z"/>
<glyph glyph-name="ring" horiz-adv-x="327" unicode="˚" d="M164 706q-22 0 -38 -14.5t-16 -41.5t16 -42t38 -15t38 15t16 42t-16 41.5t-38 14.5zM164 732q38 0 63 -22t25 -60q0 -39 -25 -61t-63 -22q-39 0 -63.5 22t-24.5 61t24.5 60.5t63.5 21.5z"/>
<glyph glyph-name="ogonek" horiz-adv-x="283" unicode="˛" d="M177 17l11 -17q-59 -39 -59 -93q0 -22 11 -34.5t28 -12.5q18 0 34 5l3 -27q-20 -9 -45 -9q-31 0 -50 18t-19 52q0 71 86 118z"/>
<glyph glyph-name="tilde" horiz-adv-x="428" unicode="˜" d="M331 666l21 -9q-22 -61 -77 -61q-19 0 -66 20q-44 20 -62 20q-33 0 -50 -33l-21 8q21 61 76 61q25 0 67 -20q38 -20 62 -20q32 0 50 34z"/>
<glyph glyph-name="hungarumlaut" horiz-adv-x="402" unicode="˝" d="M316 713l-59 -149h-36l49 149h46zM194 713l-59 -149h-36l49 149h46z"/>
<glyph glyph-name="Wgrave" horiz-adv-x="964" unicode="Ẁ" d="M466 852l49 -108h-37l-58 108h46zM924 700l-203 -700h-62l-177 613l-176 -613h-62l-204 700h56l112 -392q12 -43 35.5 -129t32.5 -118h1l178 627h54l179 -627h1q10 33 33 120.5t36 131.5l111 387h55z"/>
<glyph glyph-name="wgrave" horiz-adv-x="809" unicode="ẁ" d="M342 730h46l49 -147h-37zM773 520l-168 -520h-55l-146 440l-146 -440h-55l-167 520h49l148 -468l150 453h43l149 -454l149 469h49z"/>
<glyph glyph-name="Wacute" horiz-adv-x="964" unicode="Ẃ" d="M575 854l-71 -110h-36l61 110h46zM924 700l-203 -700h-62l-177 613l-176 -613h-62l-204 700h56l112 -392q12 -43 35.5 -129t32.5 -118h1l178 627h54l179 -627h1q10 33 33 120.5t36 131.5l111 387h55z"/>
<glyph glyph-name="wacute" horiz-adv-x="809" unicode="ẃ" d="M497 731l-71 -148h-36l61 148h46zM773 520l-168 -520h-55l-146 440l-146 -440h-55l-167 520h49l148 -468l150 453h43l149 -454l149 469h49z"/>
<glyph glyph-name="Wdieresis" horiz-adv-x="964" unicode="Ẅ" d="M577 829q28 0 28 -28q0 -27 -28 -27q-13 0 -21 7.5t-8 19.5t8 20t21 8zM386 829q14 0 22 -8t8 -20t-8 -19.5t-22 -7.5q-13 0 -20.5 7.5t-7.5 19.5q0 28 28 28zM924 700l-203 -700h-62l-177 613l-176 -613h-62l-204 700h56l112 -392q12 -43 35.5 -129t32.5 -118h1l178 627 h54l179 -627h1q10 33 33 120.5t36 131.5l111 387h55z"/>
<glyph glyph-name="wdieresis" horiz-adv-x="809" unicode="ẅ" d="M499 668q28 0 28 -28q0 -27 -28 -27q-13 0 -21 7.5t-8 19.5t8 20t21 8zM308 668q14 0 22 -8t8 -20t-8 -19.5t-22 -7.5q-13 0 -20.5 7.5t-7.5 19.5q0 28 28 28zM773 520l-168 -520h-55l-146 440l-146 -440h-55l-167 520h49l148 -468l150 453h43l149 -454l149 469h49z"/>
<glyph glyph-name="germandbls.case" horiz-adv-x="716" unicode="ẞ" d="M344 708q67 0 142.5 -25.5t137.5 -65.5q-7 -12 -30.5 -45.5t-35.5 -53.5t-24 -51.5t-12 -58.5q0 -33 14 -59t34 -44t39.5 -37t33.5 -48.5t14 -68.5q0 -84 -56.5 -127t-157.5 -43q-83 0 -187 34l7 39q93 -35 173 -35q77 0 122.5 33.5t45.5 101.5q0 33 -13 58.5t-32 43.5 l-38 36t-32 46t-13 65q0 25 5.5 48.5t18 48t20.5 37t26.5 39t21.5 30.5q-116 61 -217 61q-56 0 -97 -17t-63.5 -47.5t-33 -66.5t-10.5 -80v-456h-51v456q0 114 63.5 182.5t184.5 69.5z"/>
<glyph glyph-name="Ygrave" horiz-adv-x="608" unicode="Ỳ" d="M289 852l49 -108h-37l-58 108h46zM330 0h-51v282l-251 418h53l223 -374l223 374h53l-250 -416v-284z"/>
<glyph glyph-name="ygrave" horiz-adv-x="564" unicode="ỳ" d="M219 730h46l49 -147h-37zM523 520l-222 -557q-34 -84 -70.5 -110t-84.5 -26q-36 0 -76 8l2 37q45 -8 66 -8q41 0 66.5 26.5t48.5 82.5l10 25l-222 522h53l194 -470l186 470h49z"/>
<glyph glyph-name="endash" horiz-adv-x="716" unicode="–" d="M636 289v-37h-557v37h557z"/>
<glyph glyph-name="emdash" horiz-adv-x="972" unicode="—" d="M893 290v-38h-814v38h814z"/>
<glyph glyph-name="quoteleft" horiz-adv-x="242" unicode="‘" d="M125 510q-20 0 -34 19.5t-14 50.5q0 69 76 110l11 -18q-58 -33 -58 -90q0 -15 5 -28q4 16 20 16q28 0 28 -28q0 -15 -9.5 -23.5t-24.5 -8.5z"/>
<glyph glyph-name="quoteright" horiz-adv-x="244" unicode="’" d="M123 686q20 0 34 -19t14 -50q0 -71 -77 -110l-10 17q58 33 58 91q0 11 -6 27q-4 -15 -20 -15q-27 0 -27 28q0 14 9.5 22.5t24.5 8.5z"/>
<glyph glyph-name="quotesinglbase" horiz-adv-x="233" unicode="‚" d="M112 60q20 0 34 -19.5t14 -50.5q0 -69 -77 -110l-10 18q58 31 58 90q0 12 -6 28q-4 -16 -20 -16q-27 0 -27 28q0 15 9.5 23.5t24.5 8.5z"/>
<glyph glyph-name="quotedblleft" horiz-adv-x="381" unicode="“" d="M154 690l11 -17q-58 -33 -58 -90q0 -15 5 -28q4 15 20 15q28 0 28 -27q0 -15 -9.5 -23.5t-24.5 -8.5q-20 0 -34 19t-14 51q0 69 76 109zM292 690l11 -17q-58 -33 -58 -90q0 -15 5 -28q4 15 20 15q28 0 28 -27q0 -15 -9.5 -23.5t-24.5 -8.5q-20 0 -34 19t-14 51 q0 69 76 109z"/>
<glyph glyph-name="quotedblright" horiz-adv-x="382" unicode="”" d="M261 687q20 0 34 -19t14 -51q0 -70 -77 -109l-10 17q58 33 58 90q0 12 -6 28q-4 -16 -20 -16q-27 0 -27 28q0 15 9.5 23.5t24.5 8.5zM122 687q20 0 34 -19t14 -51q0 -70 -77 -109l-10 17q58 33 58 91q0 11 -6 27q-4 -16 -20 -16q-27 0 -27 28q0 15 9.5 23.5t24.5 8.5z "/>
<glyph glyph-name="quotedblbase" horiz-adv-x="371" unicode="„" d="M112 60q20 0 34 -18.5t14 -50.5q0 -70 -77 -111l-10 18q58 31 58 90q0 12 -6 28q-4 -16 -20 -16q-27 0 -27 28q0 15 9.5 23.5t24.5 8.5zM250 60q20 0 34 -18.5t14 -50.5q0 -70 -77 -111l-10 18q58 31 58 90q0 12 -6 28q-4 -16 -20 -16q-27 0 -27 28q0 15 9.5 23.5 t24.5 8.5z"/>
<glyph glyph-name="dagger" horiz-adv-x="494" unicode="†" d="M440 531v-36l-133 7v22zM53 531l133 -7v-22l-133 -7v36zM268 702l-5 -702h-31l-6 702h42z"/>
<glyph glyph-name="daggerdbl" horiz-adv-x="533" unicode="‡" d="M460 531v-36l-133 7v22zM73 531l133 -7v-22l-133 -7v36zM460 252v-37l-133 7v23zM73 252l133 -7v-23l-133 -7v37zM289 702l-6 -702h-31l-6 702h43z"/>
<glyph glyph-name="bullet" horiz-adv-x="342" unicode="•" d="M171 412q28 0 46.5 -16.5t18.5 -46.5t-18.5 -46.5t-46.5 -16.5q-29 0 -47.5 17t-18.5 46t18.5 46t47.5 17z"/>
<glyph glyph-name="ellipsis" horiz-adv-x="552" unicode="…" d="M282 58q15 0 23.5 -9t8.5 -23q0 -30 -32 -30q-33 0 -33 30q0 32 33 32zM111 58q15 0 23.5 -9t8.5 -23q0 -30 -32 -30q-33 0 -33 30q0 32 33 32zM452 58q15 0 23.5 -9t8.5 -23q0 -30 -32 -30q-33 0 -33 30q0 32 33 32z"/>
<glyph glyph-name="perthousand" horiz-adv-x="1198" unicode="‰" d="M202 677q-51 0 -84 -39t-33 -98t33.5 -97t84.5 -38t83 38t32 97q0 60 -32 98.5t-84 38.5zM203 709q69 0 111.5 -47t42.5 -122q0 -74 -42.5 -121t-112.5 -47q-69 0 -111.5 47t-42.5 120q0 75 43 122.5t112 47.5zM998 298q-51 0 -84 -39.5t-33 -98.5q0 -58 33.5 -96.5 t84.5 -38.5t83 38t32 97q0 60 -32.5 99t-83.5 39zM999 330q68 0 110.5 -47.5t42.5 -122.5q0 -74 -42 -120.5t-112 -46.5q-69 0 -112 47t-43 120q0 75 43.5 122.5t112.5 47.5zM594 298q-51 0 -84 -39.5t-33 -98.5q0 -58 33.5 -96.5t84.5 -38.5t83 38t32 97q0 60 -32.5 99 t-83.5 39zM595 330q68 0 110.5 -47.5t42.5 -122.5q0 -74 -42 -120.5t-112 -46.5q-69 0 -112 47t-43 120q0 75 43.5 122.5t112.5 47.5zM619 702l-404 -702h-42l405 702h41z"/>
<glyph glyph-name="guilsinglleft" horiz-adv-x="345" unicode="‹" d="M281 462l-166 -202l166 -204l-27 -26l-198 224v10l199 225z"/>
<glyph glyph-name="guilsinglright" horiz-adv-x="345" unicode="›" d="M91 489l199 -225v-10l-198 -224l-27 26l166 204l-166 202z"/>
<glyph glyph-name="fraction" horiz-adv-x="405" unicode="⁄" d="M383 702l-321 -702h-40l321 702h40z"/>
<glyph glyph-name="Euro" horiz-adv-x="764" unicode="€" d="M486 707q107 0 195 -43l-13 -37q-80 39 -173 39q-118 0 -195 -66t-98 -177h357l-10 -26h-350q-3 -24 -3 -49q0 -26 3 -48h315l-10 -26h-302q20 -111 97.5 -175.5t195.5 -64.5q84 0 168 33l2 -40q-80 -34 -178 -34q-134 0 -225 75.5t-113 205.5h-76l10 26h62q-2 32 -2 49 q0 16 2 48h-85l11 26h78q22 131 113 207.5t224 76.5z"/>
<glyph glyph-name="trademark" horiz-adv-x="779" unicode="™" d="M315 700v-28h-106v-275h-29v275h-107v28h242zM687 700v-303h-28v249l-103 -187h-20l-110 187v-249h-28v303h28l120 -207l112 207h29z"/>
<glyph glyph-name="commaaccent" horiz-adv-x="0" unicode="" d="M-138 -45h38q0 -25 -1.5 -39.5t-6 -38.5l-7.5 -40h-32q9 70 9 105v13z"/>
<glyph glyph-name="apple" horiz-adv-x="1413" unicode="" d="M567 327q-14 0 -14 -20h25q4 20 -11 20zM870 328q-14 0 -14 -20h25q4 20 -11 20zM1173 326q-10 0 -10 -25q0 -27 10 -27q9 0 9 27q0 25 -9 25zM1023 320q-7 0 -14 -7v-37q7 -5 12 -5q15 0 15 25q0 24 -13 24zM415 320q-7 0 -14 -7v-37q7 -5 12 -5q15 0 15 25q0 24 -13 24 zM714 322q-17 0 -17 -25q0 -26 12 -26q8 0 15 7v41q-6 3 -10 3zM135 400v-44h29v-37h-29v-19q0 -17 16 -17q9 0 15 2l1 -37q-18 -8 -41 -8q-28 0 -40.5 11.5t-12.5 40.5v27h-23v37h23l8 44h54zM1332 400v-44h28v-37h-28v-19q0 -17 15 -17q9 0 15 2l1 -37q-18 -8 -40 -8 q-29 0 -41.5 11.5t-12.5 40.5v27h-22v37h22l8 44h55zM870 361q61 0 61 -46q0 -17 -1 -26h-73q3 -17 29 -17q22 0 40 5v-29q-27 -10 -53 -10q-73 0 -73 61q0 62 70 62zM567 360q61 0 61 -46q0 -17 -1 -26h-73q3 -17 29 -17q24 0 40 5v-29q-25 -10 -53 -10q-73 0 -73 61 q0 62 70 62zM1172 360h1q68 0 68 -61q0 -62 -67 -62h-2q-35 0 -51 15t-16 47t16 46.5t51 14.5zM1047 360q21 0 33.5 -15.5t12.5 -44.5q0 -63 -50 -63q-20 0 -33 11v-60h-64v168h53l4 -13q19 17 44 17zM439 360q21 0 33.5 -15.5t12.5 -44.5q0 -63 -50 -63q-20 0 -33 11v-60 h-64v168h53l4 -13q19 17 44 17zM787 409v-168h-58l-3 11q-18 -15 -37 -15q-49 0 -49 62q0 61 51 61q16 0 32 -10v59h64zM321 356v-108q0 -34 -16.5 -49.5t-53.5 -15.5q-42 0 -62 12l6 32q20 -7 36 -7q28 0 28 16v10q-15 -9 -32 -9q-45 0 -45 49v70h63v-80q0 -12 14 -6v86h62 z"/>
<glyph glyph-name="J.alt" d="M172 700v-661q0 -66 -42.5 -111t-103.5 -69l-17 35q112 52 112 147v619h-58v40h109z" horiz-adv-x="270"/>
<glyph glyph-name="Jcircumflex.alt" d="M266 744h-49l-79 86l-80 -86h-49l106 110h45zM172 700v-661q0 -66 -42.5 -111t-103.5 -69l-17 35q112 52 112 147v619h-58v40h109z" horiz-adv-x="270"/>
<glyph glyph-name="a.alt" d="M298 489q-89 0 -143 -62.5t-54 -166.5t54.5 -166.5t143.5 -62.5q86 0 145 60t59 169t-59 169t-146 60zM292 526q73 0 129 -33.5t83 -95.5l6 123h41v-520h-48v119q-29 -61 -84.5 -93t-126.5 -32q-111 0 -175 74.5t-64 191.5q0 116 63.5 191t175.5 75z" horiz-adv-x="636"/>
<glyph glyph-name="aacute.alt" d="M372 731l-71 -148h-36l61 148h46zM298 489q-89 0 -143 -62.5t-54 -166.5t54.5 -166.5t143.5 -62.5q86 0 145 60t59 169t-59 169t-146 60zM292 526q73 0 129 -33.5t83 -95.5l6 123h41v-520h-48v119q-29 -61 -84.5 -93t-126.5 -32q-111 0 -175 74.5t-64 191.5 q0 116 63.5 191t175.5 75z" horiz-adv-x="636"/>
<glyph glyph-name="abreve.alt" d="M408 702l37 -4q-17 -99 -121 -99q-106 0 -122 99l37 4q10 -37 28.5 -55t56.5 -18t56 18t28 55zM298 489q-89 0 -143 -62.5t-54 -166.5t54.5 -166.5t143.5 -62.5q86 0 145 60t59 169t-59 169t-146 60zM292 526q73 0 129 -33.5t83 -95.5l6 123h41v-520h-48v119 q-29 -61 -84.5 -93t-126.5 -32q-111 0 -175 74.5t-64 191.5q0 116 63.5 191t175.5 75z" horiz-adv-x="636"/>
<glyph glyph-name="acircumflex.alt" d="M348 732l106 -149h-47l-81 123l-82 -123h-47l106 149h45zM298 489q-89 0 -143 -62.5t-54 -166.5t54.5 -166.5t143.5 -62.5q86 0 145 60t59 169t-59 169t-146 60zM292 526q73 0 129 -33.5t83 -95.5l6 123h41v-520h-48v119q-29 -61 -84.5 -93t-126.5 -32q-111 0 -175 74.5 t-64 191.5q0 116 63.5 191t175.5 75z" horiz-adv-x="636"/>
<glyph glyph-name="adieresis.alt" d="M419 668q28 0 28 -28q0 -27 -28 -27q-13 0 -21 7.5t-8 19.5t8 20t21 8zM228 668q14 0 22 -8t8 -20t-8 -19.5t-22 -7.5q-13 0 -20.5 7.5t-7.5 19.5q0 28 28 28zM298 489q-89 0 -143 -62.5t-54 -166.5t54.5 -166.5t143.5 -62.5q86 0 145 60t59 169t-59 169t-146 60z M292 526q73 0 129 -33.5t83 -95.5l6 123h41v-520h-48v119q-29 -61 -84.5 -93t-126.5 -32q-111 0 -175 74.5t-64 191.5q0 116 63.5 191t175.5 75z" horiz-adv-x="636"/>
<glyph glyph-name="agrave.alt" d="M265 730h46l49 -147h-37zM298 489q-89 0 -143 -62.5t-54 -166.5t54.5 -166.5t143.5 -62.5q86 0 145 60t59 169t-59 169t-146 60zM292 526q73 0 129 -33.5t83 -95.5l6 123h41v-520h-48v119q-29 -61 -84.5 -93t-126.5 -32q-111 0 -175 74.5t-64 191.5q0 116 63.5 191 t175.5 75z" horiz-adv-x="636"/>
<glyph glyph-name="amacron.alt" d="M469 667v-32h-290v32h290zM298 489q-89 0 -143 -62.5t-54 -166.5t54.5 -166.5t143.5 -62.5q86 0 145 60t59 169t-59 169t-146 60zM292 526q73 0 129 -33.5t83 -95.5l6 123h41v-520h-48v119q-29 -61 -84.5 -93t-126.5 -32q-111 0 -175 74.5t-64 191.5q0 116 63.5 191 t175.5 75z" horiz-adv-x="636"/>
<glyph glyph-name="aogonek.alt" d="M298 489q-89 0 -143 -62.5t-54 -166.5t54.5 -166.5t143.5 -62.5q86 0 145 60t59 169t-59 169t-146 60zM292 526q73 0 129 -33.5t83 -95.5l6 123h41v-520q-59 -39 -59 -93q0 -22 11 -34.5t28 -12.5q18 0 34 5l3 -27q-20 -9 -45 -9q-31 0 -50 18t-19 52q0 57 58 101h-9v119 q-29 -61 -84.5 -93t-126.5 -32q-111 0 -175 74.5t-64 191.5q0 116 63.5 191t175.5 75z" horiz-adv-x="636"/>
<glyph glyph-name="aring.alt" d="M324 725q-22 0 -38 -14.5t-16 -41.5t16 -42t38 -15t38 15t16 42t-16 41.5t-38 14.5zM324 751q38 0 63 -22t25 -60q0 -39 -25 -61t-63 -22q-39 0 -63.5 22t-24.5 61t24.5 60.5t63.5 21.5zM298 489q-89 0 -143 -62.5t-54 -166.5t54.5 -166.5t143.5 -62.5q86 0 145 60 t59 169t-59 169t-146 60zM292 526q73 0 129 -33.5t83 -95.5l6 123h41v-520h-48v119q-29 -61 -84.5 -93t-126.5 -32q-111 0 -175 74.5t-64 191.5q0 116 63.5 191t175.5 75z" horiz-adv-x="636"/>
<glyph glyph-name="atilde.alt" d="M441 685l21 -9q-22 -61 -77 -61q-19 0 -66 20q-44 20 -62 20q-33 0 -50 -33l-21 8q21 61 76 61q25 0 67 -20q38 -20 62 -20q32 0 50 34zM298 489q-89 0 -143 -62.5t-54 -166.5t54.5 -166.5t143.5 -62.5q86 0 145 60t59 169t-59 169t-146 60zM292 526q73 0 129 -33.5 t83 -95.5l6 123h41v-520h-48v119q-29 -61 -84.5 -93t-126.5 -32q-111 0 -175 74.5t-64 191.5q0 116 63.5 191t175.5 75z" horiz-adv-x="636"/>
<glyph glyph-name="g.alt" d="M299 489q-97 0 -147.5 -58.5t-50.5 -159.5q0 -102 51 -160.5t148 -58.5q93 0 144 59t51 160q0 99 -51.5 158.5t-144.5 59.5zM290 526q73 0 127.5 -32t80.5 -89l4 115h41v-454q0 -124 -67.5 -181t-184.5 -57q-126 0 -214 46l13 34q90 -43 196 -43q95 0 152 47.5t57 149.5 v71q-27 -58 -82 -88t-124 -30q-110 0 -173 66.5t-63 188.5t63 189t174 67z" horiz-adv-x="628"/>
<glyph glyph-name="gbreve.alt" d="M408 702l37 -4q-17 -99 -121 -99q-106 0 -122 99l37 4q10 -37 28.5 -55t56.5 -18t56 18t28 55zM299 489q-97 0 -147.5 -58.5t-50.5 -159.5q0 -102 51 -160.5t148 -58.5q93 0 144 59t51 160q0 99 -51.5 158.5t-144.5 59.5zM290 526q73 0 127.5 -32t80.5 -89l4 115h41v-454 q0 -124 -67.5 -181t-184.5 -57q-126 0 -214 46l13 34q90 -43 196 -43q95 0 152 47.5t57 149.5v71q-27 -58 -82 -88t-124 -30q-110 0 -173 66.5t-63 188.5t63 189t174 67z" horiz-adv-x="628"/>
<glyph glyph-name="gcircumflex.alt" d="M345 732l106 -149h-47l-81 123l-82 -123h-47l106 149h45zM299 489q-97 0 -147.5 -58.5t-50.5 -159.5q0 -102 51 -160.5t148 -58.5q93 0 144 59t51 160q0 99 -51.5 158.5t-144.5 59.5zM290 526q73 0 127.5 -32t80.5 -89l4 115h41v-454q0 -124 -67.5 -181t-184.5 -57 q-126 0 -214 46l13 34q90 -43 196 -43q95 0 152 47.5t57 149.5v71q-27 -58 -82 -88t-124 -30q-110 0 -173 66.5t-63 188.5t63 189t174 67z" horiz-adv-x="628"/>
<glyph glyph-name="gcommaaccent.alt" d="M318 584h-38q0 25 1.5 39.5t6 38.5l7.5 40h32q-9 -70 -9 -105v-13zM299 489q-97 0 -147.5 -58.5t-50.5 -159.5q0 -102 51 -160.5t148 -58.5q93 0 144 59t51 160q0 99 -51.5 158.5t-144.5 59.5zM290 526q73 0 127.5 -32t80.5 -89l4 115h41v-454q0 -124 -67.5 -181 t-184.5 -57q-126 0 -214 46l13 34q90 -43 196 -43q95 0 152 47.5t57 149.5v71q-27 -58 -82 -88t-124 -30q-110 0 -173 66.5t-63 188.5t63 189t174 67z" horiz-adv-x="628"/>
<glyph glyph-name="gdotaccent.alt" d="M317 670q14 0 22 -7.5t8 -20.5t-8 -20.5t-22 -7.5q-13 0 -21 7.5t-8 20.5t8 20.5t21 7.5zM299 489q-97 0 -147.5 -58.5t-50.5 -159.5q0 -102 51 -160.5t148 -58.5q93 0 144 59t51 160q0 99 -51.5 158.5t-144.5 59.5zM290 526q73 0 127.5 -32t80.5 -89l4 115h41v-454 q0 -124 -67.5 -181t-184.5 -57q-126 0 -214 46l13 34q90 -43 196 -43q95 0 152 47.5t57 149.5v71q-27 -58 -82 -88t-124 -30q-110 0 -173 66.5t-63 188.5t63 189t174 67z" horiz-adv-x="628"/>
<glyph glyph-name="j.alt" d="M114 680q32 0 32 -30q0 -29 -32 -29q-33 0 -33 29q0 30 33 30zM140 520v-532q0 -60 -32.5 -95.5t-84.5 -62.5l-18 33q87 49 87 117v505h-65v35h113z" horiz-adv-x="227"/>
<glyph glyph-name="jcircumflex.alt" d="M121 732l106 -149h-47l-81 123l-82 -123h-47l106 149h45zM140 520v-532q0 -60 -32.5 -95.5t-84.5 -62.5l-18 33q87 49 87 117v505h-65v35h113z" horiz-adv-x="227"/>
<glyph glyph-name="f_b" d="M642 31q95 0 149.5 62t54.5 167t-54 167t-149 62q-81 0 -140.5 -60.5t-59.5 -168.5t59 -168.5t140 -60.5zM653 -6q-78 0 -130.5 35.5t-80.5 90.5l-5 -120h-41v560q0 68 -35.5 104.5t-91.5 36.5t-89 -37t-33 -103v-41h135v-35h-135v-485h-48v485h-68v35h68v39 q0 86 46.5 132.5t123.5 46.5q76 0 125 -45.5t49 -132.5v-159q24 50 77 87.5t134 37.5q112 0 176 -74.5t64 -191.5q0 -120 -62.5 -193t-178.5 -73z" horiz-adv-x="947"/>
<glyph glyph-name="f_f_b" d="M908 31q95 0 149.5 62t54.5 167t-54 167t-149 62q-81 0 -140.5 -60.5t-59.5 -168.5t59 -168.5t140 -60.5zM920 526q112 0 176 -74.5t64 -191.5q0 -120 -62.5 -193t-178.5 -73q-78 0 -130.5 35.5t-80.5 90.5l-5 -120h-41v565q0 69 -35.5 105.5t-91.5 36.5t-89 -37.5 t-33 -104.5v-45h135v-35h-135v-485h-48v485h-219v-485h-48v485h-67v35h67v66q0 76 30.5 114t103.5 38q36 0 68 -8l-6 -35q-34 6 -55 6q-51 0 -72 -28.5t-21 -82.5v-70h219v45q0 85 46.5 132t123.5 47t126 -45.5t49 -133.5v-162q25 50 77.5 86.5t132.5 36.5z" horiz-adv-x="1213"/>
<glyph glyph-name="f_f_h" d="M910 526q95 0 145 -52t50 -151v-323h-48v322q0 80 -40.5 123.5t-116.5 43.5q-94 0 -142 -61t-48 -143v-285h-48v566q0 68 -35 104.5t-92 36.5q-56 0 -89 -37t-33 -104v-46h135v-35h-135v-485h-48v485h-219v-485h-48v485h-67v35h67v66q0 76 30 114t103 38q37 0 69 -8 l-6 -35q-34 6 -56 6q-50 0 -71 -28.5t-21 -82.5v-70h219v45q0 85 46.5 132t123.5 47t126 -45t49 -133v-156q55 116 200 116z" horiz-adv-x="1187"/>
<glyph glyph-name="f_f_k" d="M1062 520l-200 -198l207 -322h-54l-185 290l-121 -120v-170h-48v566q0 68 -35 104.5t-91 36.5t-89 -37t-33 -104v-46h135v-35h-135v-485h-48v485h-219v-485h-48v485h-67v35h67v66q0 76 30 114t103 38q37 0 69 -8l-6 -35q-34 6 -56 6q-51 0 -71.5 -28t-20.5 -83v-70h219 v45q0 85 46.5 132t123.5 47q76 0 125 -45.5t49 -133.5v-339l299 294h54z" horiz-adv-x="1079"/>
<glyph glyph-name="f_h" d="M644 526q95 0 145 -52t50 -151v-323h-48v322q0 80 -40.5 123.5t-116.5 43.5q-94 0 -142 -61t-48 -143v-285h-48v560q0 68 -35 104.5t-92 36.5q-56 0 -89 -37t-33 -104v-40h135v-35h-135v-485h-48v485h-68v35h68v39q0 86 46 132.5t124 46.5q77 0 126 -45.5t49 -132.5v-151 q55 117 200 117z" horiz-adv-x="921"/>
<glyph glyph-name="f_k" d="M798 520l-200 -198l207 -322h-54l-185 290l-121 -120v-170h-48v560q0 69 -35 105t-91 36t-89 -37t-33 -104v-40h135v-35h-135v-485h-48v485h-68v35h68v39q0 86 46 132.5t124 46.5q76 0 125 -45.5t49 -132.5v-334l299 294h54z" horiz-adv-x="795"/>
<glyph glyph-name="zero.tnum" d="M349 34q107 0 166 87t59 230q0 141 -59.5 228t-165.5 87q-108 0 -167.5 -86.5t-59.5 -227.5q0 -143 59.5 -230.5t167.5 -87.5zM348 -7q-131 0 -204.5 99t-73.5 259q0 159 73.5 257.5t205.5 98.5q130 0 203.5 -98.5t73.5 -256.5q0 -161 -73.5 -260t-204.5 -99z"/>
<glyph glyph-name="one.tnum" d="M396 702v-664h201v-38h-455v38h203v617l-178 -62l-17 35l205 74h41z"/>
<glyph glyph-name="two.tnum" d="M143 613l-13 38q103 56 206 56q100 0 165 -51.5t65 -144.5q0 -35 -11.5 -68.5t-25 -57t-42 -54t-44 -44.5t-49.5 -43l-227 -202h414v-42h-478v37l263 238q3 3 18.5 17.5t21 19.5t19.5 19t20 21.5t18 21.5t17 24t13 24.5t11.5 27t6.5 27.5t3 30q0 72 -51.5 115.5 t-137.5 43.5q-78 0 -182 -53z"/>
<glyph glyph-name="three.tnum" d="M334 707q98 0 160 -43t62 -124q0 -62 -38.5 -106t-107.5 -60q79 -14 127 -63.5t48 -119.5q0 -97 -71.5 -147.5t-189.5 -50.5q-54 0 -110.5 14t-92.5 32l15 38q31 -16 82.5 -29.5t101.5 -13.5q94 0 153.5 40.5t59.5 122.5q0 73 -61 117.5t-141 44.5h-73v35h71q70 0 123 35 t53 106q0 67 -51.5 99t-130.5 32q-88 0 -173 -40l-12 35q38 18 94 32t102 14z"/>
<glyph glyph-name="four.tnum" d="M131 216h343v416zM525 702v-486h94v-40h-94v-176h-51v176h-397v35l404 491h44z"/>
<glyph glyph-name="five.tnum" d="M555 700v-42h-353l-17 -280q71 47 169 47q109 0 174 -56t65 -152q0 -104 -72 -164t-195 -60q-118 0 -214 50l16 39q89 -48 193 -48q101 0 160.5 48t59.5 133q0 81 -54.5 125.5t-145.5 44.5q-87 0 -167 -56l-33 24l23 347h391z"/>
<glyph glyph-name="six.tnum" d="M372 391q-87 0 -142 -54.5t-55 -127.5q0 -79 55.5 -127t140.5 -48q87 0 139.5 46.5t52.5 132.5q0 84 -53.5 131t-137.5 47zM393 707q103 0 193 -43l-16 -36q-87 38 -171 38q-128 0 -190 -104q-48 -77 -51 -220q0 -33 1 -48q25 62 84 99.5t144 37.5q99 0 163.5 -56.5 t64.5 -159.5t-66 -162.5t-176 -59.5q-168 0 -228 138q-40 87 -40 202q0 156 69 259q76 115 219 115z"/>
<glyph glyph-name="seven.tnum" d="M625 700v-40l-346 -660h-56l349 658h-458v42h511z"/>
<glyph glyph-name="eight.tnum" d="M350 666q-77 0 -124 -35.5t-47 -100.5q0 -62 44.5 -99t125.5 -37t125 37t44 99q0 65 -46 100.5t-122 35.5zM350 347q-96 0 -149.5 -42.5t-53.5 -114.5q0 -74 55 -115t148 -41t146.5 40.5t53.5 114.5t-53 116t-147 42zM349 707q99 0 159 -46.5t60 -125.5q0 -60 -38 -104.5 t-118 -58.5q91 -11 140.5 -61t49.5 -126q0 -93 -70 -142.5t-183 -49.5t-183.5 49.5t-70.5 142.5q0 76 49.5 126t140.5 61q-79 14 -117.5 58t-38.5 105q0 79 60.5 125.5t159.5 46.5z"/>
<glyph glyph-name="nine.tnum" d="M337 666q-88 0 -141 -46.5t-53 -136.5q0 -81 54 -127t138 -46q90 0 145 53.5t55 127.5q0 80 -55.5 127.5t-142.5 47.5zM335 707q167 0 228 -135q42 -81 42 -205q0 -168 -64 -260q-77 -114 -227 -114q-102 0 -194 43l17 35q89 -37 171 -37q136 0 198 102q45 73 47 222 q0 32 -1 47q-25 -61 -85.5 -98.5t-146.5 -37.5q-98 0 -163.5 57.5t-65.5 156.5q0 105 66.5 164.5t177.5 59.5z"/>
<glyph glyph-name="exclamdown.case" d="M141 532l5 -532h-51l5 532h41zM120 711q34 0 34 -31t-34 -31q-33 0 -33 31t33 31z" horiz-adv-x="241"/>
<glyph glyph-name="questiondown.case" d="M267 711q34 0 34 -32q0 -31 -34 -31q-33 0 -33 31q0 32 33 32zM288 532v-77q0 -42 -19.5 -75.5t-47.5 -55.5t-56 -43.5t-47.5 -51.5t-19.5 -68q0 -62 45 -92.5t110 -30.5q81 0 152 45l15 -36q-72 -50 -169 -50q-84 0 -142 40.5t-58 120.5q0 38 14.5 68.5t36.5 49t47 38.5 t47 37.5t36.5 44.5t14.5 60v76h41z" horiz-adv-x="474"/>
<glyph glyph-name="braceleft.case" d="M277 795v-37h-23q-53 0 -75.5 -21t-22.5 -69v-227q0 -79 -70 -91q70 -10 70 -90v-227q0 -48 22.5 -69t75.5 -21h23v-37h-26q-74 0 -104.5 32t-30.5 97v224q0 71 -73 75v33q73 4 73 75v223q0 66 30.5 98t104.5 32h26z" horiz-adv-x="326"/>
<glyph glyph-name="braceright.case" d="M49 795h27q73 0 103.5 -32t30.5 -98v-223q0 -71 73 -75v-33q-73 -4 -73 -75v-224q0 -65 -30.5 -97t-103.5 -32h-27v37h24q52 0 74.5 21t22.5 69v227q0 80 70 90q-70 12 -70 91v227q0 48 -22.5 69t-74.5 21h-24v37z" horiz-adv-x="326"/>
<glyph glyph-name="bracketleft.case" d="M241 757h-104v-814h104v-37h-144v889h144v-38z" horiz-adv-x="290"/>
<glyph glyph-name="bracketright.case" d="M49 795h144v-889h-144v37h103v814h-103v38z" horiz-adv-x="290"/>
<glyph glyph-name="parenleft.case" d="M255 806h49q-82 -72 -139.5 -184.5t-57.5 -266.5t57.5 -266.5t139.5 -184.5h-49q-78 64 -138 183.5t-60 267.5t60 267.5t138 183.5z" horiz-adv-x="320"/>
<glyph glyph-name="parenright.case" d="M16 806h50q77 -65 137 -184t60 -267t-60 -267t-137 -184h-50q82 72 140 184.5t58 266.5t-58 266.5t-140 184.5z" horiz-adv-x="320"/>
<glyph glyph-name="emdash.case" d="M893 369v-37h-814v37h814z" horiz-adv-x="972"/>
<glyph glyph-name="endash.case" d="M636 369v-37h-557v37h557z" horiz-adv-x="716"/>
<glyph glyph-name="hyphen.case" d="M433 369v-37h-354v37h354z" horiz-adv-x="513"/>
<glyph glyph-name="hyphen.tnum" d="M544 350v-36h-391v36h391z"/>
<glyph glyph-name="guillemotleft.case" d="M254 573l27 -26l-168 -203l168 -203l-27 -26l-198 224v10zM459 573l27 -26l-168 -203l168 -203l-27 -26l-198 224v10z" horiz-adv-x="550"/>
<glyph glyph-name="guillemotright.case" d="M90 572l199 -224v-10l-198 -224l-27 26l168 203l-168 203zM295 572l199 -224v-10l-198 -224l-27 26l168 203l-168 203z" horiz-adv-x="550"/>
<glyph glyph-name="guilsinglleft.case" d="M254 573l27 -26l-168 -203l168 -203l-27 -26l-198 224v10z" horiz-adv-x="345"/>
<glyph glyph-name="guilsinglright.case" d="M91 574l199 -225v-9l-198 -225l-27 27l168 203l-168 202z" horiz-adv-x="345"/>
<glyph glyph-name="cent.tnum" d="M399 687v-81q75 -2 143 -28l-9 -33q-69 24 -132 24q-108 0 -170 -62t-62 -167q0 -106 62.5 -167.5t171.5 -61.5q62 0 131 28l9 -34q-75 -31 -144 -31v-80h-30v81q-113 8 -180.5 78t-67.5 187q0 116 68 186.5t180 78.5v82h30z"/>
<glyph glyph-name="dollar.tnum" d="M360 785v-77q104 -3 198 -43l-14 -38q-8 4 -32.5 12.5t-72 18t-91.5 9.5q-84 0 -135 -35t-51 -101q0 -31 12.5 -55.5t29 -39.5t48.5 -28.5t54.5 -20t64.5 -16.5q50 -12 83 -24.5t67.5 -34t51.5 -54.5t17 -79q0 -88 -61.5 -135.5t-168.5 -51.5v-78h-30v79q-128 7 -222 52 l13 37q114 -48 226 -48q91 0 140.5 36.5t49.5 102.5q0 30 -12 54t-28.5 38.5t-48 27.5t-54 19.5t-63.5 16.5q-39 10 -66 19t-59 25t-51 35t-32 49t-13 68q0 83 57.5 130.5t162.5 51.5v78h30z"/>
<glyph glyph-name="Euro.tnum" d="M454 707q107 0 195 -43l-13 -37q-80 39 -173 39q-118 0 -195 -66t-98 -177h357l-10 -26h-350q-3 -24 -3 -49q0 -26 3 -48h315l-10 -26h-302q20 -111 97.5 -175.5t195.5 -64.5q84 0 168 33l2 -40q-80 -34 -178 -34q-134 0 -225 75.5t-113 205.5h-76l10 26h62q-2 32 -2 49 q0 16 2 48h-85l11 26h78q22 131 113 207.5t224 76.5z"/>
<glyph glyph-name="sterling.tnum" d="M506 347v-29h-268q13 -58 13 -116q0 -104 -71 -161q-3 -2 -4 -3h412v-38h-479v35q4 1 10 4t22 15t28 28.5t22 47t10 68.5q0 61 -13 120h-72v29h64q-18 78 -18 154q0 90 63.5 148t165.5 58q97 0 167 -48l-18 -34q-64 42 -147 42q-82 0 -131.5 -47.5t-49.5 -117.5 q0 -73 19 -155h275z"/>
<glyph glyph-name="yen.tnum" d="M622 702l-248 -414v-37h143v-26h-143v-61h143v-26h-143v-138h-51v138h-143v26h143v61h-143v26h143v37l-249 414h55l219 -368l219 368h55z"/>
<glyph glyph-name="divide.tnum" d="M349 185q30 0 30 -29q0 -31 -30 -31q-31 0 -31 31q0 13 8.5 21t22.5 8zM349 520q30 0 30 -30t-30 -30q-31 0 -31 30q0 14 8.5 22t22.5 8zM564 337v-34h-431v34h431z"/>
<glyph glyph-name="equal.tnum" d="M535 260v-35h-373v35h373zM535 424v-34h-373v34h373z"/>
<glyph glyph-name="multiply.tnum" d="M161 496l25 26l162 -164l163 164l26 -26l-163 -164l163 -163l-26 -26l-163 163l-162 -163l-25 26l162 163z"/>
<glyph glyph-name="percent.tnum" d="M537 329q68 0 107.5 -47t39.5 -122t-39.5 -121.5t-108.5 -46.5q-67 0 -107.5 46.5t-40.5 120.5q0 76 40.5 123t108.5 47zM536 297q-51 0 -82 -38.5t-31 -99.5q0 -59 31.5 -97t82.5 -38t80.5 38t29.5 97q0 61 -30 99.5t-81 38.5zM163 709q68 0 107.5 -46.5t39.5 -122.5 q0 -75 -39.5 -121.5t-108.5 -46.5q-67 0 -107.5 46.5t-40.5 120.5q0 76 40.5 123t108.5 47zM162 677q-51 0 -82 -38.5t-31 -98.5t31.5 -98t82.5 -38t80.5 38t29.5 98q0 61 -30 99t-81 38zM559 701l-384 -701h-40l386 701h38z"/>
<glyph glyph-name="plus.tnum" d="M366 541v-191h199v-36h-199v-189h-37v189h-196v36h196v191h37z"/>
<glyph glyph-name="acute.case" d="M186 674l-71 -110h-36l61 110h46z" horiz-adv-x="256"/>
<glyph glyph-name="breve.case" d="M285 678l37 -2q-17 -96 -121 -96q-105 0 -122 96l37 2q10 -34 28.5 -51t56.5 -17q37 0 55.5 17t28.5 51z" horiz-adv-x="401"/>
<glyph glyph-name="caron.case" d="M326 674l-106 -110h-45l-106 110h49l80 -86l79 86h49z" horiz-adv-x="395"/>
<glyph glyph-name="circumflex.case" d="M326 564h-49l-79 86l-80 -86h-49l106 110h45z" horiz-adv-x="395"/>
<glyph glyph-name="dieresis.case" d="M299 649q28 0 28 -28q0 -27 -28 -27q-13 0 -21 7.5t-8 19.5t8 20t21 8zM108 649q14 0 22 -8t8 -20t-8 -19.5t-22 -7.5q-13 0 -20.5 7.5t-7.5 19.5q0 28 28 28z" horiz-adv-x="407"/>
<glyph glyph-name="dotaccent.case" d="M106 651q14 0 22 -7.5t8 -20.5t-8 -20.5t-22 -7.5q-13 0 -21 7.5t-8 20.5t8 20.5t21 7.5z" horiz-adv-x="213"/>
<glyph glyph-name="grave.case" d="M146 672l49 -108h-37l-58 108h46z" horiz-adv-x="272"/>
<glyph glyph-name="hungarumlaut.case" d="M194 674l-59 -110h-36l49 110h46zM316 674l-59 -110h-36l49 110h46z" horiz-adv-x="402"/>
</font>
</defs>
</svg>
